<svg width="20" height="18" viewBox="0 0 20 18" fill="none" xmlns="http://www.w3.org/2000/svg">
<g id="Social Media Icon Square/LinkedIn">
<g id="Group 73">
<path id="LinkedIn" d="M1.34961 2.81518C1.34961 2.23797 1.55232 1.76178 1.95772 1.38661C2.36312 1.01142 2.89016 0.823837 3.5388 0.823837C4.17587 0.823837 4.6913 1.00853 5.08513 1.37795C5.49053 1.7589 5.69324 2.25528 5.69324 2.86713C5.69324 3.42124 5.49633 3.88299 5.1025 4.25241C4.69711 4.63336 4.16428 4.82384 3.50405 4.82384H3.48668C2.8496 4.82384 2.33417 4.63336 1.94034 4.25241C1.54651 3.87146 1.34961 3.39237 1.34961 2.81518ZM1.57548 17.9667V6.39959H5.43262V17.9667H1.57548ZM7.56969 17.9667H11.4268V11.5078C11.4268 11.1038 11.4732 10.7921 11.5658 10.5728C11.728 10.1802 11.9741 9.84835 12.3042 9.57708C12.6344 9.30579 13.0484 9.17015 13.5465 9.17015C14.8438 9.17015 15.4925 10.0417 15.4925 11.7849V17.9667H19.3496V11.3347C19.3496 9.62614 18.9442 8.33033 18.1334 7.44721C17.3226 6.56409 16.2512 6.12254 14.9191 6.12254C13.4249 6.12254 12.2608 6.76323 11.4268 8.04461V8.07925H11.4095L11.4268 8.04461V6.39959H7.56969C7.59285 6.769 7.60444 7.91762 7.60444 9.84548C7.60444 11.7733 7.59285 14.4804 7.56969 17.9667Z" fill="#828282"/>
</g>
</g>
</svg>
