<svg width="22" height="16" viewBox="0 0 22 16" fill="none" xmlns="http://www.w3.org/2000/svg">
<g id="Social Media Icon Square/YouTube">
<g id="Group 73">
<path id="YouTube" d="M11.7882 14.8752L7.72605 14.7993C6.4108 14.7728 5.09228 14.8256 3.80282 14.5515C1.84126 14.142 1.70229 12.1341 1.55688 10.4499C1.35652 8.08203 1.43409 5.67121 1.81219 3.32313C2.02565 2.00562 2.86568 1.21945 4.16476 1.1339C8.55011 0.823421 12.9646 0.860216 17.3403 1.00506C17.8024 1.01834 18.2677 1.09092 18.7234 1.17353C20.9727 1.57645 21.0275 3.85184 21.1733 5.7673C21.3187 7.70252 21.2573 9.64768 20.9794 11.5697C20.7564 13.1611 20.3298 14.4957 18.5294 14.6245C16.2737 14.793 14.0697 14.9286 11.8076 14.8854C11.8077 14.8752 11.7947 14.8752 11.7882 14.8752ZM9.40006 10.8462C11.1 9.84878 12.7674 8.868 14.4576 7.87727C12.7545 6.87986 11.0902 5.89907 9.40006 4.90835V10.8462Z" fill="#828282"/>
</g>
</g>
</svg>
