<svg width="112" height="31" viewBox="0 0 112 31" fill="none" xmlns="http://www.w3.org/2000/svg">
<g id="LOGO">
<path d="M0.201706 30V0.90908H7.23296V24.2898H19.3352V30H0.201706Z" fill="black"/>
<path d="M49.2997 15.4545C49.2997 18.6553 48.6842 21.3684 47.4531 23.5937C46.2221 25.8191 44.5554 27.5095 42.4531 28.6648C40.3603 29.8201 38.0118 30.3977 35.4077 30.3977C32.794 30.3977 30.4408 29.8153 28.348 28.6506C26.2552 27.4858 24.5933 25.7954 23.3622 23.5795C22.1406 21.3542 21.5298 18.6458 21.5298 15.4545C21.5298 12.2538 22.1406 9.54071 23.3622 7.31533C24.5933 5.08995 26.2552 3.39961 28.348 2.24431C30.4408 1.089 32.794 0.511353 35.4077 0.511353C38.0118 0.511353 40.3603 1.089 42.4531 2.24431C44.5554 3.39961 46.2221 5.08995 47.4531 7.31533C48.6842 9.54071 49.2997 12.2538 49.2997 15.4545ZM42.1122 15.4545C42.1122 13.5606 41.8423 11.9602 41.3026 10.6534C40.7723 9.34658 40.0052 8.357 39.0014 7.68465C38.0071 7.0123 36.8092 6.67613 35.4077 6.67613C34.0156 6.67613 32.8177 7.0123 31.8139 7.68465C30.8101 8.357 30.0384 9.34658 29.4986 10.6534C28.9683 11.9602 28.7031 13.5606 28.7031 15.4545C28.7031 17.3485 28.9683 18.9489 29.4986 20.2557C30.0384 21.5625 30.8101 22.5521 31.8139 23.2244C32.8177 23.8968 34.0156 24.2329 35.4077 24.2329C36.8092 24.2329 38.0071 23.8968 39.0014 23.2244C40.0052 22.5521 40.7723 21.5625 41.3026 20.2557C41.8423 18.9489 42.1122 17.3485 42.1122 15.4545Z" fill="black"/>
<path d="M72.4957 10.4119C72.3348 9.81533 72.098 9.28976 71.7855 8.83522C71.473 8.3712 71.0895 7.97821 70.6349 7.65624C70.1804 7.33427 69.6596 7.09279 69.0724 6.93181C68.4853 6.76135 67.8414 6.67613 67.1406 6.67613C65.7296 6.67613 64.508 7.01703 63.4759 7.69885C62.4531 8.38067 61.6624 9.37499 61.1037 10.6818C60.545 11.9792 60.2656 13.5559 60.2656 15.4119C60.2656 17.2775 60.5355 18.8684 61.0753 20.1846C61.6151 21.5009 62.3963 22.5047 63.419 23.196C64.4418 23.8873 65.6823 24.2329 67.1406 24.2329C68.4285 24.2329 69.5175 24.0246 70.4077 23.6079C71.3073 23.1818 71.9891 22.5805 72.4531 21.804C72.9171 21.0275 73.1491 20.1136 73.1491 19.0625L74.456 19.2187H67.3821V14.0909H79.9247V17.9403C79.9247 20.5445 79.3707 22.7746 78.2628 24.6307C77.1643 26.4867 75.6491 27.9119 73.7173 28.9062C71.795 29.9006 69.5838 30.3977 67.0838 30.3977C64.3092 30.3977 61.8707 29.7964 59.7685 28.5937C57.6662 27.3911 56.0279 25.6771 54.8537 23.4517C53.6795 21.2168 53.0923 18.5653 53.0923 15.4971C53.0923 13.1108 53.4474 10.9943 54.1577 9.14772C54.8679 7.29166 55.8575 5.71969 57.1264 4.43181C58.4048 3.14393 59.8821 2.16855 61.5582 1.50567C63.2438 0.842792 65.0573 0.511353 66.9986 0.511353C68.6842 0.511353 70.2514 0.75283 71.7003 1.23579C73.1586 1.71874 74.4465 2.40056 75.5639 3.28124C76.6908 4.16192 77.6046 5.20832 78.3054 6.42044C79.0062 7.63257 79.4418 8.96306 79.6122 10.4119H72.4957Z" fill="black"/>
<path d="M111.526 15.4545C111.526 18.6553 110.911 21.3684 109.68 23.5937C108.449 25.8191 106.782 27.5095 104.68 28.6648C102.587 29.8201 100.238 30.3977 97.6342 30.3977C95.0206 30.3977 92.6674 29.8153 90.5746 28.6506C88.4818 27.4858 86.8198 25.7954 85.5888 23.5795C84.3672 21.3542 83.7564 18.6458 83.7564 15.4545C83.7564 12.2538 84.3672 9.54071 85.5888 7.31533C86.8198 5.08995 88.4818 3.39961 90.5746 2.24431C92.6674 1.089 95.0206 0.511353 97.6342 0.511353C100.238 0.511353 102.587 1.089 104.68 2.24431C106.782 3.39961 108.449 5.08995 109.68 7.31533C110.911 9.54071 111.526 12.2538 111.526 15.4545ZM104.339 15.4545C104.339 13.5606 104.069 11.9602 103.529 10.6534C102.999 9.34658 102.232 8.357 101.228 7.68465C100.234 7.0123 99.0357 6.67613 97.6342 6.67613C96.2422 6.67613 95.0443 7.0123 94.0405 7.68465C93.0367 8.357 92.2649 9.34658 91.7251 10.6534C91.1948 11.9602 90.9297 13.5606 90.9297 15.4545C90.9297 17.3485 91.1948 18.9489 91.7251 20.2557C92.2649 21.5625 93.0367 22.5521 94.0405 23.2244C95.0443 23.8968 96.2422 24.2329 97.6342 24.2329C99.0357 24.2329 100.234 23.8968 101.228 23.2244C102.232 22.5521 102.999 21.5625 103.529 20.2557C104.069 18.9489 104.339 17.3485 104.339 15.4545Z" fill="black"/>
</g>
</svg>
