<svg width="20" height="18" viewBox="0 0 20 18" fill="none" xmlns="http://www.w3.org/2000/svg">
<g id="Social Media Icon Square/LinkedIn">
<g id="Group 73">
<path id="LinkedIn" d="M1.34961 2.81516C1.34961 2.23795 1.55232 1.76176 1.95772 1.38659C2.36312 1.01141 2.89016 0.823822 3.5388 0.823822C4.17587 0.823822 4.6913 1.00851 5.08513 1.37793C5.49053 1.75889 5.69324 2.25527 5.69324 2.86711C5.69324 3.42122 5.49633 3.88297 5.1025 4.25239C4.69711 4.63334 4.16428 4.82382 3.50405 4.82382H3.48668C2.8496 4.82382 2.33417 4.63334 1.94034 4.25239C1.54651 3.87144 1.34961 3.39236 1.34961 2.81516ZM1.57548 17.9667V6.39958H5.43262V17.9667H1.57548ZM7.56969 17.9667H11.4268V11.5078C11.4268 11.1037 11.4732 10.7921 11.5658 10.5727C11.728 10.1802 11.9741 9.84834 12.3042 9.57707C12.6344 9.30578 13.0484 9.17014 13.5465 9.17014C14.8438 9.17014 15.4925 10.0417 15.4925 11.7849V17.9667H19.3496V11.3346C19.3496 9.62612 18.9442 8.33031 18.1334 7.4472C17.3226 6.56408 16.2512 6.12252 14.9191 6.12252C13.4249 6.12252 12.2608 6.76321 11.4268 8.0446V8.07923H11.4095L11.4268 8.0446V6.39958H7.56969C7.59285 6.76898 7.60444 7.9176 7.60444 9.84546C7.60444 11.7733 7.59285 14.4804 7.56969 17.9667Z" fill="#828282"/>
</g>
</g>
</svg>
