<svg width="78" height="104" viewBox="0 0 78 104" fill="none" xmlns="http://www.w3.org/2000/svg">
<g id="logo">
<path id="Vector" d="M50.232 21.4248C50.232 22.6442 49.2179 23.6598 47.997 23.6598H30.1185C28.8992 23.6598 27.8835 22.6442 27.8835 21.4248V3.5463C27.8835 2.32694 28.8977 1.3113 30.1185 1.3113H47.997C49.2164 1.3113 50.232 2.32694 50.232 3.5463V21.4248Z" fill="#333333"/>
<path id="Vector_2" d="M77.0506 21.4248C77.0506 22.6442 76.035 23.6598 74.8156 23.6598H56.9371C55.7178 23.6598 54.7021 22.6442 54.7021 21.4248V3.5463C54.7021 2.32694 55.7178 1.3113 56.9371 1.3113H74.8156C76.0335 1.3113 77.0506 2.32694 77.0506 3.5463V21.4248Z" fill="#333333"/>
<path id="Vector_3" d="M77.0506 74.858C77.0506 76.0774 76.035 77.093 74.8156 77.093H56.9371C55.7178 77.093 54.7021 76.0774 54.7021 74.858V56.978C54.7021 55.7586 55.7178 54.743 56.9371 54.743H74.8156C76.0335 54.743 77.0506 55.7586 77.0506 56.978V74.858Z" fill="#333333"/>
<path id="Vector_4" d="M23.6188 48.0411C23.6188 49.259 22.6031 50.2746 21.3837 50.2746H3.50527C2.2859 50.2746 1.27026 49.259 1.27026 48.0411V30.1611C1.27026 28.9417 2.28438 27.9261 3.50527 27.9261H21.3837C22.6031 27.9261 23.6188 28.9417 23.6188 30.1611V48.0411Z" fill="#333333"/>
<path id="Vector_5" d="M50.232 48.0411C50.232 49.259 49.2179 50.2746 47.997 50.2746H30.1185C28.8992 50.2746 27.8835 49.259 27.8835 48.0411V30.1611C27.8835 28.9417 28.8977 27.9261 30.1185 27.9261H47.997C49.2164 27.9261 50.232 28.9417 50.232 30.1611V48.0411Z" fill="#333333"/>
<path id="Vector_6" d="M23.6188 74.858C23.6188 76.0774 22.6031 77.093 21.3837 77.093H3.50527C2.2859 77.093 1.27026 76.0774 1.27026 74.858V56.978C1.27026 55.7586 2.28438 54.743 3.50527 54.743H21.3837C22.6031 54.743 23.6188 55.7586 23.6188 56.978V74.858Z" fill="#333333"/>
<path id="Vector_7" d="M50.232 74.858C50.232 76.0774 49.2179 77.093 47.997 77.093H30.1185C28.8992 77.093 27.8835 76.0774 27.8835 74.858V56.978C27.8835 55.7586 28.8977 54.743 30.1185 54.743H47.997C49.2164 54.743 50.232 55.7586 50.232 56.978V74.858Z" fill="#333333"/>
<path id="Vector_8" d="M23.6188 101.673C23.6188 102.893 22.6031 103.908 21.3837 103.908H3.50527C2.2859 103.908 1.27026 102.893 1.27026 101.673V83.7964C1.27026 82.577 2.28438 81.5629 3.50527 81.5629H21.3837C22.6031 81.5629 23.6188 82.577 23.6188 83.7964V101.673Z" fill="#333333"/>
<path id="Vector_9" d="M50.232 101.673C50.232 102.893 49.2179 103.908 47.997 103.908H30.1185C28.8992 103.908 27.8835 102.893 27.8835 101.673V83.7964C27.8835 82.577 28.8977 81.5629 30.1185 81.5629H47.997C49.2164 81.5629 50.232 82.577 50.232 83.7964V101.673Z" fill="#333333"/>
<path id="Vector_10" d="M24.6346 12.2826C24.6346 18.9876 19.149 24.4732 12.444 24.4732C5.74052 24.4732 0.254883 18.9876 0.254883 12.2826C0.254883 5.57907 5.74052 0.0919189 12.444 0.0919189C19.149 0.0919189 24.6346 5.57907 24.6346 12.2826Z" fill="#333333"/>
</g>
</svg>
