<svg width="20" height="20" viewBox="0 0 20 20" fill="none" xmlns="http://www.w3.org/2000/svg">
<path id="Vector" d="M10.2691 4.68618C7.53919 4.68618 5.3372 6.88816 5.3372 9.6181C5.3372 12.348 7.53919 14.55 10.2691 14.55C12.9991 14.55 15.201 12.348 15.201 9.6181C15.201 6.88816 12.9991 4.68618 10.2691 4.68618ZM10.2691 12.8245C8.50497 12.8245 7.06273 11.3866 7.06273 9.6181C7.06273 7.84965 8.50067 6.41171 10.2691 6.41171C12.0376 6.41171 13.4755 7.84965 13.4755 9.6181C13.4755 11.3866 12.0333 12.8245 10.2691 12.8245ZM16.5531 4.48444C16.5531 5.124 16.0381 5.63479 15.4028 5.63479C14.7632 5.63479 14.2524 5.11971 14.2524 4.48444C14.2524 3.84917 14.7675 3.33409 15.4028 3.33409C16.0381 3.33409 16.5531 3.84917 16.5531 4.48444ZM19.8196 5.65196C19.7467 4.11101 19.3947 2.74604 18.2658 1.62144C17.1412 0.49684 15.7762 0.144867 14.2353 0.0676047C12.6471 -0.0225349 7.88687 -0.0225349 6.29869 0.0676047C4.76203 0.140575 3.39706 0.492548 2.26817 1.61715C1.13928 2.74174 0.791596 4.10671 0.714333 5.64767C0.624194 7.23584 0.624194 11.9961 0.714333 13.5842C0.787303 15.1252 1.13928 16.4902 2.26817 17.6148C3.39706 18.7394 4.75774 19.0913 6.29869 19.1686C7.88687 19.2587 12.6471 19.2587 14.2353 19.1686C15.7762 19.0956 17.1412 18.7437 18.2658 17.6148C19.3904 16.4902 19.7424 15.1252 19.8196 13.5842C19.9098 11.9961 19.9098 7.24014 19.8196 5.65196ZM17.7679 15.2883C17.4331 16.1296 16.7849 16.7778 15.9393 17.1169C14.6731 17.6191 11.6684 17.5032 10.2691 17.5032C8.86982 17.5032 5.86087 17.6148 4.59892 17.1169C3.75762 16.7821 3.10947 16.1339 2.77037 15.2883C2.26817 14.0221 2.38406 11.0174 2.38406 9.6181C2.38406 8.21879 2.27246 5.20985 2.77037 3.9479C3.10518 3.10659 3.75332 2.45845 4.59892 2.11935C5.86516 1.61715 8.86982 1.73304 10.2691 1.73304C11.6684 1.73304 14.6774 1.62144 15.9393 2.11935C16.7806 2.45416 17.4288 3.1023 17.7679 3.9479C18.2701 5.21414 18.1542 8.21879 18.1542 9.6181C18.1542 11.0174 18.2701 14.0264 17.7679 15.2883Z" fill="#F2F2F2"/>
</svg>
