<svg width="19" height="24" viewBox="0 0 19 24" fill="none" xmlns="http://www.w3.org/2000/svg">
<path id="Vector" d="M8.73461 12.0047C8.49853 11.2547 8.50325 9.80625 8.64018 9.80625C9.0368 9.80625 8.99902 11.5359 8.73461 12.0047ZM8.65434 14.2172C8.29077 15.1641 7.83749 16.2469 7.31338 17.1562C8.17745 16.8281 9.15484 16.35 10.2833 16.1297C9.68367 15.6797 9.10762 15.0328 8.65434 14.2172ZM4.21124 20.0672C4.21124 20.1047 4.8345 19.8141 5.85911 18.1828C5.54275 18.4781 4.4851 19.3313 4.21124 20.0672ZM11.8556 7.5H18.2771V22.875C18.2771 23.4984 17.7719 24 17.1439 24H1.27908C0.651094 24 0.145874 23.4984 0.145874 22.875V1.125C0.145874 0.501562 0.651094 0 1.27908 0H10.7224V6.375C10.7224 6.99375 11.2324 7.5 11.8556 7.5ZM11.4779 15.5531C10.5336 14.9812 9.90559 14.1938 9.46175 13.0312C9.67422 12.1641 10.0095 10.8469 9.75449 10.0219C9.53257 8.64375 7.7525 8.77969 7.49753 9.70312C7.26145 10.5609 7.47864 11.7703 7.87999 13.3125C7.33227 14.6062 6.52486 16.3406 5.95354 17.3344C5.94882 17.3344 5.94882 17.3391 5.9441 17.3391C4.66452 17.9906 2.46894 19.425 3.37078 20.5266C3.6352 20.85 4.12625 20.9953 4.38594 20.9953C5.23112 20.9953 6.07158 20.1516 7.27089 18.0984C8.48908 17.7 9.82532 17.2031 11.001 17.0109C12.0256 17.5641 13.2249 17.925 14.0229 17.925C15.4016 17.925 15.4961 16.425 14.9531 15.8906C14.2967 15.2531 12.3892 15.4359 11.4779 15.5531ZM17.9466 4.92188L13.3194 0.328125C13.1069 0.117188 12.8189 0 12.5167 0H12.2334V6H18.2771V5.71406C18.2771 5.41875 18.1591 5.13281 17.9466 4.92188ZM14.4478 16.8891C14.6414 16.7625 14.3298 16.3312 12.427 16.4672C14.1787 17.2078 14.4478 16.8891 14.4478 16.8891Z" fill="#EB5757"/>
</svg>
