<svg width="20" height="20" viewBox="0 0 20 20" fill="none" xmlns="http://www.w3.org/2000/svg">
<path id="Vector" d="M16.3496 2.79433C14.5511 0.991535 12.156 0 9.61059 0C4.35674 0 0.0815548 4.27519 0.0815548 9.52904C0.0815548 11.2073 0.519376 12.847 1.35209 14.2936L0 19.2298L5.05211 17.9034C6.44283 18.6632 8.00954 19.0624 9.6063 19.0624H9.61059C14.8601 19.0624 19.2298 14.7872 19.2298 9.53333C19.2298 6.98796 18.1481 4.59712 16.3496 2.79433ZM9.61059 17.457C8.18553 17.457 6.79051 17.075 5.57577 16.3539L5.28819 16.1822L2.29212 16.9677L3.0905 14.0446L2.90163 13.7441C2.10755 12.4822 1.69119 11.0271 1.69119 9.52904C1.69119 5.16371 5.24526 1.60963 9.61488 1.60963C11.731 1.60963 13.7184 2.43377 15.2121 3.9318C16.7059 5.42983 17.6244 7.4172 17.6201 9.53333C17.6201 13.903 13.9759 17.457 9.61059 17.457ZM13.9545 11.525C13.7184 11.4048 12.5466 10.8296 12.3277 10.7524C12.1087 10.6708 11.9499 10.6322 11.7911 10.8725C11.6323 11.1129 11.1773 11.6452 11.0357 11.8083C10.8983 11.9671 10.7567 11.9886 10.5206 11.8684C9.12126 11.1687 8.2027 10.6193 7.27984 9.03542C7.03518 8.61477 7.52451 8.64481 7.9795 7.73483C8.05676 7.57601 8.01813 7.43866 7.95803 7.31847C7.89794 7.19829 7.42149 6.02647 7.22404 5.55002C7.03088 5.08645 6.83344 5.15083 6.6875 5.14225C6.55014 5.13366 6.39132 5.13366 6.23251 5.13366C6.07369 5.13366 5.81615 5.19375 5.59724 5.42983C5.37833 5.67021 4.76452 6.24538 4.76452 7.4172C4.76452 8.58901 5.6187 9.72219 5.73459 9.88101C5.85478 10.0398 7.4129 12.4435 9.80375 13.478C11.3147 14.1304 11.907 14.1862 12.6625 14.0746C13.1217 14.006 14.0704 13.4995 14.2678 12.9415C14.4653 12.3835 14.4653 11.907 14.4052 11.8083C14.3494 11.701 14.1905 11.6409 13.9545 11.525Z" fill="#F2F2F2"/>
</svg>
