<svg width="50" height="50" viewBox="0 0 50 50" fill="none" xmlns="http://www.w3.org/2000/svg">
<g id="ArrowRightSquareFill" opacity="0.2" clip-path="url(#clip0_1426_596)">
<path id="Vector" d="M0 43.75C0 45.4076 0.65848 46.9973 1.83058 48.1694C3.00269 49.3415 4.5924 50 6.25 50H43.75C45.4076 50 46.9973 49.3415 48.1694 48.1694C49.3415 46.9973 50 45.4076 50 43.75V6.25C50 4.5924 49.3415 3.00269 48.1694 1.83058C46.9973 0.65848 45.4076 0 43.75 0L6.25 0C4.5924 0 3.00269 0.65848 1.83058 1.83058C0.65848 3.00269 0 4.5924 0 6.25L0 43.75ZM14.0625 23.4375H32.1656L25.4562 16.7313C25.1629 16.4379 24.998 16.0399 24.998 15.625C24.998 15.2101 25.1629 14.8121 25.4562 14.5187C25.7496 14.2254 26.1476 14.0605 26.5625 14.0605C26.9774 14.0605 27.3754 14.2254 27.6688 14.5187L37.0438 23.8937C37.1893 24.0389 37.3047 24.2113 37.3835 24.4011C37.4622 24.591 37.5028 24.7945 37.5028 25C37.5028 25.2055 37.4622 25.409 37.3835 25.5989C37.3047 25.7887 37.1893 25.9611 37.0438 26.1063L27.6688 35.4813C27.3754 35.7746 26.9774 35.9395 26.5625 35.9395C26.1476 35.9395 25.7496 35.7746 25.4562 35.4813C25.1629 35.1879 24.998 34.7899 24.998 34.375C24.998 33.9601 25.1629 33.5621 25.4562 33.2687L32.1656 26.5625H14.0625C13.6481 26.5625 13.2507 26.3979 12.9576 26.1049C12.6646 25.8118 12.5 25.4144 12.5 25C12.5 24.5856 12.6646 24.1882 12.9576 23.8951C13.2507 23.6021 13.6481 23.4375 14.0625 23.4375Z" fill="black"/>
</g>
<defs>
<clipPath id="clip0_1426_596">
<rect width="50" height="50" fill="white"/>
</clipPath>
</defs>
</svg>
