<svg width="77" height="104" viewBox="0 0 77 104" fill="none" xmlns="http://www.w3.org/2000/svg">
<g id="logo">
<path id="Vector" d="M49.9771 21.4248C49.9771 22.6442 48.963 23.6598 47.7421 23.6598H29.8637C28.6443 23.6598 27.6287 22.6442 27.6287 21.4248V3.5463C27.6287 2.32693 28.6428 1.3113 29.8637 1.3113H47.7421C48.9615 1.3113 49.9771 2.32693 49.9771 3.5463V21.4248Z" fill="#333333"/>
<path id="Vector_2" d="M76.7958 21.4248C76.7958 22.6442 75.7801 23.6598 74.5608 23.6598H56.6823C55.4629 23.6598 54.4473 22.6442 54.4473 21.4248V3.5463C54.4473 2.32693 55.4629 1.3113 56.6823 1.3113H74.5608C75.7786 1.3113 76.7958 2.32693 76.7958 3.5463V21.4248Z" fill="#333333"/>
<path id="Vector_3" d="M76.7958 74.858C76.7958 76.0774 75.7801 77.093 74.5608 77.093H56.6823C55.4629 77.093 54.4473 76.0774 54.4473 74.858V56.978C54.4473 55.7586 55.4629 54.743 56.6823 54.743H74.5608C75.7786 54.743 76.7958 55.7586 76.7958 56.978V74.858Z" fill="#333333"/>
<path id="Vector_4" d="M23.3639 48.0411C23.3639 49.259 22.3482 50.2746 21.1289 50.2746H3.25038C2.03102 50.2746 1.01538 49.259 1.01538 48.0411V30.1611C1.01538 28.9418 2.0295 27.9261 3.25038 27.9261H21.1289C22.3482 27.9261 23.3639 28.9418 23.3639 30.1611V48.0411Z" fill="#333333"/>
<path id="Vector_5" d="M49.9771 48.0411C49.9771 49.259 48.963 50.2746 47.7421 50.2746H29.8637C28.6443 50.2746 27.6287 49.259 27.6287 48.0411V30.1611C27.6287 28.9418 28.6428 27.9261 29.8637 27.9261H47.7421C48.9615 27.9261 49.9771 28.9418 49.9771 30.1611V48.0411Z" fill="#333333"/>
<path id="Vector_6" d="M23.3639 74.858C23.3639 76.0774 22.3482 77.093 21.1289 77.093H3.25038C2.03102 77.093 1.01538 76.0774 1.01538 74.858V56.978C1.01538 55.7586 2.0295 54.743 3.25038 54.743H21.1289C22.3482 54.743 23.3639 55.7586 23.3639 56.978V74.858Z" fill="#333333"/>
<path id="Vector_7" d="M49.9771 74.858C49.9771 76.0774 48.963 77.093 47.7421 77.093H29.8637C28.6443 77.093 27.6287 76.0774 27.6287 74.858V56.978C27.6287 55.7586 28.6428 54.743 29.8637 54.743H47.7421C48.9615 54.743 49.9771 55.7586 49.9771 56.978V74.858Z" fill="#333333"/>
<path id="Vector_8" d="M23.3639 101.673C23.3639 102.893 22.3482 103.908 21.1289 103.908H3.25038C2.03102 103.908 1.01538 102.893 1.01538 101.673V83.7964C1.01538 82.577 2.0295 81.5629 3.25038 81.5629H21.1289C22.3482 81.5629 23.3639 82.577 23.3639 83.7964V101.673Z" fill="#333333"/>
<path id="Vector_9" d="M49.9771 101.673C49.9771 102.893 48.963 103.908 47.7421 103.908H29.8637C28.6443 103.908 27.6287 102.893 27.6287 101.673V83.7964C27.6287 82.577 28.6428 81.5629 29.8637 81.5629H47.7421C48.9615 81.5629 49.9771 82.577 49.9771 83.7964V101.673Z" fill="#333333"/>
<path id="Vector_10" d="M24.3798 12.2826C24.3798 18.9876 18.8941 24.4732 12.1891 24.4732C5.48563 24.4732 0 18.9876 0 12.2826C0 5.57907 5.48563 0.0919189 12.1891 0.0919189C18.8941 0.0919189 24.3798 5.57907 24.3798 12.2826Z" fill="#333333"/>
</g>
</svg>
