<svg width="43" height="30" viewBox="0 0 43 30" fill="none" xmlns="http://www.w3.org/2000/svg">
<g id="banner-processos-eletronicos.93323e675d33.svg" clip-path="url(#clip0_1_696)">
<path id="Vector" d="M0.973022 22.3896V1.14648H42.1469V22.3896H0.973022Z" fill="#4CAF50" stroke="black" stroke-width="0.411739"/>
<path id="Vector_2" d="M0.973022 24.5142V22.3899H42.1469V24.5142H22.1934H0.973022Z" stroke="black" stroke-width="0.411739"/>
<path id="Vector_3" d="M18.3686 24.5137L17.8898 27.3967L15.496 28.9141H27.7843L25.0713 27.3967L24.4329 24.5137" stroke="black" stroke-width="0.411739"/>
<path id="Vector_4" d="M23.5292 6.34351L26.3554 9.02376H23.8262L23.5292 8.34645V6.34351Z" fill="white"/>
<path id="Vector_5" d="M17.7888 6.25256C17.6366 6.2561 17.4842 6.26207 17.3778 6.36574C17.2715 6.46938 17.2197 6.66244 17.2197 6.80725V16.5442C17.2197 16.6889 17.218 16.8628 17.3242 16.9664C17.4305 17.0701 17.6363 17.0953 17.7885 17.0989H25.7537C25.9085 17.0989 26.0592 17.1214 26.1686 17.0174C26.278 16.9134 26.3371 16.6913 26.3371 16.5442V9.02381H24.0032C23.8509 9.02027 23.7061 8.96019 23.5998 8.85648C23.5998 8.85648 23.434 8.61367 23.4342 8.46882V6.24976L17.7888 6.25256ZM23.4078 6.25256L24.7946 7.66618L26.3225 9.02381" fill="white"/>
<path id="Vector_6" d="M23.4078 6.25256L24.7946 7.66618L26.3225 9.02381M19.3904 11.3761H24.1519M19.3904 14.7327H24.1519M19.3904 13.0544H24.1519M17.7888 6.25256C17.6366 6.2561 17.4842 6.26207 17.3778 6.36574C17.2715 6.46938 17.2197 6.66244 17.2197 6.80725V16.5442C17.2197 16.6889 17.218 16.8628 17.3242 16.9664C17.4305 17.0701 17.6363 17.0953 17.7885 17.0989H25.7537C25.9085 17.0989 26.0592 17.1214 26.1686 17.0174C26.278 16.9134 26.3371 16.6913 26.3371 16.5442V9.02381H24.0032C23.8509 9.02027 23.7061 8.96019 23.5998 8.85648C23.5998 8.85648 23.434 8.61367 23.4342 8.46882V6.24976L17.7888 6.25256Z" stroke="black" stroke-width="0.411739" stroke-linecap="round" stroke-linejoin="round"/>
<path id="Vector_7" d="M22.7888 13.524V10.939H24.4733V13.524H25.4371L23.7146 15.4772L21.7655 13.524H22.7888Z" fill="#4CAF50" stroke="black" stroke-width="0.411739"/>
</g>
<defs>
<clipPath id="clip0_1_696">
<rect width="41.9974" height="28.41" fill="white" transform="translate(0.561279 0.734863)"/>
</clipPath>
</defs>
</svg>
