<svg width="43" height="41" viewBox="0 0 43 41" fill="none" xmlns="http://www.w3.org/2000/svg">
<g id="banner-licitacoes.5e61ad55875c.svg" clip-path="url(#clip0_1_685)">
<g id="Clip path group">
<mask id="mask0_1_685" style="mask-type:luminance" maskUnits="userSpaceOnUse" x="0" y="0" width="43" height="40">
<g id="clip0_157_3275">
<path id="Vector" d="M42.5847 0.939941H0.595398V39.7552H42.5847V0.939941Z" fill="white"/>
</g>
</mask>
<g mask="url(#mask0_1_685)">
<g id="Group">
<path id="Vector_2" d="M26.5802 0.949894L30.7266 6.00744L35.2948 10.8647M14.5687 19.2807H28.8048M14.5687 31.2895H28.8048M14.5687 25.2851H28.8048M9.7801 0.949894C9.325 0.962623 8.86922 0.984027 8.55133 1.35483C8.23339 1.72564 8.07853 2.41646 8.0787 2.93445V37.7707C8.07853 38.2885 8.07332 38.9105 8.39104 39.2813C8.70876 39.6521 9.32427 39.7423 9.77926 39.7553H33.5942C34.0568 39.7553 34.5076 39.8358 34.8347 39.4636C35.1618 39.0914 35.3385 38.297 35.3385 37.7707V10.8647H28.3604C27.9051 10.852 27.4722 10.6372 27.1543 10.2662C27.1543 10.2662 26.6586 9.39731 26.659 8.87916V0.939941L9.7801 0.949894Z" stroke="black" stroke-width="0.559857" stroke-linecap="round" stroke-linejoin="round"/>
<path id="Vector_3" d="M24.8573 28.1034V18.8547H29.8939V28.1034H32.7755L27.6255 35.0912L21.7979 28.1034H24.8573Z" fill="#4CAF50" stroke="black" stroke-width="0.559857"/>
</g>
</g>
</g>
</g>
<defs>
<clipPath id="clip0_1_685">
<rect width="41.9893" height="39.19" fill="white" transform="translate(0.595398 0.939941)"/>
</clipPath>
</defs>
</svg>
