<svg width="43" height="40" viewBox="0 0 43 40" fill="none" xmlns="http://www.w3.org/2000/svg">
<g id="banner-acesso-informacao.34003a5bc7a4.svg" clip-path="url(#clip0_1_675)">
<path id="Vector" d="M1.12299 16.1103L9.5356 30.7559V38.3715L20.0513 30.7559H33.196L42.1344 16.1103L33.196 1.46484H9.5356L1.12299 16.1103Z" fill="#F6A800" stroke="black" stroke-width="0.524795"/>
<path id="Vector_2" d="M23.6691 14.001C23.6691 12.9347 22.8047 12.0703 21.7383 12.0703C20.672 12.0703 19.8076 12.9347 19.8076 14.001V26.07C19.8076 27.1363 20.672 28.0007 21.7383 28.0007C22.8047 28.0007 23.6691 27.1363 23.6691 26.07V14.001Z" fill="#4CAF50" stroke="black" stroke-width="0.524795"/>
<path id="Vector_3" d="M23.6691 6.94903C23.6691 5.88273 22.8047 5.01831 21.7383 5.01831C20.672 5.01831 19.8076 5.88273 19.8076 6.94903V7.26428C19.8076 8.33059 20.672 9.19501 21.7383 9.19501C22.8047 9.19501 23.6691 8.33059 23.6691 7.26428V6.94903Z" fill="#4CAF50" stroke="black" stroke-width="0.524795"/>
</g>
<defs>
<clipPath id="clip0_1_675">
<rect width="41.9836" height="38.31" fill="white" transform="translate(0.598206 0.939941)"/>
</clipPath>
</defs>
</svg>
