<svg width="176" height="46" viewBox="0 0 176 46" fill="none" xmlns="http://www.w3.org/2000/svg">
<g id="g179">
<g id="text4521">
<path id="path4550" d="M40.8968 34.0433V24.2249H42.9822V34.0433H40.8968Z" fill="black"/>
<path id="path4552" d="M54.1964 34.0433H51.5459L47.2674 26.6157H47.2069C47.2921 27.9275 47.3347 28.8632 47.3347 29.4229V34.0433H45.4713V24.2249H48.1016L52.3734 31.5786H52.4205C52.3532 30.3026 52.3196 29.4005 52.3196 28.8722V24.2249H54.1965L54.1964 34.0433Z" fill="black"/>
<path id="path4554" d="M62.4709 31.3166C62.4709 32.2031 62.1502 32.9015 61.5089 33.4119C60.872 33.9223 59.984 34.1775 58.8449 34.1775C57.7955 34.1775 56.8671 33.9805 56.0598 33.5866V31.6524C56.7236 31.9479 57.2842 32.1561 57.7416 32.277C58.2036 32.3979 58.6251 32.4583 59.0064 32.4583C59.4638 32.4583 59.8136 32.371 60.0558 32.1964C60.3024 32.0218 60.4258 31.7621 60.4258 31.4174C60.4258 31.2248 60.372 31.0547 60.2643 30.907C60.1567 30.7547 59.9975 30.6092 59.7867 30.4704C59.5804 30.3316 59.1566 30.11 58.5153 29.8056C57.9143 29.5235 57.4636 29.2526 57.1631 28.993C56.8626 28.7333 56.6227 28.4311 56.4433 28.0863C56.2639 27.7416 56.1742 27.3386 56.1742 26.8775C56.1742 26.0089 56.468 25.3262 57.0555 24.8292C57.6475 24.3322 58.4637 24.0837 59.5042 24.0837C60.0154 24.0837 60.502 24.1442 60.964 24.2651C61.4304 24.3859 61.917 24.5561 62.4238 24.7755L61.751 26.394C61.2263 26.179 60.7913 26.0291 60.446 25.944C60.1051 25.8589 59.7688 25.8164 59.4369 25.8164C59.0422 25.8164 58.7395 25.9082 58.5287 26.0918C58.3179 26.2753 58.2126 26.5148 58.2126 26.8103C58.2126 26.9939 58.2552 27.1551 58.3404 27.2939C58.4256 27.4282 58.5601 27.5603 58.744 27.6901C58.9324 27.8155 59.3741 28.0438 60.0693 28.3751C60.9886 28.8139 61.6187 29.2549 61.9596 29.6981C62.3004 30.1369 62.4709 30.6764 62.4709 31.3166Z" fill="black"/>
<path id="path4556" d="M68.0208 34.0433H65.9354V25.9575H63.2646V24.2249H70.6915V25.9575H68.0208V34.0433Z" fill="black"/>
<path id="path4558" d="M72.1917 34.0433V24.2249H74.2771V34.0433H72.1917Z" fill="black"/>
<path id="path4560" d="M80.5603 34.0433H78.4748V25.9575H75.8041V24.2249H83.231V25.9575H80.5603V34.0433Z" fill="black"/>
<path id="path4562" d="M92.7365 24.2249V30.578C92.7365 31.3033 92.5728 31.939 92.2454 32.4852C91.9225 33.0315 91.4538 33.4501 90.8394 33.7411C90.225 34.0321 89.4984 34.1776 88.6598 34.1776C87.3951 34.1776 86.4129 33.8553 85.7133 33.2106C85.0137 32.5614 84.6638 31.6749 84.6638 30.5511V24.2249H86.7425V30.2355C86.7425 30.9921 86.895 31.5473 87.2 31.901C87.505 32.2547 88.0095 32.4315 88.7136 32.4315C89.3953 32.4315 89.8886 32.2547 90.1936 31.901C90.503 31.5428 90.6578 30.9832 90.6578 30.2221V24.2249H92.7365Z" fill="black"/>
<path id="path4564" d="M98.9389 34.0433H96.8535V25.9575H94.1828V24.2249H101.61V25.9575H98.9389V34.0433Z" fill="black"/>
<path id="path4566" d="M112.037 29.1206C112.037 30.7458 111.633 31.9949 110.826 32.868C110.019 33.741 108.862 34.1775 107.355 34.1775C105.848 34.1775 104.691 33.741 103.883 32.868C103.076 31.9949 102.673 30.7413 102.673 29.1071C102.673 27.473 103.076 26.2261 103.883 25.3664C104.695 24.5024 105.857 24.0703 107.368 24.0703C108.88 24.0703 110.034 24.5046 110.833 25.3732C111.635 26.2417 112.037 27.4909 112.037 29.1206ZM104.859 29.1206C104.859 30.2175 105.067 31.0435 105.485 31.5987C105.902 32.1539 106.525 32.4314 107.355 32.4314C109.019 32.4314 109.85 31.3278 109.85 29.1206C109.85 26.9088 109.023 25.803 107.368 25.803C106.538 25.803 105.913 26.0828 105.491 26.6424C105.07 27.1976 104.859 28.0237 104.859 29.1206Z" fill="black"/>
<path id="path4568" d="M119.719 34.0433H117.667V24.2249H123.305V25.9307H119.719V28.4625H123.056V30.1616H119.719V34.0433Z" fill="black"/>
<path id="path4570" d="M130.893 34.0433H125.229V24.2249H130.893V25.9307H127.314V28.0864H130.644V29.7922H127.314V32.3241H130.893V34.0433Z" fill="black"/>
<path id="path4572" d="M141.112 29.0401C141.112 30.6563 140.65 31.8943 139.726 32.7539C138.806 33.6135 137.477 34.0433 135.737 34.0433H132.952V24.2249H136.039C137.645 24.2249 138.892 24.648 139.78 25.4942C140.668 26.3403 141.112 27.5223 141.112 29.0401ZM138.946 29.0938C138.946 26.985 138.013 25.9307 136.147 25.9307H135.037V32.3241H135.932C137.941 32.3241 138.946 31.2473 138.946 29.0938Z" fill="black"/>
<path id="path4574" d="M148.814 34.0433H143.15V24.2249H148.814V25.9307H145.235V28.0864H148.565V29.7922H145.235V32.3241H148.814V34.0433Z" fill="black"/>
<path id="path4576" d="M152.958 28.5834H153.631C154.29 28.5834 154.777 28.4737 155.091 28.2543C155.405 28.0349 155.562 27.6902 155.562 27.2201C155.562 26.7545 155.4 26.4232 155.077 26.2262C154.759 26.0292 154.263 25.9307 153.591 25.9307H152.958V28.5834ZM152.958 30.2758V34.0433H150.873V24.2249H153.739C155.075 24.2249 156.064 24.4689 156.705 24.9569C157.347 25.4404 157.667 26.1769 157.667 27.1664C157.667 27.7439 157.508 28.2588 157.19 28.711C156.871 29.1587 156.421 29.5102 155.837 29.7654C157.317 31.9726 158.282 33.3986 158.73 34.0433H156.416L154.068 30.2758H152.958Z" fill="black"/>
<path id="path4578" d="M165.962 34.0433L165.249 31.7062H161.663L160.95 34.0433H158.703L162.174 24.1846H164.724L168.209 34.0433H165.962ZM164.751 29.9601C164.092 27.8424 163.719 26.6448 163.634 26.3672C163.554 26.0896 163.495 25.8702 163.459 25.709C163.311 26.2821 162.888 27.6992 162.188 29.9601H164.751Z" fill="black"/>
<path id="path4580" d="M169.44 34.0433V24.2249H171.525V32.3241H175.514V34.0433H169.44Z" fill="black"/>
</g>
<g id="text4523">
<path id="path4583" d="M41.8355 42.7475V45.8964H40.9535V38.3245H43.0339C43.9643 38.3245 44.6508 38.5023 45.0935 38.8579C45.5397 39.2136 45.7628 39.7487 45.7628 40.4635C45.7628 41.4648 45.2543 42.1415 44.2375 42.4937L46.2971 45.8964H45.2544L43.4178 42.7475H41.8355ZM41.8355 41.9913H43.0443C43.6668 41.9913 44.1234 41.8687 44.4139 41.6236C44.7044 41.375 44.8497 41.0038 44.8497 40.5101C44.8497 40.0094 44.701 39.6486 44.4035 39.4276C44.1095 39.2066 43.6357 39.0962 42.982 39.0962H41.8355V41.9913Z" fill="black"/>
<path id="path4585" d="M48.2634 45.8963H47.4022V40.22H48.2634V45.8963ZM47.3295 38.6818C47.3295 38.485 47.378 38.3417 47.4748 38.2519C47.5717 38.1587 47.6927 38.1121 47.838 38.1121C47.9763 38.1121 48.0956 38.1587 48.1959 38.2519C48.2962 38.3451 48.3464 38.4884 48.3464 38.6818C48.3464 38.8751 48.2962 39.0202 48.1959 39.1168C48.0956 39.2101 47.9763 39.2566 47.838 39.2566C47.6927 39.2566 47.5717 39.2101 47.4748 39.1168C47.378 39.0202 47.3295 38.8751 47.3295 38.6818Z" fill="black"/>
<path id="path4587" d="M54.9869 43.053C54.9869 43.9784 54.7535 44.7017 54.2866 45.2231C53.8196 45.741 53.1746 46 52.3515 46C51.843 46 51.3917 45.8809 50.9974 45.6426C50.6031 45.4044 50.2987 45.0625 50.0843 44.6171C49.8699 44.1717 49.7627 43.6504 49.7627 43.053C49.7627 42.1277 49.9944 41.4078 50.4579 40.8933C50.9213 40.3754 51.5646 40.1165 52.3878 40.1165C53.1833 40.1165 53.8145 40.3806 54.2814 40.9089C54.7518 41.4372 54.9869 42.1519 54.9869 43.053ZM50.655 43.053C50.655 43.7781 50.8003 44.3306 51.0908 44.7104C51.3813 45.0902 51.8084 45.2801 52.3722 45.2801C52.936 45.2801 53.3631 45.0919 53.6536 44.7155C53.9476 44.3357 54.0946 43.7816 54.0946 43.053C54.0946 42.3314 53.9476 41.7842 53.6536 41.4113C53.3631 41.0349 52.9325 40.8467 52.3618 40.8467C51.7981 40.8467 51.3727 41.0314 51.0856 41.4009C50.7985 41.7703 50.655 42.3211 50.655 43.053Z" fill="black"/>
<path id="path4589" d="M62.7378 41.9293H65.3162V45.6116C64.915 45.7394 64.5069 45.8361 64.0918 45.9017C63.6768 45.9673 63.1961 46.0001 62.6496 46.0001C61.5013 46.0001 60.6073 45.66 59.9674 44.9798C59.3276 44.2961 59.0076 43.3397 59.0076 42.1105C59.0076 41.3233 59.165 40.6345 59.4797 40.044C59.7979 39.4502 60.2545 38.9979 60.8494 38.6871C61.4442 38.3729 62.1412 38.2158 62.9401 38.2158C63.7494 38.2158 64.5034 38.3643 65.2021 38.6612L64.8596 39.4381C64.1748 39.148 63.516 39.003 62.883 39.003C61.9596 39.003 61.2385 39.2775 60.7197 39.8265C60.2009 40.3755 59.9415 41.1369 59.9415 42.1105C59.9415 43.1326 60.1905 43.9077 60.6885 44.436C61.19 44.9642 61.925 45.2284 62.8934 45.2284C63.4191 45.2284 63.9327 45.168 64.4342 45.0471V42.7165H62.7378V41.9293Z" fill="black"/>
<path id="path4591" d="M69.6066 40.1165C69.8591 40.1165 70.0857 40.1372 70.2863 40.1786L70.1669 40.9762C69.9317 40.9244 69.7242 40.8985 69.5444 40.8985C69.0844 40.8985 68.6901 41.085 68.3615 41.4579C68.0364 41.8308 67.8739 42.2952 67.8739 42.8511V45.8964H67.0126V40.22H67.7234L67.822 41.2714H67.8635C68.0745 40.902 68.3287 40.6171 68.6261 40.4169C68.9236 40.2166 69.2504 40.1165 69.6066 40.1165Z" fill="black"/>
<path id="path4593" d="M74.8672 45.8963L74.696 45.0883H74.6544C74.3708 45.444 74.0872 45.6857 73.8036 45.8134C73.5235 45.9377 73.1724 45.9999 72.7505 45.9999C72.1867 45.9999 71.744 45.8549 71.4224 45.5648C71.1042 45.2748 70.945 44.8622 70.945 44.327C70.945 43.1807 71.8633 42.5799 73.6998 42.5247L74.6648 42.4936V42.1414C74.6648 41.696 74.568 41.368 74.3743 41.1574C74.1841 40.9433 73.878 40.8362 73.456 40.8362C72.9822 40.8362 72.4461 40.9813 71.8478 41.2713L71.5832 40.6135C71.8633 40.4616 72.1694 40.3425 72.5014 40.2562C72.8369 40.1699 73.1724 40.1267 73.5079 40.1267C74.1858 40.1267 74.6873 40.2769 75.0124 40.5773C75.341 40.8777 75.5053 41.3593 75.5053 42.0223V45.8963H74.8672ZM72.9217 45.2903C73.4578 45.2903 73.878 45.1436 74.1824 44.8501C74.4902 44.5566 74.6441 44.1457 74.6441 43.6175V43.1047L73.7829 43.141C73.0981 43.1651 72.6035 43.2721 72.2991 43.4621C71.9982 43.6485 71.8478 43.9403 71.8478 44.3373C71.8478 44.6481 71.9412 44.8846 72.1279 45.0469C72.3181 45.2092 72.5827 45.2903 72.9217 45.2903Z" fill="black"/>
<path id="path4595" d="M81.1758 45.8964V42.2244C81.1758 41.7617 81.0702 41.4164 80.8593 41.1886C80.6483 40.9607 80.318 40.8467 79.8684 40.8467C79.2735 40.8467 78.8377 41.0073 78.561 41.3284C78.2843 41.6495 78.146 42.1795 78.146 42.9184V45.8964H77.2848V40.2201H77.9852L78.1252 40.9969H78.1668C78.3432 40.7173 78.5904 40.5015 78.9086 40.3495C79.2268 40.1942 79.5813 40.1165 79.9722 40.1165C80.657 40.1165 81.1723 40.2822 81.5182 40.6137C81.8641 40.9417 82.037 41.4682 82.037 42.1933V45.8964H81.1758Z" fill="black"/>
<path id="path4597" d="M87.671 45.1351H87.6243C87.2266 45.7117 86.6317 46 85.8397 46C85.0961 46 84.5168 45.7462 84.1017 45.2387C83.6902 44.7311 83.4844 44.0095 83.4844 43.0738C83.4844 42.1381 83.6919 41.4113 84.1069 40.8933C84.522 40.3754 85.0995 40.1165 85.8397 40.1165C86.611 40.1165 87.2024 40.3961 87.614 40.9555H87.6814L87.6451 40.5463L87.6244 40.1475V37.8376H88.4856V45.8964H87.7852L87.671 45.1351ZM85.9486 45.2801C86.5366 45.2801 86.962 45.1213 87.2249 44.8036C87.4912 44.4825 87.6243 43.9663 87.6243 43.255V43.0738C87.6243 42.2693 87.4895 41.6961 87.2197 41.3543C86.9534 41.009 86.5262 40.8364 85.9383 40.8364C85.4333 40.8364 85.0459 41.0332 84.7762 41.4268C84.5098 41.817 84.3767 42.3694 84.3767 43.0841C84.3767 43.8092 84.5098 44.3565 84.7762 44.7259C85.0425 45.0954 85.4333 45.2801 85.9486 45.2801Z" fill="black"/>
<path id="path4599" d="M92.7189 46C91.8785 46 91.2144 45.7445 90.7268 45.2335C90.2426 44.7224 90.0005 44.0129 90.0005 43.1048C90.0005 42.1899 90.2253 41.463 90.6749 40.9244C91.128 40.3858 91.735 40.1165 92.4959 40.1165C93.2083 40.1165 93.7721 40.3512 94.1871 40.8208C94.6022 41.2869 94.8097 41.9033 94.8097 42.6698V43.2136H90.8928C90.9101 43.88 91.0778 44.3858 91.396 44.7311C91.7177 45.0764 92.169 45.249 92.7501 45.249C93.3622 45.249 93.9675 45.1213 94.5658 44.8657V45.6323C94.2615 45.7635 93.9727 45.8567 93.6995 45.9119C93.4297 45.9706 93.1028 46 92.7189 46ZM92.4855 40.8364C92.0289 40.8364 91.6641 40.9848 91.3908 41.2818C91.121 41.5787 90.962 41.9896 90.9135 42.5144H93.8862C93.8862 41.9723 93.7652 41.558 93.5231 41.2714C93.281 40.9814 92.9351 40.8364 92.4855 40.8364Z" fill="black"/>
<path id="path4601" d="M102.924 45.1351H102.877C102.479 45.7117 101.884 46 101.092 46C100.349 46 99.7694 45.7462 99.3543 45.2387C98.9428 44.7311 98.737 44.0095 98.737 43.0738C98.737 42.1381 98.9445 41.4113 99.3595 40.8933C99.7746 40.3754 100.352 40.1165 101.092 40.1165C101.864 40.1165 102.455 40.3961 102.867 40.9555H102.934L102.898 40.5463L102.877 40.1475V37.8376H103.738V45.8964H103.038L102.924 45.1351ZM101.201 45.2801C101.789 45.2801 102.215 45.1213 102.477 44.8036C102.744 44.4825 102.877 43.9663 102.877 43.255V43.0738C102.877 42.2693 102.742 41.6961 102.472 41.3543C102.206 41.009 101.779 40.8364 101.191 40.8364C100.686 40.8364 100.299 41.0332 100.029 41.4268C99.7624 41.817 99.6293 42.3694 99.6293 43.0841C99.6293 43.8092 99.7624 44.3565 100.029 44.7259C100.295 45.0954 100.686 45.2801 101.201 45.2801Z" fill="black"/>
<path id="path4603" d="M110.477 43.053C110.477 43.9784 110.244 44.7017 109.777 45.2231C109.31 45.741 108.665 46 107.842 46C107.333 46 106.882 45.8809 106.488 45.6426C106.094 45.4044 105.789 45.0625 105.575 44.6171C105.36 44.1717 105.253 43.6504 105.253 43.053C105.253 42.1277 105.485 41.4078 105.948 40.8933C106.412 40.3754 107.055 40.1165 107.878 40.1165C108.674 40.1165 109.305 40.3806 109.772 40.9089C110.242 41.4372 110.477 42.1519 110.477 43.053ZM106.145 43.053C106.145 43.7781 106.291 44.3306 106.581 44.7104C106.872 45.0902 107.299 45.2801 107.863 45.2801C108.426 45.2801 108.853 45.0919 109.144 44.7155C109.438 44.3357 109.585 43.7816 109.585 43.053C109.585 42.3314 109.438 41.7842 109.144 41.4113C108.853 41.0349 108.423 40.8467 107.852 40.8467C107.288 40.8467 106.863 41.0314 106.576 41.4009C106.289 41.7703 106.145 42.3211 106.145 43.053Z" fill="black"/>
<path id="path4605" d="M120.817 45.8964H119.81L115.665 39.5416H115.624C115.679 40.2874 115.707 40.971 115.707 41.5925V45.8964H114.892V38.3245H115.888L120.023 44.6534H120.065C120.058 44.5602 120.042 44.2615 120.018 43.7574C119.994 43.2498 119.985 42.8873 119.992 42.6698V38.3245H120.817L120.817 45.8964Z" fill="black"/>
<path id="path4607" d="M127.681 43.053C127.681 43.9784 127.447 44.7017 126.98 45.2231C126.513 45.741 125.868 46 125.045 46C124.537 46 124.085 45.8809 123.691 45.6426C123.297 45.4044 122.992 45.0625 122.778 44.6171C122.564 44.1717 122.456 43.6504 122.456 43.053C122.456 42.1277 122.688 41.4078 123.151 40.8933C123.615 40.3754 124.258 40.1165 125.081 40.1165C125.877 40.1165 126.508 40.3806 126.975 40.9089C127.445 41.4372 127.681 42.1519 127.681 43.053ZM123.349 43.053C123.349 43.7781 123.494 44.3306 123.784 44.7104C124.075 45.0902 124.502 45.2801 125.066 45.2801C125.63 45.2801 126.057 45.0919 126.347 44.7155C126.641 44.3357 126.788 43.7816 126.788 43.053C126.788 42.3314 126.641 41.7842 126.347 41.4113C126.057 41.0349 125.626 40.8467 125.055 40.8467C124.492 40.8467 124.066 41.0314 123.779 41.4009C123.492 41.7703 123.349 42.3211 123.349 43.053Z" fill="black"/>
<path id="path4609" d="M131.8 40.1165C132.052 40.1165 132.279 40.1372 132.479 40.1786L132.36 40.9762C132.125 40.9244 131.917 40.8985 131.738 40.8985C131.278 40.8985 130.883 41.085 130.555 41.4579C130.23 41.8308 130.067 42.2952 130.067 42.8511V45.8964H129.206V40.22H129.917L130.015 41.2714H130.057C130.268 40.902 130.522 40.6171 130.819 40.4169C131.117 40.2166 131.444 40.1165 131.8 40.1165Z" fill="black"/>
<path id="path4611" d="M135.4 45.2905C135.552 45.2905 135.699 45.2801 135.841 45.2594C135.983 45.2352 136.095 45.2111 136.178 45.1868V45.8446C136.085 45.8895 135.947 45.9257 135.763 45.9534C135.584 45.9844 135.421 46 135.276 46C134.176 46 133.626 45.4216 133.626 44.265V40.8882H132.811V40.4738L133.626 40.1165L133.989 38.9045H134.487V40.22H136.137V40.8882H134.487V44.2287C134.487 44.5705 134.568 44.8329 134.731 45.0159C134.894 45.1989 135.117 45.2905 135.4 45.2905Z" fill="black"/>
<path id="path4613" d="M139.722 46C138.881 46 138.217 45.7445 137.73 45.2335C137.245 44.7224 137.003 44.0129 137.003 43.1048C137.003 42.1899 137.228 41.463 137.678 40.9244C138.131 40.3858 138.738 40.1165 139.499 40.1165C140.211 40.1165 140.775 40.3512 141.19 40.8208C141.605 41.2869 141.813 41.9033 141.813 42.6698V43.2136H137.896C137.913 43.88 138.081 44.3858 138.399 44.7311C138.72 45.0764 139.172 45.249 139.753 45.249C140.365 45.249 140.97 45.1213 141.569 44.8657V45.6323C141.264 45.7635 140.976 45.8567 140.702 45.9119C140.433 45.9706 140.106 46 139.722 46ZM139.488 40.8364C139.032 40.8364 138.667 40.9848 138.394 41.2818C138.124 41.5787 137.965 41.9896 137.916 42.5144H140.889C140.889 41.9723 140.768 41.558 140.526 41.2714C140.284 40.9814 139.938 40.8364 139.488 40.8364Z" fill="black"/>
</g>
<path id="path4525" d="M22.1821 9.41316C22.1821 9.98613 21.7728 10.3954 21.1999 10.3954H13.2602C12.6872 10.3954 12.2779 9.98613 12.2779 9.41316V1.47343C12.2779 0.90046 12.6872 0.491211 13.2602 0.491211H21.1999C21.7728 0.491211 22.1821 0.90046 22.1821 1.47343V9.41316Z" fill="#359830"/>
<path id="path4527" d="M34.0508 9.41316C34.0508 9.98613 33.6415 10.3954 33.0685 10.3954H25.1288C24.5559 10.3954 24.1466 9.98613 24.1466 9.41316V1.47343C24.1466 0.90046 24.5559 0.491211 25.1288 0.491211H33.0685C33.6415 0.491211 34.0508 0.90046 34.0508 1.47343V9.41316Z" fill="#359830"/>
<path id="path4529" d="M34.0508 33.0684C34.0508 33.6414 33.6415 34.0507 33.0685 34.0507H25.1288C24.5559 34.0507 24.1466 33.6414 24.1466 33.0684V25.1287C24.1466 24.5557 24.5559 24.1465 25.1288 24.1465H33.0685C33.6415 24.1465 34.0508 24.5557 34.0508 25.1287V33.0684Z" fill="#359830"/>
<path id="path4531" d="M10.3135 21.1998C10.3135 21.7728 9.90419 22.182 9.33122 22.182H1.39152C0.818545 22.182 0.409271 21.7728 0.409271 21.1998V13.2601C0.409271 12.6871 0.818545 12.2778 1.39152 12.2778H9.33122C9.90419 12.2778 10.3135 12.6871 10.3135 13.2601V21.1998Z" fill="#359830"/>
<path id="path4533" d="M22.1821 21.1998C22.1821 21.7728 21.7728 22.182 21.1999 22.182H13.2602C12.6872 22.182 12.2779 21.7728 12.2779 21.1998V13.2601C12.2779 12.6871 12.6872 12.2778 13.2602 12.2778H21.1999C21.7728 12.2778 22.1821 12.6871 22.1821 13.2601V21.1998Z" fill="#359830"/>
<path id="path4535" d="M10.3135 33.0684C10.3135 33.6414 9.90419 34.0507 9.33122 34.0507H1.39152C0.818545 34.0507 0.409271 33.6414 0.409271 33.0684V25.1287C0.409271 24.5557 0.818545 24.1465 1.39152 24.1465H9.33122C9.90419 24.1465 10.3135 24.5557 10.3135 25.1287V33.0684Z" fill="#359830"/>
<path id="path4537" d="M22.1821 33.0684C22.1821 33.6414 21.7728 34.0507 21.1999 34.0507H13.2602C12.6872 34.0507 12.2779 33.6414 12.2779 33.0684V25.1287C12.2779 24.5557 12.6872 24.1465 13.2602 24.1465H21.1999C21.7728 24.1465 22.1821 24.5557 22.1821 25.1287V33.0684Z" fill="#359830"/>
<path id="path4539" d="M10.3135 44.9371C10.3135 45.5101 9.90419 45.9193 9.33122 45.9193H1.39152C0.818545 45.9193 0.409271 45.5101 0.409271 44.9371V36.9974C0.409271 36.4244 0.818545 36.0151 1.39152 36.0151H9.33122C9.90419 36.0151 10.3135 36.4244 10.3135 36.9974V44.9371Z" fill="#359830"/>
<path id="path4541" d="M22.1821 44.9371C22.1821 45.5101 21.7728 45.9193 21.1999 45.9193H13.2602C12.6872 45.9193 12.2779 45.5101 12.2779 44.9371V36.9974C12.2779 36.4244 12.6872 36.0151 13.2602 36.0151H21.1999C21.7728 36.0151 22.1821 36.4244 22.1821 36.9974V44.9371Z" fill="#359830"/>
<path id="path4543" d="M10.8046 5.40229C10.8046 8.34899 8.34899 10.8046 5.40229 10.8046C2.45559 10.8046 0 8.34899 0 5.40229C0 2.45559 2.45559 0 5.40229 0C8.43085 0 10.8046 2.45559 10.8046 5.40229Z" fill="#C90C0F"/>
</g>
</svg>
