<svg width="121" height="166" viewBox="0 0 121 166" fill="none" xmlns="http://www.w3.org/2000/svg">
<g id="g323">
<g id="Clip path group">
<mask id="mask0_1_731" style="mask-type:luminance" maskUnits="userSpaceOnUse" x="-7" y="-6" width="135" height="179">
<g id="clipPath329">
<path id="path327" d="M-6.86078 -5.92764H127.705V172.808H-6.86078V-5.92764Z" fill="white"/>
</g>
</mask>
<g mask="url(#mask0_1_731)">
<g id="g325">
<g id="g331">
<path id="path333" d="M69.2145 16.9008C69.2145 17.8037 68.4872 18.532 67.5843 18.532H54.0928C53.193 18.532 52.4616 17.8037 52.4616 16.9008V3.40724C52.4616 2.50945 53.193 1.77705 54.0928 1.77705H67.5843C68.4872 1.77705 69.2145 2.50945 69.2145 3.40724V16.9008Z" fill="#359830"/>
</g>
<g id="g335">
<path id="path337" d="M89.3179 16.9008C89.3179 17.8037 88.5886 18.532 87.6878 18.532H74.1942C73.2964 18.532 72.5651 17.8037 72.5651 16.9008V3.40724C72.5651 2.50945 73.2964 1.77705 74.1942 1.77705H87.6878C88.5886 1.77705 89.3179 2.50945 89.3179 3.40724V16.9008Z" fill="#359830"/>
</g>
<g id="g339">
<path id="path341" d="M89.3179 57.1098C89.3179 58.0086 88.5886 58.74 87.6878 58.74H74.1942C73.2964 58.74 72.5651 58.0086 72.5651 57.1098V43.6183C72.5651 42.7144 73.2964 41.982 74.1942 41.982H87.6878C88.5886 41.982 89.3179 42.7144 89.3179 43.6183V57.1098Z" fill="#359830"/>
</g>
<g id="g343">
<path id="path345" d="M49.1135 36.9921C49.1135 37.894 48.3842 38.6223 47.4833 38.6223H33.9888C33.0889 38.6223 32.3596 37.894 32.3596 36.9921V23.4996C32.3596 22.5967 33.0889 21.8705 33.9888 21.8705H47.4833C48.3842 21.8705 49.1135 22.5967 49.1135 23.4996V36.9921Z" fill="#359830"/>
</g>
<g id="g347">
<path id="path349" d="M69.2145 36.9921C69.2145 37.894 68.4872 38.6223 67.5843 38.6223H54.0928C53.193 38.6223 52.4616 37.894 52.4616 36.9921V23.4996C52.4616 22.5967 53.193 21.8705 54.0928 21.8705H67.5843C68.4872 21.8705 69.2145 22.5967 69.2145 23.4996V36.9921Z" fill="#359830"/>
</g>
<g id="g351">
<path id="path353" d="M49.1135 57.1098C49.1135 58.0086 48.3842 58.74 47.4833 58.74H33.9888C33.0889 58.74 32.3596 58.0086 32.3596 57.1098V43.6183C32.3596 42.7144 33.0889 41.982 33.9888 41.982H47.4833C48.3842 41.982 49.1135 42.7144 49.1135 43.6183V57.1098Z" fill="#359830"/>
</g>
<g id="g355">
<path id="path357" d="M69.2145 57.1098C69.2145 58.0086 68.4872 58.74 67.5843 58.74H54.0928C53.193 58.74 52.4616 58.0086 52.4616 57.1098V43.6183C52.4616 42.7144 53.193 41.982 54.0928 41.982H67.5843C68.4872 41.982 69.2145 42.7144 69.2145 43.6183V57.1098Z" fill="#359830"/>
</g>
<g id="g359">
<path id="path361" d="M49.1135 77.2322C49.1135 78.133 48.3842 78.8613 47.4833 78.8613H33.9888C33.0889 78.8613 32.3596 78.133 32.3596 77.2322V63.7407C32.3596 62.8388 33.0889 62.1084 33.9888 62.1084H47.4833C48.3842 62.1084 49.1135 62.8388 49.1135 63.7407V77.2322Z" fill="#359830"/>
</g>
<g id="g363">
<path id="path365" d="M69.2145 77.2322C69.2145 78.133 68.4872 78.8613 67.5843 78.8613H54.0928C53.193 78.8613 52.4616 78.133 52.4616 77.2322V63.7407C52.4616 62.8388 53.193 62.1084 54.0928 62.1084H67.5843C68.4872 62.1084 69.2145 62.8388 69.2145 63.7407V77.2322Z" fill="#359830"/>
</g>
<g id="g367">
<path id="path369" d="M49.9486 10.1581C49.9486 15.2428 45.8233 19.3691 40.7355 19.3691C35.6457 19.3691 31.5245 15.2428 31.5245 10.1581C31.5245 5.06617 35.6457 0.939842 40.7355 0.939842C45.8233 0.939842 49.9486 5.06617 49.9486 10.1581Z" fill="#C90C0F"/>
</g>
<path id="path371" d="M0 90.7088H3.53979V107.376H0V90.7088Z" fill="black"/>
<g id="g373">
<path id="path375" d="M22.5543 107.376H18.0541L10.7896 94.7682H10.6858C10.8307 96.9941 10.9036 98.5832 10.9036 99.5334V107.376H7.74182V90.7086H12.2071L19.4562 103.192H19.5384C19.4233 101.026 19.3658 99.4954 19.3658 98.5987V90.7086H22.5543V107.376Z" fill="black"/>
</g>
<g id="g377">
<path id="path379" d="M36.6108 102.747C36.6108 104.252 36.0695 105.437 34.9837 106.303C33.899 107.171 32.389 107.605 30.4547 107.605C28.6735 107.605 27.0968 107.27 25.7275 106.601V103.318C26.8543 103.818 27.8066 104.174 28.5862 104.379C29.3679 104.584 30.0829 104.685 30.729 104.685C31.5066 104.685 32.1024 104.538 32.5184 104.242C32.9303 103.945 33.1388 103.504 33.1388 102.919C33.1388 102.591 33.0474 102.301 32.8656 102.046C32.6828 101.793 32.4147 101.548 32.0592 101.313C31.7069 101.077 30.9837 100.7 29.8949 100.182C28.8769 99.7044 28.1106 99.2442 27.6011 98.8035C27.0896 98.3618 26.6818 97.8503 26.3777 97.2648C26.0726 96.6793 25.9216 95.9951 25.9216 95.2124C25.9216 93.7373 26.4239 92.5796 27.4244 91.7353C28.425 90.8909 29.8086 90.4697 31.5754 90.4697C32.4414 90.4697 33.2714 90.5714 34.0582 90.7779C34.8471 90.9823 35.6709 91.271 36.5307 91.6438L35.3895 94.3906C34.4979 94.026 33.7624 93.7733 33.1789 93.6284C32.5965 93.4836 32.0243 93.4107 31.4614 93.4107C30.7896 93.4107 30.275 93.5668 29.9175 93.8791C29.5611 94.1913 29.3823 94.5961 29.3823 95.0984C29.3823 95.4096 29.4542 95.6808 29.5991 95.914C29.7429 96.1451 29.974 96.369 30.2904 96.5848C30.6047 96.8025 31.3546 97.1918 32.5328 97.7537C34.0942 98.4995 35.1635 99.2463 35.7439 99.9941C36.3212 100.743 36.6108 101.662 36.6108 102.747Z" fill="black"/>
</g>
<g id="g381">
<path id="path383" d="M46.078 107.376H42.5372V93.6516H38.004V90.7086H50.6121V93.6516H46.078V107.376Z" fill="black"/>
</g>
<path id="path385" d="M53.1821 90.7088H56.7219V107.376H53.1821V90.7088Z" fill="black"/>
<g id="g387">
<path id="path389" d="M67.3657 107.376H63.8249V93.6516H59.2908V90.7086H71.8999V93.6516H67.3657V107.376Z" fill="black"/>
</g>
<g id="g391">
<path id="path393" d="M88.0575 90.7088V101.495C88.0575 102.724 87.7801 103.804 87.2285 104.73C86.6779 105.658 85.8798 106.371 84.8361 106.864C83.7955 107.357 82.5598 107.604 81.1361 107.604C78.9892 107.604 77.323 107.054 76.1335 105.957C74.9481 104.859 74.3523 103.355 74.3523 101.449V90.7088H77.8818V100.911C77.8818 102.196 78.1407 103.139 78.6584 103.74C79.1761 104.34 80.0339 104.639 81.2275 104.639C82.3852 104.639 83.2244 104.338 83.7462 103.735C84.2681 103.129 84.529 102.181 84.529 100.889V90.7088H88.0575Z" fill="black"/>
</g>
<g id="g395">
<path id="path397" d="M98.5864 107.376H95.0466V93.6516H90.5135V90.7086H103.12V93.6516H98.5864V107.376Z" fill="black"/>
</g>
<g id="g399">
<path id="path401" d="M108.657 99.0195C108.657 100.881 109.012 102.285 109.722 103.227C110.429 104.169 111.484 104.639 112.895 104.639C115.72 104.639 117.132 102.766 117.132 99.0195C117.132 95.2661 115.728 93.3873 112.917 93.3873C111.509 93.3873 110.447 93.8618 109.731 94.8069C109.017 95.755 108.657 97.1582 108.657 99.0195ZM120.844 99.0195C120.844 101.779 120.157 103.899 118.789 105.381C117.418 106.863 115.455 107.605 112.895 107.605C110.337 107.605 108.373 106.863 107.003 105.381C105.631 103.899 104.947 101.77 104.947 98.9979C104.947 96.2234 105.634 94.1043 107.009 92.6415C108.383 91.1777 110.352 90.4474 112.917 90.4474C115.484 90.4474 117.444 91.1839 118.803 92.6579C120.164 94.132 120.844 96.2542 120.844 99.0195Z" fill="black"/>
</g>
<g id="g403">
<path id="path405" d="M14.7885 126.839H11.3042V110.171H20.8758V113.068H14.7885V117.366H20.4536V120.25H14.7885V126.839Z" fill="black"/>
</g>
<g id="g407">
<path id="path409" d="M33.7569 126.839H24.1432V110.171H33.7569V113.068H27.683V116.728H33.3337V119.624H27.683V123.921H33.7569V126.839Z" fill="black"/>
</g>
<g id="g411">
<path id="path413" d="M47.4142 118.438C47.4142 114.858 45.8323 113.068 42.6643 113.068H40.7794V123.921H42.2986C45.708 123.921 47.4142 122.093 47.4142 118.438ZM51.0937 118.346C51.0937 121.09 50.3109 123.192 48.7434 124.65C47.18 126.109 44.9221 126.839 41.9668 126.839H37.2386V110.172H42.4835C45.2077 110.172 47.3227 110.891 48.8297 112.327C50.3387 113.764 51.0937 115.769 51.0937 118.346Z" fill="black"/>
</g>
<g id="g415">
<path id="path417" d="M64.1661 126.839H54.5524V110.171H64.1661V113.068H58.0932V116.728H63.7439V119.624H58.0932V123.921H64.1661V126.839Z" fill="black"/>
</g>
<g id="g419">
<path id="path421" d="M71.1912 117.571H72.3324C73.4531 117.571 74.279 117.385 74.8111 117.013C75.3432 116.64 75.6092 116.055 75.6092 115.258C75.6092 114.467 75.337 113.905 74.7926 113.57C74.2482 113.235 73.4069 113.069 72.2636 113.069H71.1912V117.571ZM71.1912 120.443V126.839H67.6514V110.171H72.5152C74.7823 110.171 76.4628 110.585 77.5527 111.409C78.6395 112.235 79.185 113.487 79.185 115.166C79.185 116.145 78.9138 117.018 78.3735 117.782C77.8342 118.546 77.0689 119.145 76.0776 119.578C78.5912 123.325 80.2286 125.746 80.9888 126.839H77.0617L73.074 120.443H71.1912Z" fill="black"/>
</g>
<g id="g423">
<path id="path425" d="M91.255 119.908C90.1373 116.314 89.5056 114.28 89.3669 113.809C89.2252 113.338 89.1245 112.966 89.0619 112.693C88.8122 113.665 88.0922 116.071 86.9047 119.908H91.255ZM93.3094 126.84L92.1014 122.872H86.0141L84.803 126.84H80.989L86.88 110.103H91.2098L97.1276 126.84H93.3094Z" fill="black"/>
</g>
<g id="g427">
<path id="path429" d="M99.2284 126.839V110.171H102.768V123.921H109.539V126.839H99.2284Z" fill="black"/>
</g>
<g id="g431">
<path id="path433" d="M17.1991 139.844H19.2063C20.2397 139.844 20.9978 139.638 21.4816 139.229C21.9633 138.819 22.2037 138.203 22.2037 137.384C22.2037 136.552 21.9582 135.952 21.4692 135.585C20.9772 135.218 20.1883 135.034 19.1025 135.034H17.1991V139.844ZM17.1991 141.1V146.33H15.7353V133.752H19.1888C20.7348 133.752 21.875 134.049 22.6146 134.639C23.3532 135.229 23.7219 136.119 23.7219 137.305C23.7219 138.968 22.8745 140.091 21.1878 140.678L24.6084 146.33H22.8745L19.8267 141.1H17.1991Z" fill="black"/>
</g>
<path id="path435" d="M27.8571 146.331H26.4262V136.902H27.8571V146.331ZM26.307 134.347C26.307 134.019 26.3851 133.781 26.5464 133.627C26.7066 133.476 26.909 133.401 27.1504 133.401C27.3805 133.401 27.5787 133.478 27.7462 133.633C27.9105 133.788 27.9937 134.026 27.9937 134.347C27.9937 134.668 27.9105 134.907 27.7462 135.065C27.5787 135.222 27.3805 135.299 27.1504 135.299C26.909 135.299 26.7066 135.222 26.5464 135.065C26.3851 134.907 26.307 134.668 26.307 134.347Z" fill="black"/>
<g id="g437">
<path id="path439" d="M31.8464 141.608C31.8464 142.811 32.0868 143.729 32.5716 144.361C33.0534 144.992 33.7622 145.305 34.699 145.305C35.6348 145.305 36.3466 144.992 36.8315 144.362C37.3174 143.735 37.5608 142.816 37.5608 141.608C37.5608 140.407 37.3174 139.497 36.8315 138.876C36.3466 138.252 35.6296 137.943 34.6815 137.943C33.7447 137.943 33.04 138.248 32.5634 138.862C32.0847 139.477 31.8464 140.391 31.8464 141.608ZM39.0431 141.608C39.0431 143.144 38.6558 144.344 37.8803 145.208C37.1016 146.071 36.0333 146.502 34.6641 146.502C33.8197 146.502 33.0708 146.305 32.4165 145.909C31.7601 145.513 31.2568 144.945 30.8983 144.203C30.5429 143.466 30.3641 142.599 30.3641 141.608C30.3641 140.071 30.7493 138.873 31.5197 138.015C32.2902 137.157 33.3564 136.73 34.7247 136.73C36.0446 136.73 37.0965 137.169 37.8751 138.045C38.6527 138.922 39.0431 140.111 39.0431 141.608Z" fill="black"/>
</g>
<g id="g441">
<path id="path443" d="M51.8917 139.742H56.1721V145.856C55.5065 146.068 54.8275 146.228 54.1403 146.339C53.45 146.445 52.6519 146.502 51.7438 146.502C49.8373 146.502 48.3509 145.935 47.2908 144.803C46.2246 143.67 45.6955 142.081 45.6955 140.043C45.6955 138.734 45.9565 137.59 46.4834 136.604C47.0083 135.62 47.7654 134.87 48.7546 134.351C49.7428 133.831 50.8994 133.572 52.2266 133.572C53.5722 133.572 54.8234 133.819 55.9841 134.313L55.413 135.603C54.2769 135.122 53.184 134.881 52.1331 134.881C50.5964 134.881 49.4007 135.336 48.5379 136.248C47.677 137.159 47.2466 138.425 47.2466 140.043C47.2466 141.74 47.6596 143.026 48.4896 143.905C49.3216 144.78 50.542 145.221 52.1495 145.221C53.0227 145.221 53.8763 145.119 54.7073 144.918V141.047H51.8917V139.742Z" fill="black"/>
</g>
<g id="g445">
<path id="path447" d="M63.2915 136.73C63.7085 136.73 64.0855 136.763 64.4183 136.834L64.2211 138.158C63.8287 138.07 63.4856 138.028 63.1867 138.028C62.4245 138.028 61.7712 138.337 61.2278 138.958C60.6823 139.575 60.4122 140.348 60.4122 141.271V146.33H58.9823V136.901H60.1636L60.3249 138.647H60.3937C60.745 138.033 61.1672 137.561 61.6603 137.229C62.1554 136.896 62.6998 136.73 63.2915 136.73Z" fill="black"/>
</g>
<g id="g449">
<path id="path451" d="M68.7616 145.323C69.6532 145.323 70.3538 145.08 70.8592 144.592C71.3707 144.104 71.6234 143.422 71.6234 142.544V141.693L70.1935 141.751C69.0564 141.792 68.2346 141.97 67.7333 142.281C67.2321 142.594 66.9773 143.079 66.9773 143.739C66.9773 144.257 67.1355 144.649 67.4498 144.917C67.7611 145.189 68.1987 145.323 68.7616 145.323ZM71.9932 146.33L71.7087 144.988H71.6409C71.1694 145.579 70.701 145.979 70.2315 146.188C69.7631 146.396 69.1797 146.501 68.4781 146.501C67.5423 146.501 66.8078 146.261 66.2747 145.778C65.7457 145.297 65.4807 144.611 65.4807 143.723C65.4807 141.818 67.0061 140.822 70.0538 140.728L71.6583 140.679V140.091C71.6583 139.353 71.4991 138.805 71.1786 138.453C70.8592 138.103 70.3497 137.925 69.6512 137.925C68.8633 137.925 67.9737 138.166 66.9773 138.647L66.5397 137.555C67.0061 137.304 67.5156 137.105 68.0703 136.96C68.6229 136.819 69.1797 136.746 69.7374 136.746C70.8622 136.746 71.6963 136.995 72.2377 137.495C72.7831 137.995 73.0543 138.794 73.0543 139.894V146.33H71.9932Z" fill="black"/>
</g>
<g id="g453">
<path id="path455" d="M82.4639 146.33V140.229C82.4639 139.461 82.2893 138.889 81.937 138.511C81.5867 138.133 81.0402 137.943 80.2914 137.943C79.3032 137.943 78.578 138.208 78.1209 138.742C77.6617 139.276 77.4316 140.155 77.4316 141.382V146.33H76.0017V136.901H77.1655L77.3956 138.191H77.4675C77.7582 137.727 78.1681 137.367 78.6982 137.112C79.2251 136.856 79.8168 136.73 80.465 136.73C81.6021 136.73 82.4598 137.005 83.032 137.549C83.6072 138.098 83.8938 138.975 83.8938 140.179V146.33H82.4639Z" fill="black"/>
</g>
<g id="g457">
<path id="path459" d="M90.4014 145.305C91.3762 145.305 92.084 145.04 92.5246 144.511C92.9643 143.981 93.1831 143.123 93.1831 141.944V141.643C93.1831 140.306 92.9612 139.352 92.5144 138.78C92.0716 138.21 91.3587 137.924 90.3839 137.924C89.5447 137.924 88.9006 138.251 88.4579 138.901C88.011 139.554 87.7892 140.471 87.7892 141.657C87.7892 142.863 88.011 143.771 88.4527 144.386C88.8955 144.998 89.5447 145.305 90.4014 145.305ZM93.2601 145.066H93.1831C92.5215 146.021 91.5344 146.502 90.2185 146.502C88.9848 146.502 88.0244 146.08 87.3372 145.237C86.65 144.393 86.3069 143.195 86.3069 141.643C86.3069 140.088 86.65 138.88 87.3403 138.02C88.0285 137.159 88.9889 136.73 90.2185 136.73C91.5005 136.73 92.4815 137.194 93.1656 138.124H93.2766L93.217 137.444L93.1831 136.78V132.943H94.613V146.33H93.4502L93.2601 145.066Z" fill="black"/>
</g>
<g id="g461">
<path id="path463" d="M101.249 137.925C100.489 137.925 99.8867 138.171 99.4347 138.666C98.9848 139.157 98.7187 139.839 98.6365 140.713H103.576C103.576 139.812 103.373 139.121 102.972 138.644C102.571 138.164 101.996 137.925 101.249 137.925ZM101.638 146.502C100.242 146.502 99.1389 146.078 98.3325 145.228C97.5251 144.379 97.1214 143.2 97.1214 141.693C97.1214 140.173 97.4963 138.965 98.2472 138.071C98.994 137.176 100.003 136.73 101.265 136.73C102.448 136.73 103.386 137.117 104.075 137.897C104.764 138.673 105.109 139.698 105.109 140.97V141.874H98.6037C98.6324 142.981 98.9129 143.82 99.4419 144.393C99.976 144.967 100.722 145.255 101.688 145.255C102.704 145.255 103.71 145.042 104.703 144.619V145.89C104.2 146.109 103.72 146.265 103.269 146.36C102.818 146.454 102.274 146.502 101.638 146.502Z" fill="black"/>
</g>
<g id="g465">
<path id="path467" d="M28.7924 164.745C29.7682 164.745 30.478 164.479 30.9156 163.95C31.3553 163.418 31.5751 162.563 31.5751 161.381V161.082C31.5751 159.742 31.3522 158.789 30.9084 158.219C30.4626 157.648 29.7497 157.362 28.7759 157.362C27.9357 157.362 27.2947 157.69 26.8489 158.338C26.402 158.988 26.1822 159.91 26.1822 161.094C26.1822 162.302 26.402 163.208 26.8438 163.823C27.2875 164.437 27.9357 164.745 28.7924 164.745ZM31.6542 164.503H31.5751C30.9136 165.462 29.9285 165.939 28.6095 165.939C27.3759 165.939 26.4154 165.518 25.7292 164.677C25.042 163.832 24.7 162.634 24.7 161.082C24.7 159.524 25.0441 158.319 25.7344 157.459C26.4236 156.598 27.381 156.164 28.6095 156.164C29.8925 156.164 30.8756 156.633 31.5577 157.56H31.6706L31.61 156.881L31.5751 156.219V152.383H33.0071V165.769H31.8432L31.6542 164.503Z" fill="black"/>
</g>
<g id="g469">
<path id="path471" d="M36.996 161.045C36.996 162.248 37.2354 163.165 37.7213 163.798C38.202 164.429 38.9118 164.745 39.8486 164.745C40.7844 164.745 41.4963 164.431 41.9801 163.802C42.466 163.174 42.7084 162.255 42.7084 161.045C42.7084 159.846 42.466 158.936 41.9801 158.313C41.4963 157.691 40.7793 157.38 39.8322 157.38C38.8933 157.38 38.1876 157.685 37.71 158.301C37.2344 158.913 36.996 159.828 36.996 161.045ZM44.1907 161.045C44.1907 162.583 43.8024 163.781 43.0268 164.647C42.2523 165.507 41.1799 165.94 39.8137 165.94C38.9693 165.94 38.2205 165.74 37.5631 165.346C36.9108 164.951 36.4054 164.382 36.0479 163.642C35.6904 162.902 35.5138 162.038 35.5138 161.045C35.5138 159.51 35.899 158.31 36.6684 157.454C37.4398 156.598 38.5071 156.165 39.8743 156.165C41.1943 156.165 42.2441 156.608 43.0258 157.484C43.8024 158.362 44.1907 159.548 44.1907 161.045Z" fill="black"/>
</g>
<g id="g473">
<path id="path475" d="M61.3403 165.769H59.6659L52.7815 155.214H52.7137C52.8061 156.451 52.8513 157.585 52.8513 158.62V165.769H51.4985V153.191H53.1533L60.0203 163.703H60.0891C60.0768 163.549 60.0511 163.051 60.0121 162.211C59.973 161.373 59.9576 160.769 59.9689 160.408V153.191H61.3403V165.769Z" fill="black"/>
</g>
<g id="g477">
<path id="path479" d="M65.5434 161.045C65.5434 162.248 65.7838 163.165 66.2686 163.798C66.7494 164.429 67.4592 164.745 68.396 164.745C69.3318 164.745 70.0437 164.431 70.5285 163.802C71.0144 163.174 71.2578 162.255 71.2578 161.045C71.2578 159.846 71.0144 158.936 70.5285 158.313C70.0437 157.691 69.3267 157.38 68.3785 157.38C67.4407 157.38 66.737 157.685 66.2604 158.301C65.7807 158.913 65.5434 159.828 65.5434 161.045ZM72.7401 161.045C72.7401 162.583 72.3528 163.781 71.5773 164.647C70.7987 165.507 69.7304 165.94 68.3611 165.94C67.5177 165.94 66.7679 165.74 66.1125 165.346C65.4561 164.951 64.9528 164.382 64.5953 163.642C64.2399 162.902 64.0601 162.038 64.0601 161.045C64.0601 159.51 64.4464 158.31 65.2168 157.454C65.9862 156.598 67.0534 156.165 68.4227 156.165C69.7427 156.165 70.7935 156.608 71.5722 157.484C72.3498 158.362 72.7401 159.548 72.7401 161.045Z" fill="black"/>
</g>
<g id="g481">
<path id="path483" d="M79.5554 156.165C79.9755 156.165 80.3505 156.201 80.6843 156.271L80.484 157.597C80.0947 157.511 79.7495 157.467 79.4506 157.467C78.6884 157.467 78.0341 157.777 77.4927 158.396C76.9494 159.014 76.6782 159.785 76.6782 160.709V165.77H75.2473V156.339H76.4275L76.5919 158.084H76.6607C77.011 157.472 77.4342 156.999 77.9283 156.666C78.4214 156.334 78.9637 156.165 79.5554 156.165Z" fill="black"/>
</g>
<g id="g485">
<path id="path487" d="M85.5025 164.76C85.7531 164.76 85.9996 164.741 86.2349 164.703C86.4701 164.667 86.656 164.628 86.7947 164.59V165.682C86.6375 165.757 86.4095 165.817 86.1085 165.867C85.8075 165.914 85.5353 165.939 85.295 165.939C83.4675 165.939 82.5544 164.977 82.5544 163.058V157.448H81.2015V156.762L82.5544 156.165L83.1584 154.155H83.9842V156.339H86.7238V157.448H83.9842V162.997C83.9842 163.567 84.1188 164.002 84.39 164.306C84.6581 164.61 85.0299 164.76 85.5025 164.76Z" fill="black"/>
</g>
<g id="g489">
<path id="path491" d="M92.2837 157.362C91.5236 157.362 90.9196 157.61 90.4697 158.103C90.0187 158.596 89.7537 159.278 89.6715 160.152H94.6104C94.6104 159.25 94.407 158.562 94.0064 158.082C93.6047 157.603 93.0295 157.362 92.2837 157.362ZM92.671 165.94C91.276 165.94 90.1728 165.515 89.3675 164.665C88.559 163.817 88.1553 162.639 88.1553 161.131C88.1553 159.61 88.5313 158.404 89.2812 157.511C90.028 156.614 91.0377 156.165 92.2991 156.165C93.4825 156.165 94.4203 156.556 95.1096 157.332C95.7989 158.109 96.144 159.135 96.144 160.408V161.311H89.6386C89.6664 162.418 89.9478 163.259 90.4768 163.832C91.0089 164.404 91.7557 164.692 92.7223 164.692C93.7383 164.692 94.7449 164.48 95.7382 164.056V165.331C95.2339 165.548 94.7542 165.702 94.3032 165.799C93.8523 165.893 93.3079 165.94 92.671 165.94Z" fill="black"/>
</g>
</g>
</g>
</g>
</g>
</svg>
