<svg width="42" height="42" viewBox="0 0 42 42" fill="none" xmlns="http://www.w3.org/2000/svg">
<g id="Group">
<g id="Group_2">
<path id="Vector" fill-rule="evenodd" clip-rule="evenodd" d="M19.5543 26.8642C19.5543 30.9318 19.5673 34.9993 19.5487 39.066C19.539 41.2032 19.0261 41.5505 17.0489 40.7073C12.3844 38.7179 7.74991 36.6632 3.07902 34.6932C1.41195 33.9897 0.706832 32.9163 0.728639 31.0667C0.808601 23.9824 0.754485 16.8965 0.764178 9.81143C0.765793 7.5402 1.00649 7.32939 3.13718 7.85439C7.61099 8.95689 12.0808 10.078 16.5424 11.2314C19.0859 11.888 19.5479 12.5132 19.5527 15.0558C19.5592 18.9917 19.5543 22.9284 19.5543 26.8642Z" fill="#147A02"/>
<path id="Vector_2" fill-rule="evenodd" clip-rule="evenodd" d="M22.4337 26.6631C22.4321 22.5963 22.4757 18.5288 22.4127 14.4637C22.3853 12.6625 23.1364 11.6771 24.8923 11.2474C29.6819 10.0763 34.4578 8.8486 39.2321 7.61364C40.5301 7.27845 41.1068 7.71541 41.1051 9.03518C41.0963 16.6444 41.1641 24.2537 41.0082 31.8589C40.9896 32.7498 39.9469 34.0114 39.0593 34.425C34.2882 36.6486 29.4243 38.6791 24.5725 40.7298C22.8909 41.4414 22.4628 41.145 22.4458 39.259C22.4079 35.0582 22.4337 30.8606 22.4337 26.6631Z" fill="#147A02"/>
<path id="Vector_3" d="M20.6108 8.78894C30.2639 8.78894 38.0892 6.98882 38.0892 4.76825C38.0892 2.54768 30.2639 0.747559 20.6108 0.747559C10.9577 0.747559 3.13232 2.54768 3.13232 4.76825C3.13232 6.98882 10.9577 8.78894 20.6108 8.78894Z" fill="#EA0506"/>
</g>
</g>
</svg>
