<svg width="36" height="41" viewBox="0 0 36 41" fill="none" xmlns="http://www.w3.org/2000/svg">
<path d="M18 24.4883C16.9688 24.4883 15.9961 24.3008 15.082 23.9258C14.1914 23.5273 13.3945 22.9883 12.6914 22.3086C12.0117 21.6055 11.4727 20.8086 11.0742 19.918C10.6992 19.0039 10.5117 18.0312 10.5117 17C10.5117 15.9688 10.6992 15.0078 11.0742 14.1172C11.4727 13.2031 12.0117 12.4062 12.6914 11.7266C13.3945 11.0234 14.1914 10.4844 15.082 10.1094C15.9961 9.71094 16.9688 9.51172 18 9.51172C19.0312 9.51172 19.9922 9.71094 20.8828 10.1094C21.7969 10.4844 22.5938 11.0234 23.2734 11.7266C23.9766 12.4062 24.5156 13.2031 24.8906 14.1172C25.2891 15.0078 25.4883 15.9688 25.4883 17C25.4883 18.0312 25.2891 19.0039 24.8906 19.918C24.5156 20.8086 23.9766 21.6055 23.2734 22.3086C22.5938 22.9883 21.7969 23.5273 20.8828 23.9258C19.9922 24.3008 19.0312 24.4883 18 24.4883ZM18.7383 11.0586V22.9414C19.7227 22.8242 20.6133 22.4844 21.4102 21.9219C22.207 21.3594 22.8398 20.6562 23.3086 19.8125C23.7773 18.9688 24.0117 18.0312 24.0117 17C24.0117 15.9688 23.7773 15.0312 23.3086 14.1875C22.8398 13.3438 22.207 12.6406 21.4102 12.0781C20.6133 11.5156 19.7227 11.1758 18.7383 11.0586Z" fill="#848484"/>
</svg>
