<svg width="18" height="18" viewBox="0 0 18 18" fill="none" xmlns="http://www.w3.org/2000/svg">
<path id="path18" d="M15.3369 15.3369H12.6698V11.1602C12.6698 10.1643 12.652 8.88215 11.2827 8.88215C9.8936 8.88215 9.68107 9.9673 9.68107 11.0877V15.3367H7.01403V6.74769H9.57439V7.92146H9.61022C10.1323 7.02882 11.103 6.49569 12.1364 6.53405C14.8396 6.53405 15.338 8.31207 15.338 10.6252L15.3369 15.3369ZM4.00472 5.57363C2.62576 5.57388 1.93512 3.9069 2.9099 2.93177C3.88469 1.95664 5.55191 2.64668 5.55216 4.02564C5.55231 4.88042 4.8595 5.57348 4.00472 5.57363ZM5.33824 15.3369H2.66843V6.74769H5.33824V15.3369ZM16.6665 0.00147218H1.32824C0.603323 -0.00670951 0.00884734 0.573965 0 1.29887V16.7007C0.00854563 17.426 0.602972 18.0072 1.32824 17.9995H16.6665C17.3932 18.0086 17.9899 17.4274 18 16.7007V1.29776C17.9896 0.571422 17.3928 -0.00921867 16.6665 0.000360993" fill="black"/>
</svg>
