<svg width="13" height="13" viewBox="0 0 13 13" fill="none" xmlns="http://www.w3.org/2000/svg">
<path d="M2.61426 7.2627C3.25228 7.90072 4.02702 8.21973 4.93848 8.21973C5.84993 8.21973 6.62467 7.90072 7.2627 7.2627C7.90072 6.62467 8.21973 5.84993 8.21973 4.93848C8.21973 4.02702 7.90072 3.25228 7.2627 2.61426C6.62467 1.97624 5.84993 1.65723 4.93848 1.65723C4.02702 1.65723 3.25228 1.97624 2.61426 2.61426C1.97624 3.25228 1.65723 4.02702 1.65723 4.93848C1.65723 5.84993 1.97624 6.62467 2.61426 7.2627ZM9.31348 8.21973L12.9365 11.8428L11.8428 12.9365L8.21973 9.31348V8.73242L8.01465 8.52734C7.14876 9.2793 6.12337 9.65527 4.93848 9.65527C3.61686 9.65527 2.48893 9.19954 1.55469 8.28809C0.643229 7.37663 0.1875 6.26009 0.1875 4.93848C0.1875 3.61686 0.643229 2.50033 1.55469 1.58887C2.48893 0.654622 3.61686 0.1875 4.93848 0.1875C6.26009 0.1875 7.37663 0.654622 8.28809 1.58887C9.19954 2.50033 9.65527 3.61686 9.65527 4.93848C9.65527 5.41699 9.54134 5.96387 9.31348 6.5791C9.08561 7.17155 8.82357 7.65007 8.52734 8.01465L8.73242 8.21973H9.31348Z" fill="#ADADAD"/>
</svg>
