<svg width="1340" height="690" viewBox="0 0 1340 690" fill="none" xmlns="http://www.w3.org/2000/svg">
<path d="M126.673 495.177L131.49 481.213C131.97 479.823 133.69 479.337 134.825 480.272C135.02 480.432 135.243 480.557 135.482 480.639L138.266 481.593C139.334 481.959 140.434 482.226 141.552 482.391L142.24 482.492C150.08 483.644 156.96 488.323 160.912 495.192L166.085 504.183C168.654 508.647 171.935 512.662 175.799 516.069L177.355 517.441" stroke="#FF0000"/>
<path d="M192.665 412.092V443.045" stroke="#FF0000"/>
<path d="M272.384 462.052L289.806 441.959L296.141 433.814L304.588 419.152" stroke="#98FF47"/>
<path d="M528.434 179.673L532.057 175.373C534.208 172.819 536.035 170.009 537.495 167.005C538.492 164.956 539.66 162.994 540.987 161.141L543.04 158.275C545.262 155.173 547.828 152.334 550.691 149.81L552.476 148.236C555.779 145.324 559.574 143.021 563.683 141.437C567.951 139.79 572.487 138.946 577.062 138.946H587.563L600.243 139.877C606.516 140.338 612.647 141.972 618.318 144.694L619.034 145.038C623.366 147.117 627.341 149.873 630.808 153.202C632.595 154.917 634.548 156.503 636.591 157.904C640.795 160.786 645.5 162.998 650.407 164.375L654.611 165.554" stroke="#98FF47"/>
<path d="M574.364 53.6887L574.851 54.8068C580.475 67.7394 584.052 81.4692 585.451 95.5025L587.035 119.396L588.619 138.945" stroke="#98FF47"/>
<path d="M582.283 74.3243L598.709 73.2683C604.536 72.8937 610.351 74.1586 615.496 76.9196C618.326 78.4385 621.374 79.5121 624.531 80.1026L630.67 81.2507C635.007 82.0617 639.409 82.4698 643.821 82.4698H657.864C659.899 82.4698 661.914 82.0714 663.796 81.2972C667.077 79.9473 670.72 79.7568 674.124 80.7571L679.952 82.4698L696.318 87.3571L716.379 93.8736" stroke="#FF0000"/>
<path d="M657.25 187.275L663.758 190.776C673.535 196.036 683.733 200.472 694.246 204.039L707.258 208.454L749.112 219.858" stroke="#98FF47"/>
<path d="M477.224 526.13H512.068H515.361C521.579 526.13 527.762 527.044 533.713 528.845" stroke="#FF0000"/>
<path d="M481.975 586.95L490.95 591.837L502.565 596.724L527.049 604.473C529.023 605.098 530.934 605.909 532.756 606.895C537.542 609.486 542.898 610.843 548.341 610.843H550.611C554.114 610.843 557.603 610.402 560.996 609.529L571.157 606.916C575.044 605.917 578.815 604.51 582.406 602.719L589.3 599.281C592.671 597.599 596.387 596.724 600.154 596.724C604.022 596.724 607.835 597.647 611.276 599.417L615.543 601.612" stroke="#FF0000"/>
<path d="M664.642 511.468L667.282 565.771" stroke="#98FF47"/>
<path d="M646.692 473.998L648.937 471.082C654.062 464.423 657.625 456.697 659.363 448.476L663.243 431.016C663.419 430.222 662.815 429.469 662.003 429.469" stroke="#FF0000"/>
<path d="M692.095 426.754L692.897 426.479C696.556 425.225 699.96 423.323 702.947 420.866L704.453 419.626C707.434 417.173 710.957 415.467 714.73 414.65L715.278 414.532C717.752 413.996 720.11 413.02 722.24 411.651L722.365 411.571C725.696 409.43 729.572 408.291 733.532 408.291C735.114 408.291 736.692 408.109 738.233 407.749L741.721 406.934C745.58 406.031 749.529 405.576 753.492 405.576H755.975" stroke="#FF0000"/>
<path d="M748.881 460.966C742.419 455.318 738.503 447.305 738.018 438.737L737.713 433.369L735.054 417.362L732.23 407.469C731.28 404.142 729.938 400.939 728.232 397.928L727.494 396.627C726.158 394.27 725.128 391.753 724.427 389.136C723.368 385.177 721.556 381.459 719.092 378.185L709.804 365.847C709.622 365.604 709.485 365.331 709.401 365.04C708.816 363.015 710.851 361.223 712.786 362.059L714.074 362.617C714.234 362.686 714.4 362.742 714.569 362.784L718.847 363.841C723.254 364.93 727.777 365.48 732.317 365.48H733.991H750.476H765.167C767.068 365.48 768.964 365.673 770.825 366.056C773.926 366.695 776.896 367.852 779.61 369.481L781.844 370.822" stroke="#FF0000"/>
<path d="M668.866 299.141C671.98 300.743 675.781 300.053 678.134 297.46L681.536 293.711C684.692 290.464 688.227 287.609 692.065 285.206L692.2 285.122C696.337 282.531 700.785 280.476 705.438 279.003L712.157 276.877L722.187 272.532" stroke="#98FF47"/>
<path d="M723.771 274.161L741.193 294.253L756.503 310.001L760.727 314.346L775.509 327.379L795.043 340.955L810.353 349.643" stroke="#98FF47"/>
<path d="M766.006 407.748L766.372 407.842C771.436 409.144 776.818 407.893 780.788 404.49L781.069 404.287C784.34 401.932 788.188 400.507 792.204 400.162L796.472 399.797C797.951 399.67 799.363 399.12 800.539 398.213L800.7 398.089C802.153 396.968 803.125 395.336 803.418 393.525C803.794 391.207 805.273 389.216 807.385 388.187L812.165 385.858C813.416 385.248 814.735 384.79 816.095 384.494L823.141 382.956C828.677 381.749 834.064 379.938 839.207 377.558L842.029 376.252L843.887 375.551C853.18 372.046 862.823 369.55 872.649 368.106L876.188 367.941C881.551 367.69 886.924 368.111 892.183 369.192" stroke="#98FF47"/>
<path d="M910.661 301.313L907.194 306.266C903.192 311.983 900.064 318.264 897.913 324.902C896.56 329.078 895.601 333.372 895.048 337.727L894.295 343.67L893.252 355.82C892.893 360.012 892.001 364.14 890.599 368.106" stroke="#FF0000"/>
<path d="M911.189 301.313L920.164 309.459C922.889 312.611 924.388 316.639 924.388 320.805V321.405C924.388 327.856 925.682 334.241 928.194 340.183L929.667 343.67" stroke="#FF0000"/>
<path d="M876.345 428.383L882.533 416.563C888.206 405.726 891.666 393.869 892.711 381.682V369.735" stroke="#FF0000"/>
<path d="M953.424 381.139L944.417 387.068C941.674 388.874 939.468 391.387 938.031 394.341L937.916 394.579C937 396.463 936.443 398.502 936.274 400.59C936.094 402.806 936.355 405.035 937.04 407.15L937.586 408.834L942.337 418.609" stroke="#FF0000"/>
<path d="M876.345 435.443V429.086C876.345 427.723 877.932 426.974 878.985 427.84L891.127 439.244" stroke="#98FF47"/>
<path d="M1044.76 374.08L1062.26 391.369M1061.65 391.457L1091.74 387.113" stroke="#98FF47"/>
<path d="M1086.47 425.668L1106.53 424.582" stroke="#FF0000"/>
<path d="M1052.68 410.463L1062.71 391.457" stroke="#98FF47"/>
<path d="M1108.64 469.654L1109.69 489.204" stroke="#FF0000"/>
<path d="M1076.96 284.479L1084.37 293.097C1087.46 296.691 1091.51 299.339 1096.04 300.737C1098.44 301.479 1100.96 301.856 1103.47 301.856C1108.87 301.856 1114.15 303.561 1118.52 306.728L1120.78 308.372" stroke="#98FF47"/>
<path d="M1103.36 265.473L1120.72 261.901C1123.19 261.392 1125.75 261.431 1128.21 262.014C1130.28 262.505 1132.24 263.375 1134 264.579L1139.26 268.188" stroke="#98FF47"/>
<path d="M1125.53 242.665L1127.64 228.003M1145.59 228.003H1141.56C1136.87 228.003 1132.2 227.456 1127.64 226.374" stroke="#98FF47"/>
<path d="M1137.15 210.083L1134 212.023C1130.88 213.95 1127.28 214.97 1123.62 214.97C1119.7 214.97 1115.88 213.809 1112.62 211.634L1107.05 207.911" stroke="#FF0000"/>
<path d="M1107.05 207.368L1102.13 206.016C1100.14 205.472 1098.09 205.196 1096.03 205.196C1091.51 205.196 1087.09 206.525 1083.33 209.017L1074.32 214.97" stroke="#98FF47"/>
<path d="M1050.04 211.712C1039.18 212.432 1028.28 211.585 1017.67 209.197L1016.78 208.997L985.101 201.394" stroke="#98FF47"/>
<path d="M985.101 201.394L1006.22 178.221C1007.98 176.295 1009.87 174.498 1011.88 172.842C1015.13 170.164 1018.69 167.873 1022.47 166.013L1027.41 163.581C1036.46 159.129 1044.8 153.358 1052.16 146.458L1059.01 140.031" stroke="#98FF47"/>
<path d="M1009.91 94.4164L972.43 88.9861L932.835 83.0127L902.742 79.2114" stroke="#FF0000"/>
<path d="M963.455 128.085L966.674 125.247C969.448 122.801 971.954 120.069 974.152 117.095C978.584 111.096 984.248 106.114 990.763 102.484L993.548 100.933L1009.39 94.4165" stroke="#FF0000"/>
<path d="M736.969 107.449L745.287 104.597C751.339 102.522 757.596 101.099 763.95 100.352C769.881 99.6549 775.867 99.5504 781.819 100.04L799.266 101.476L819.328 103.105L835.145 104.389C837.968 104.619 840.807 104.583 843.623 104.283L847.676 103.852C852.29 103.361 856.717 101.762 860.579 99.1917C862.634 97.8239 864.857 96.7262 867.192 95.9255L876.345 92.7872C884.412 89.5404 892.066 85.3513 899.15 80.3073L902.214 78.1252" stroke="#FF0000"/>
<path d="M901.686 78.1252C901.686 87.162 900.979 96.1849 899.572 105.111L898.518 111.793L893.767 133.515L885.848 155.779L878.985 170.984L877.781 172.889C874.084 178.74 872.122 185.519 872.122 192.439C872.122 194.784 872.347 197.123 872.794 199.424L875.289 212.255L878.985 229.632L881.097 242.665" stroke="#FF0000"/>
<path d="M881.097 242.122L883.065 241.499C886.322 240.468 889.487 239.164 892.526 237.601C898.59 234.483 905.135 232.406 911.887 231.459L913.301 231.261H923.86L934.459 232.429C937.227 232.734 940.027 232.561 942.736 231.918C944.576 231.482 946.46 231.261 948.351 231.261H948.772C951.852 231.261 954.911 230.751 957.825 229.752L961.343 228.546" stroke="#FF0000"/>
<path d="M911.189 300.227L914.141 283.023C914.285 282.185 914.357 281.336 914.357 280.485V267.172C914.357 266.233 915.118 265.472 916.057 265.472C916.328 265.472 916.594 265.408 916.835 265.284L920.692 263.3L934.947 256.241L953.424 243.751L968.735 230.718" stroke="#FF0000"/>
<path d="M790.819 224.202L793.842 223.166C801.278 220.616 809.086 219.315 816.947 219.315H818.493C821.858 219.315 825.216 219.626 828.524 220.245C832.935 221.07 837.228 222.436 841.304 224.311L855.228 230.718L866.314 237.778" stroke="#FF0000"/>
<path d="M836.223 280.677L842.558 264.386L844.338 260.059C846.967 253.667 851.383 248.168 857.056 244.22L864.582 238.984C865.71 238.198 867.052 237.778 868.427 237.778H880.042" stroke="#98FF47"/>
<path d="M712.157 136.23L730.635 155.779L735.472 160.091C742.664 166.503 747.935 174.786 750.696 184.017" stroke="#98FF47"/>
<path d="M288.75 241.036H294.696C295.98 241.036 297.232 240.636 298.278 239.891L299.835 238.781C301.851 237.346 304.656 237.881 306.002 239.958C306.458 240.661 306.7 241.482 306.7 242.321V245.365C306.7 248.412 308.279 251.242 310.872 252.842C311.607 253.295 312.27 253.854 312.842 254.501L316.212 258.314C316.909 259.103 317.547 259.942 318.119 260.826L318.379 261.227C319.731 263.312 321.482 265.11 323.532 266.516C326.668 268.666 330.381 269.817 334.183 269.817H338.377H352.631" stroke="#49970D"/>
<path d="M355.271 270.903L360.157 273.644C364.637 276.157 368.927 278.994 372.994 282.132C380.155 287.656 387.995 292.237 396.323 295.764L401.73 298.055L416.512 306.743L418.232 308.007C421.648 310.516 426.257 310.66 429.822 308.368C431.473 307.307 433.393 306.743 435.355 306.743H440.43C444.155 306.743 447.842 307.5 451.266 308.967L454.887 310.519C457.455 311.62 459.919 312.949 462.249 314.489L473.529 321.948L482.206 327.898C484.85 329.711 487.775 331.079 490.863 331.945C495.429 333.226 500.238 333.379 504.876 332.392L507.122 331.914C511.066 331.075 515.153 331.197 519.04 332.269C528.607 334.909 538.832 331.673 545.137 324.008L549.259 318.997C551.206 316.63 553.454 314.529 555.946 312.745L559.99 309.852C562.883 307.782 565.62 305.504 568.18 303.035L581.228 290.452L598.122 270.903L602.839 266.59C606.001 263.699 608.587 260.235 610.46 256.382L615.035 246.971C616.366 244.232 618.806 242.194 621.738 241.372C625.962 240.187 629.028 236.533 629.461 232.167L630.802 218.652C631.185 214.785 632.304 211.026 634.097 207.578L643.525 189.447L645.856 185.323C653.038 172.617 657.787 158.683 659.859 144.236L660.316 141.052C661.087 135.678 662.376 130.391 664.165 125.265L666.396 118.87C668.031 114.186 668.866 109.259 668.866 104.297V102.56C668.866 100.396 668.623 98.2386 668.14 96.1289L665.994 86.7466C665.151 83.0637 666.233 79.2048 668.866 76.4959L675.201 69.9795" stroke="#49970D"/>
<path d="M753.336 101.476V96.8846C753.336 93.8844 754.378 90.9773 756.284 88.6603C758.136 86.4092 760.693 84.849 763.542 84.2321L769.174 83.0125" stroke="#49970D"/>
<path d="M393.282 435.986V422.723C393.282 418.606 394.375 414.563 396.45 411.006C398.524 407.45 399.617 403.406 399.617 399.289V387.113V386.58C399.617 374.862 402.91 363.381 409.12 353.444L415.674 339.12C416.922 336.393 417.567 333.429 417.567 330.429V328.007C417.567 324.122 419.083 320.39 421.791 317.604C424.499 314.818 426.014 311.086 426.014 307.201V307.017C426.014 302.072 428.393 297.428 432.406 294.539L433.924 293.446C435.677 292.183 437.205 290.628 438.437 288.854C440.658 285.656 441.853 281.849 441.853 277.956V274.406C441.853 269.966 442.94 265.594 445.02 261.671C447.1 257.749 448.188 253.377 448.188 248.937V247.03C448.188 242.71 447.384 238.427 445.818 234.4L441.853 224.202L439.769 219.057C437.719 213.998 437.719 208.34 439.769 203.281C441.134 199.909 443.352 196.949 446.205 194.692L455.579 187.275L475.641 172.07L483.595 164.434C488.632 159.599 491.479 152.919 491.479 145.937C491.479 143.106 491.01 140.294 490.091 137.615L485.143 123.197" stroke="#49970D"/>
<path d="M272.913 518.527L275.721 512.749C276.645 510.85 278.1 509.26 279.911 508.174C282.204 506.798 283.91 504.626 284.705 502.073L286.264 497.062C287.199 494.056 288.963 491.375 291.353 489.326C295.063 486.146 297.198 481.504 297.198 476.618V473.076C297.198 468.023 298.764 463.094 301.682 458.968L301.969 458.562C304.384 455.147 307.587 452.364 311.307 450.451L316.312 447.877C319.014 446.487 321.333 444.455 323.067 441.959" stroke="#49970D"/>
<path d="M279.248 509.296C283.713 506.469 287.193 502.328 289.208 497.443L292.35 489.823C293.115 487.97 293.632 486.024 293.89 484.037C294.33 480.646 295.523 477.397 297.383 474.527L304.061 464.224L308.841 457.901C310.577 455.606 312.539 453.49 314.698 451.587L316.951 449.601C318.207 448.493 319.316 447.229 320.252 445.84L322.715 442.179C323.288 441.328 323.594 440.325 323.594 439.299C323.594 437.281 324.772 435.448 326.608 434.608L327.28 434.301C327.982 433.98 328.745 433.814 329.518 433.814C331.411 433.814 333.164 432.819 334.136 431.195L335.971 428.128C336.516 427.217 337.194 426.393 337.983 425.683C339.936 423.926 342.47 422.953 345.098 422.953H345.768H356.854C361.304 422.953 365.629 421.479 369.152 418.761L369.411 418.561C371.235 417.154 373.276 416.056 375.454 415.309L379.521 413.914C383.051 412.704 386.713 411.917 390.429 411.569L396.45 411.006" stroke="#49970D"/>
<path d="M568.558 526.13H597.066L609.37 524.838C618.339 523.897 627.061 521.333 635.112 517.27L641.961 513.814C647.849 510.843 654.352 509.296 660.947 509.296H663.059" stroke="#49970D"/>
<path d="M634.55 473.455H642.198C647.596 473.455 651.972 477.831 651.972 483.23C651.972 486.118 652.28 488.997 652.89 491.82L654.993 501.555C655.091 502.008 655.14 502.47 655.14 502.933C655.14 506.011 657.29 508.67 660.299 509.315L666.342 510.61C667.318 510.819 668.314 510.925 669.312 510.925H672.202C674.549 510.925 676.893 511.124 679.206 511.521L688.4 513.097L693.188 514.152C694.918 514.533 696.685 514.726 698.457 514.726C701.92 514.726 705.343 515.461 708.501 516.882L712.157 518.527" stroke="#49970D"/>
<path d="M606.569 611.929L618.712 599.982L620.084 598.336C625.476 591.865 631.771 586.201 638.774 581.519L649.86 575.546L664.115 566.314" stroke="#49970D"/>
<path d="M770.23 551.109C766.082 552.887 761.534 553.528 757.056 552.967L742.25 551.109L710.573 547.308" stroke="#49970D"/>
<path d="M612.905 397.43L617.554 386.562C618.324 384.761 618.934 382.894 619.376 380.985C620.671 375.391 623.393 370.228 627.276 365.998L630.327 362.676L634.186 359.5C638.593 355.874 642.107 351.282 644.455 346.08L645.05 344.762C646.829 340.821 647.749 336.546 647.749 332.222V329.428C647.749 326.65 647.118 323.908 645.903 321.41L640.99 311.302C640.926 311.171 640.793 311.088 640.647 311.088C640.186 311.088 640.122 310.42 640.575 310.333L645.038 309.472C645.085 309.463 645.132 309.45 645.177 309.432L657.78 304.571L666.258 300.633C670.519 298.653 672.204 293.473 669.922 289.366C665.711 282.868 662.206 275.939 659.468 268.696L656.196 260.042" stroke="#49970D"/>
<path d="M502.565 237.235L511.31 235.093C512.865 234.712 514.366 234.136 515.776 233.379L520.727 230.723C523.848 229.048 525.795 225.793 525.795 222.252V221.339C525.795 219.68 526.376 218.074 527.438 216.799C528.427 215.612 529.777 214.781 531.281 214.432L545.328 211.169" stroke="#49970D"/>
<path d="M534.218 640.167L533.239 631.722C532.177 622.564 534.127 613.31 538.795 605.36C540.679 602.151 542.132 598.708 543.118 595.12L547.821 577.999C550.234 569.298 554.484 561.215 560.285 554.294L561.167 553.242L568.03 542.681C569.777 539.994 571.055 537.028 571.747 533.898C572.041 532.564 572.348 531.131 572.598 529.864C573.102 527.315 572.933 527.664 572.933 530.263C572.933 530.911 572.979 531.558 573.071 532.199L576.073 553.242L580.781 569.747L584.551 579.657C585.523 582.212 586.225 584.863 586.645 587.565L587.153 590.83C587.425 592.577 587.431 594.356 587.17 596.104L586.858 598.194C586.32 601.797 587.345 605.458 589.675 608.258" stroke="#49970D"/>
<path d="M663.059 624.962H686.288" stroke="#49970D"/>
<path d="M485.144 497.892L494.073 500.038C495.648 500.416 497.262 500.607 498.881 500.607C501.883 500.607 504.849 501.264 507.57 502.532L510.434 503.865L518.505 508.21L525.5 512.011L533.69 516.66C533.968 516.818 534.213 517.025 534.414 517.273C535.929 519.142 538.953 518.071 538.953 515.664V513.983C538.953 513.755 538.977 513.528 539.026 513.305L540.029 508.753C540.744 505.504 541.105 502.188 541.105 498.861V497.892" stroke="#49970D"/>
<path d="M722.716 272.532C728.307 266.062 732.771 258.697 735.92 250.747L736.97 248.096L740.666 236.692L744.852 224.558C745.822 221.745 748.47 219.858 751.445 219.858C753.329 219.858 755.133 219.096 756.446 217.745L759.257 214.853C760.872 213.192 763.09 212.255 765.407 212.255C766.84 212.255 768.25 212.614 769.508 213.3L776.565 217.143L782.373 219.858L786.861 221.487C789.739 222.532 792.096 224.656 793.434 227.409C793.802 228.165 794.088 228.959 794.286 229.776L795.365 234.214C796.201 237.656 797.563 240.948 799.402 243.975L800.039 245.022C801.278 247.061 802.795 248.918 804.546 250.539L805.153 251.101C806.502 252.35 807.67 253.78 808.624 255.35C809.422 256.664 810.065 258.066 810.539 259.528L810.653 259.882C811.502 262.502 812.816 264.948 814.53 267.103L816.689 269.817L817.344 270.603C821.03 275.027 826.057 278.129 831.664 279.439C833.641 279.901 835.664 280.135 837.694 280.135H848.412C851.533 280.135 854.639 279.7 857.64 278.842C860.94 277.899 864.076 276.456 866.939 274.563L877.402 267.645L881.242 265.822C887.736 262.739 893.384 258.126 897.701 252.379C899.299 250.252 901.085 248.273 903.038 246.465L905.724 243.978C908.982 240.962 912.815 238.632 916.993 237.128L917.728 236.863C920.046 236.029 922.24 234.885 924.251 233.463L925.295 232.725C928.168 230.693 931.486 229.377 934.971 228.889C939.094 228.31 943.297 228.91 947.093 230.619L947.392 230.753C948.946 231.452 950.571 231.978 952.239 232.321L952.643 232.404C954.216 232.728 955.818 232.891 957.424 232.891H966.436C968.857 232.891 971.114 231.664 972.43 229.633" stroke="#49970D"/>
<path d="M800.85 137.316C801.155 136.064 801.112 132.478 800.998 129.489C800.921 127.469 800.628 125.465 800.185 123.492L799.689 121.278C799.408 120.027 799.267 118.749 799.267 117.467C799.267 113.78 800.437 110.189 802.609 107.209L804.11 105.151C805.102 103.791 806.228 102.533 807.471 101.396L819.856 90.0723" stroke="#49970D"/>
<path d="M833.583 151.978L842.03 137.316L846.178 127.141C847.983 122.715 849.295 118.104 850.092 113.391L850.715 109.709C850.908 108.566 851.005 107.41 851.005 106.251C851.005 103.108 850.291 100.007 848.917 97.1812L846.781 92.7871" stroke="#49970D"/>
<path d="M902.743 77.0393C903.757 80.5164 906.11 83.4483 909.286 85.1903L912.246 86.814L914.455 88.017C918.953 90.4662 923.698 92.4294 928.612 93.8734L938.642 97.6747L941.572 98.8465C945.926 100.588 949.974 103.015 953.562 106.035L956.996 108.925C958.823 110.462 960.354 112.321 961.514 114.408L962.36 115.931C963.425 117.847 963.983 120.004 963.983 122.196C963.983 125.294 962.869 128.288 960.843 130.632L960.625 130.885C960.05 131.551 959.539 132.27 959.101 133.033L952.897 143.833C949.746 150.674 947.619 157.941 946.583 165.402L946.034 169.355V184.56V194.477C946.034 196.912 946.238 199.343 946.644 201.744C947.634 207.604 949.813 213.198 953.045 218.185L957.648 225.288" stroke="#49970D"/>
<path d="M1009.91 94.4165L1028.39 97.1317L1038.53 99.8143C1044.08 101.282 1049.52 103.143 1054.81 105.382L1058.43 106.915C1062.68 108.716 1066.76 110.894 1070.63 113.423" stroke="#49970D"/>
<path d="M1070.63 128.627L1060.18 139.374C1060.11 139.45 1060.03 139.521 1059.94 139.586C1058.88 140.402 1058.77 141.957 1059.7 142.915L1066.4 149.806L1072.36 157.009C1074.37 159.443 1076.58 161.7 1078.98 163.754L1081.13 165.599C1083.62 167.73 1086.39 169.503 1089.37 170.865L1092.36 172.229C1093.7 172.843 1094.94 173.664 1096.03 174.662C1098.06 176.514 1099.5 178.915 1100.19 181.573L1100.61 183.196C1101.03 184.823 1101.25 186.497 1101.25 188.177V188.714C1101.25 192.062 1101.95 195.374 1103.3 198.437L1103.89 199.765L1104.9 201.86C1106.32 204.77 1107.05 207.963 1107.05 211.198C1107.05 213.693 1106.62 216.17 1105.76 218.514L1105.47 219.314C1104.42 222.188 1103.89 225.224 1103.89 228.283V228.731C1103.89 231.132 1103.59 233.524 1102.99 235.85L1101.67 241.028C1101.39 242.115 1101.25 243.232 1101.25 244.354V245.532C1101.25 248.549 1099.98 251.427 1097.75 253.463C1096.92 254.224 1096.21 255.112 1095.66 256.093L1092.8 261.128" stroke="#49970D"/>
<path d="M1094.91 154.15H1098.61C1100.33 154.15 1102.02 153.671 1103.49 152.767C1105.44 151.56 1106.88 149.671 1107.53 147.466L1108.11 145.462" stroke="#49970D"/>
<path d="M1050.04 211.712H1054.99C1056.94 211.712 1058.86 212.178 1060.6 213.07C1062.33 213.962 1064.25 214.427 1066.2 214.427H1071.16C1072.47 214.427 1073.68 215.115 1074.35 216.24L1076.67 220.114C1077.21 221.025 1077.88 221.857 1078.65 222.589L1084.35 228.003L1085.63 229.32C1089 232.781 1092.63 235.972 1096.5 238.864L1101.25 241.579" stroke="#49970D"/>
<path d="M1074.32 250.811H1078.08C1088.56 250.811 1099 249.534 1109.17 247.009L1120.78 244.294L1122.99 243.675C1125.29 243.03 1127.75 243.349 1129.81 244.56C1132.41 246.085 1135.6 246.175 1138.28 244.798L1142.43 242.665C1145.3 240.692 1146.71 237.183 1146 233.767L1145.93 233.413C1145.71 232.35 1145.29 231.337 1144.7 230.426C1143.26 228.206 1142.9 225.456 1143.72 222.939L1144.01 222.03" stroke="#49970D"/>
<path d="M1128.7 280.135L1137.99 269.146C1138.7 268.306 1139.94 268.174 1140.82 268.846C1141.18 269.123 1141.62 269.274 1142.07 269.274H1145.07C1147.03 269.274 1148.86 270.3 1149.88 271.981L1150.87 273.618L1151.53 274.625C1152.34 275.884 1154 276.277 1155.3 275.517C1156.15 275.013 1156.68 274.094 1156.68 273.101V268.882C1156.68 268.063 1156.54 267.25 1156.27 266.478L1155.76 265.049C1155.05 263.025 1153.13 261.671 1150.99 261.671C1149.27 261.671 1147.67 260.802 1146.74 259.361L1145.98 258.188C1145.38 257.263 1144.58 256.479 1143.65 255.889L1142.08 254.893C1139.55 253.289 1137.51 251.011 1136.2 248.314L1135.04 245.923" stroke="#49970D"/>
<path d="M1146.12 235.606L1154.04 257.327" stroke="#49970D"/>
<path d="M1154.04 275.247V284.158C1154.04 284.733 1154.09 285.306 1154.2 285.871L1154.77 289.036C1155.27 291.743 1157.62 293.711 1160.38 293.711" stroke="#49970D"/>
<path d="M1159.85 293.711C1155.04 293.711 1150.35 295.202 1146.42 297.978L1144.01 299.684" stroke="#49970D"/>
<path d="M970.846 231.261C970.846 233.955 972.266 236.448 974.582 237.823L984.573 243.751L1000.94 251.897L1010.89 255.307C1014.79 256.645 1018.88 257.327 1023 257.327H1030.96C1033.75 257.327 1036.47 258.218 1038.72 259.87C1041.25 261.733 1044.37 262.621 1047.51 262.373L1070.1 260.585H1074.56C1080.01 260.585 1085.43 261.316 1090.69 262.758" stroke="#49970D"/>
<path d="M891.656 369.192L892.694 369.326C897.61 369.958 902.59 369.913 907.494 369.192L916.997 368.106L924.693 367.447C927.988 367.164 931.307 367.417 934.521 368.195L935.485 368.428C943.216 370.299 951.378 368.842 957.984 364.41C959.167 363.617 960.407 362.914 961.695 362.307L966.796 359.902C970.541 358.136 974.469 356.79 978.51 355.886L980.086 355.534C983.068 354.867 986.115 354.53 989.172 354.53C992.778 354.53 996.369 354.062 999.855 353.137L1010.97 350.186L1030.88 347.429C1035.72 346.759 1040.62 348.001 1044.56 350.891C1047.77 353.255 1051.66 354.53 1055.66 354.53H1066.93" stroke="#49970D"/>
<path d="M952.896 381.682V367.02" stroke="#49970D"/>
<path d="M845.197 500.607C851.489 498.09 857.317 494.544 862.445 490.114L867.899 485.402L876.472 476.584C878.843 474.144 880.923 471.437 882.67 468.518L884.962 464.688C887.275 460.821 890.531 457.605 894.427 455.341L897.814 453.371C899.659 452.299 901.755 451.734 903.889 451.734H905.027C906.636 451.734 908.211 452.203 909.558 453.085C911.894 454.614 913.301 457.217 913.301 460.008V461.923C913.301 464.474 914.127 466.957 915.655 469L917.166 471.021C918.106 472.277 918.889 473.642 919.5 475.087L921.752 480.414C923.155 483.734 924.288 487.162 925.139 490.664L927.556 500.607L930.723 516.355L936.531 534.275" stroke="#49970D"/>
<path d="M885.849 489.203C885.849 483.887 887.387 478.684 890.279 474.222L893.24 469.654L896.2 465.467C899.841 460.318 904.174 455.697 909.078 451.734" stroke="#49970D"/>
<path d="M1024.17 521.785V518.026C1024.17 510.509 1022.33 503.106 1018.83 496.458L1016.71 492.44C1015.01 489.233 1012.65 486.428 1009.78 484.213C1005.74 481.096 1002.74 476.831 1001.16 471.976L1000.5 469.921C999.05 465.452 996.644 461.354 993.449 457.911L991.002 455.274C988.484 452.561 985.664 450.144 982.598 448.071L973.014 441.593C970.175 439.674 967.087 438.15 963.836 437.063C953.527 433.617 945.202 425.897 940.99 415.877L939.17 411.549" stroke="#49970D"/>
<path d="M979.294 523.957L980.944 521.961C985.678 516.232 992.264 512.336 999.565 510.945C1001.53 510.57 1003.53 510.381 1005.53 510.381H1010.18C1013.51 510.381 1016.83 510.782 1020.06 511.573C1024.18 512.583 1028.13 514.218 1031.75 516.422L1037.89 520.156L1042.23 522.14C1048.77 525.127 1055.87 526.673 1063.05 526.673C1066.33 526.673 1069.61 526.995 1072.83 527.636L1075.35 528.138C1081.28 529.319 1087.4 529.208 1093.29 527.81L1094.3 527.569C1096.81 526.973 1099.38 526.673 1101.96 526.673C1104.99 526.673 1108.01 527.087 1110.92 527.905L1115.43 529.169C1117.23 529.675 1118.96 530.411 1120.57 531.36L1125.02 533.972C1129.81 536.792 1135.83 536.484 1140.32 533.189L1147.71 526.673L1156.68 520.156L1164.07 515.812L1169.88 513.097L1182.55 505.494" stroke="#49970D"/>
<path d="M1085.94 531.56H1088.06C1094.74 531.56 1101.08 534.528 1105.36 539.661L1106.93 541.547C1107.71 542.483 1108.66 543.263 1109.73 543.846C1113.95 546.144 1119.22 544.989 1122.09 541.136L1125.76 536.216C1127.94 533.286 1131.38 531.56 1135.04 531.56H1143.35C1145.52 531.56 1147.67 531.077 1149.63 530.146C1152.16 528.942 1154.3 527.034 1155.78 524.649L1164.21 511.076C1165.17 509.53 1166.28 508.079 1167.51 506.741L1171.7 502.192C1173.92 499.776 1175.16 496.612 1175.16 493.328C1175.16 490.643 1174.33 488.024 1172.79 485.824L1168.09 479.099C1166.49 476.823 1164.34 474.996 1161.84 473.794L1160.45 473.128C1158.67 472.276 1157.17 470.953 1156.1 469.302C1154.45 466.761 1153.96 463.64 1154.75 460.714L1156.77 453.16C1157.41 450.772 1157.74 448.309 1157.74 445.836V442.502V430.555V427.783C1157.74 424.605 1157.01 421.467 1155.62 418.609C1154.24 415.75 1153.51 412.613 1153.51 409.434V403.404V398.52C1153.51 394.185 1153.06 389.862 1152.16 385.621C1151.31 381.557 1150.04 377.589 1148.4 373.777L1146.65 369.735" stroke="#49970D"/>
<path d="M1186.77 517.441C1194.87 517.441 1202.63 514.164 1208.28 508.356L1208.42 508.21L1210.75 506.096C1215.02 502.214 1220.59 500.064 1226.37 500.064" stroke="#49970D"/>
<path d="M1017.83 491.918L1027.58 488.784C1032.32 487.263 1037.26 486.488 1042.23 486.488C1049.45 486.488 1056.58 484.853 1063.08 481.707L1069.57 478.566C1076.57 475.177 1083.04 470.777 1088.76 465.506L1100.08 455.069C1103.61 451.817 1106.23 447.694 1107.66 443.115L1108.25 441.255C1109.86 436.108 1109.55 430.55 1107.37 425.617C1106.12 422.786 1105.47 419.725 1105.47 416.631V415.876C1105.47 414.082 1105.66 412.294 1106.03 410.539L1108.11 400.688" stroke="#49970D"/>
<path d="M1075.91 477.257L1082.28 481.382C1087.49 484.758 1093.27 487.162 1099.34 488.476C1106.51 490.029 1114.03 490.007 1121.2 488.455C1127.16 487.165 1132.92 484.828 1138.08 481.581L1156.15 470.197L1165.71 462.555C1168.82 460.063 1172.31 458.087 1176.05 456.702C1181.03 454.859 1185.56 451.975 1189.33 448.243L1197.33 440.33" stroke="#49970D"/>
<path d="M1195.75 441.416C1195.75 449.424 1201.83 456.122 1209.8 456.89L1212.64 457.164" stroke="#49970D"/>
<path d="M1035.26 428.926L1050.28 412.54C1051.81 410.87 1053.97 409.92 1056.23 409.92C1057.71 409.92 1059.15 410.323 1060.41 411.087L1062.97 412.635C1065.91 414.411 1069.27 415.35 1072.71 415.35H1085.94" stroke="#49970D"/>
<path d="M1085.94 416.98L1088.05 401.232L1092.27 386.027L1101.25 361.047L1111.81 335.524" stroke="#49970D"/>
<path d="M1085.94 416.437V431.665C1085.94 435.61 1085.34 439.531 1084.18 443.299C1082.9 447.446 1080.94 451.352 1078.38 454.859L1067.99 469.111" stroke="#49970D"/>
<path d="M1086.47 408.291H1088.28C1092.96 408.291 1097.54 406.974 1101.51 404.49L1102.69 403.75C1105.89 401.749 1109.58 400.688 1113.35 400.688C1118.78 400.688 1123.97 398.494 1127.75 394.604L1130.28 392L1147.18 373.537" stroke="#49970D"/>
<path d="M1092.27 386.57H1096.27C1108.94 386.57 1121.45 389.35 1132.92 394.715L1146.68 400.219C1150.15 401.607 1153.35 403.604 1156.11 406.116C1159.27 408.984 1162.99 411.18 1167.03 412.564C1170.31 413.689 1173.76 414.265 1177.23 414.265H1180.38C1181.47 414.265 1182.55 414.119 1183.6 413.831C1187.56 412.746 1190.7 409.743 1191.97 405.841L1192.39 404.531C1192.87 403.065 1193.11 401.533 1193.11 399.991V399.603" stroke="#49970D"/>
<path d="M1145.07 361.59L1149.2 362.156C1156.95 363.22 1164.83 363.029 1172.52 361.59" stroke="#49970D"/>
<path d="M1160.38 333.352C1163.46 335.819 1165.66 339.219 1166.65 343.042C1167.04 344.541 1167.24 346.083 1167.24 347.631V347.797C1167.24 351.487 1168.28 355.102 1170.25 358.225L1171.35 359.98C1172.48 361.771 1173.81 363.422 1175.33 364.899L1183.08 372.451" stroke="#49970D"/>
<path d="M1108.64 440.33L1123.9 431.412C1128.83 428.528 1131.87 423.24 1131.87 417.523C1131.87 416.923 1132.35 416.437 1132.95 416.437H1144.01L1150.07 415.703C1152 415.469 1153.96 415.518 1155.88 415.847C1158.16 416.237 1160.35 417.017 1162.36 418.151L1175.14 425.357C1175.5 425.564 1175.89 425.721 1176.3 425.826C1178.42 426.372 1179.91 428.288 1179.91 430.482V432.76C1179.91 434.16 1179.53 435.535 1178.81 436.736L1177.72 438.568C1176.38 440.793 1174.52 442.648 1172.28 443.962L1168.3 446.304C1163.48 449.137 1159.6 453.33 1157.16 458.359L1156.68 459.336L1154.57 463.138" stroke="#49970D"/>
<path d="M1096.5 459.336L1108.64 469.654" stroke="#49970D"/>
<path d="M1004.63 326.835L1025.89 321.647C1032.46 320.043 1038.82 317.67 1044.83 314.578L1046.38 313.785C1054.04 309.843 1060.98 304.625 1066.89 298.354C1072.17 292.756 1076.56 286.39 1079.92 279.471L1081.19 276.876L1090.16 263.3" stroke="#49970D"/>
<path d="M958.704 308.372L959.085 307.484C964.083 295.831 967.335 283.505 968.735 270.903L970.319 249.181L971.095 236.138C971.624 227.246 974.449 218.644 979.294 211.169L985.101 201.394" stroke="#49970D"/>
<path d="M651.444 420.238C656.532 417.796 662.358 417.381 667.741 419.078L692.095 426.754" stroke="#49970D"/>
<path d="M752.28 459.88C753.737 455.928 754.483 451.751 754.483 447.539V407.748C754.483 406.62 755.509 405.769 756.618 405.978L766.006 407.748" stroke="#49970D"/>
<path d="M625.575 368.65L632.521 367.718C635.931 367.26 639.4 367.669 642.609 368.907C644.959 369.814 647.457 370.279 649.976 370.279H652.509C654.953 370.279 657.383 369.912 659.718 369.192C664.307 367.776 669.212 367.743 673.819 369.097L674.257 369.225C676.634 369.924 679.099 370.279 681.577 370.279H682.5C687.413 370.279 692.25 369.066 696.583 366.749L701.657 364.035C702.658 363.499 703.776 363.219 704.912 363.219C707.427 363.219 709.743 361.851 710.957 359.648L716.15 350.221C717.353 348.038 718.874 346.046 720.663 344.311L736.442 329.008L747.808 319.655C752.518 315.779 756.569 311.165 759.801 305.992C762.864 301.092 765.156 295.75 766.596 290.153L769.174 280.135" stroke="#49970D"/>
<path d="M781.317 370.279L788.708 377.881L789.145 378.466C792.265 382.637 796.805 385.52 801.906 386.57" stroke="#49970D"/>
<path d="M930.724 367.02L932.789 358.526C934.148 352.934 932.796 347.028 929.14 342.584" stroke="#49970D"/>
<path d="M497.286 75.9528L504.876 47.1646C505.445 45.0064 505.733 42.7837 505.733 40.5517C505.733 36.34 506.759 32.1916 508.721 28.4651L512.596 21.1062L523.683 5.35815" stroke="#49970D"/>
<path d="M506.261 41.199C516.429 41.199 526.559 42.447 536.423 44.915L541.105 46.0863L554.831 51.5167" stroke="#49970D"/>
<path d="M382.195 67.8076L482.504 113.423" stroke="#49970D"/>
<path d="M485.144 124.283L480.128 141.746C478.932 145.91 476.359 149.545 472.83 152.058C471.89 152.728 471.013 153.481 470.208 154.308L466.301 158.327C463.381 161.331 460.698 164.556 458.277 167.974L442.331 190.487C437.555 197.23 434.99 205.29 434.99 213.553C434.99 217.73 434.334 221.882 433.046 225.855L430.238 234.52C426.042 247.108 423.903 260.291 423.903 273.56V277.42L425.299 291.783C425.774 296.666 425.582 301.59 424.728 306.42L424.47 307.879C424.093 310.014 423.903 312.178 423.903 314.346" stroke="#49970D"/>
<path d="M432.878 307.286L429.942 309.098C426.684 311.109 422.931 312.174 419.102 312.174C415.335 312.174 411.64 313.205 408.417 315.155L401.809 319.153C397.558 321.725 393.729 324.938 390.457 328.677L389.694 329.549C387.17 332.433 385.042 335.642 383.366 339.09L381.818 342.274C379.982 346.051 379.028 350.196 379.028 354.397C379.028 358.42 379.903 362.395 381.594 366.046L382.363 367.707C383.654 370.496 384.583 373.438 385.127 376.463L385.367 377.793C386.411 383.591 388.546 389.139 391.658 394.141L392.663 395.756C394.48 398.676 396.56 401.424 398.876 403.966L403.313 408.834" stroke="#49970D"/>
<path d="M423.374 425.668L419.855 421.596C416.596 417.824 414.033 413.503 412.288 408.834" stroke="#49970D"/>
<path d="M360.022 469.111L351.771 460.285C348.489 456.774 344.728 453.744 340.598 451.285C338.066 449.777 335.407 448.491 332.653 447.442L322.538 443.588" stroke="#49970D"/>
<path d="M361.606 428.926C365.505 415.89 376.272 406.065 389.609 403.37L397.506 401.774" stroke="#49970D"/>
<path d="M403.313 409.92C406.061 413.806 407.536 418.449 407.536 423.209V425.125" stroke="#49970D"/>
<path d="M213.255 451.734L221.306 457.944C222.932 459.199 224.928 459.879 226.982 459.879C229.035 459.879 231.031 460.56 232.657 461.814L237.087 465.231C239.482 467.079 241.551 469.365 243.162 471.926C245.35 475.403 248.351 478.358 251.875 480.472L256.045 482.974C258.136 484.229 260.125 485.646 261.994 487.212L269.986 493.91C272.284 495.836 274.399 497.971 276.304 500.286L279.737 504.459C283.214 508.686 287.797 511.865 292.974 513.64" stroke="#49970D"/>
<path d="M208.504 525.044L211.43 524.568C216.137 523.804 220.935 523.785 225.648 524.512L228.876 525.01C229.021 525.032 229.167 525.044 229.313 525.044C230.461 525.044 231.498 524.359 231.948 523.303L240.708 502.779C242.431 498.526 245.351 494.865 249.113 492.239L251.917 490.282C256.012 487.423 259.453 483.727 262.012 479.438L272.384 462.052" stroke="#49970D"/>
<path d="M230.149 525.044L232.261 531.56" stroke="#49970D"/>
<path d="M132.481 479.429L148.319 456.078" stroke="#49970D"/>
<path d="M125.618 439.787L148.319 456.078" stroke="#49970D"/>
<path d="M132.481 444.674L138.914 438.793C140.889 436.987 143.468 435.986 146.144 435.986H148.092C149.264 435.986 150.402 436.385 151.317 437.117C153.253 438.666 156.017 438.619 157.9 437.005L164.157 431.641L171.02 425.125L171.805 424.52C178.304 419.506 185.294 415.16 192.666 411.549" stroke="#49970D"/>
<path d="M192.138 443.588H193.22C201.21 443.588 209.112 441.924 216.423 438.701" stroke="#49970D" stroke-linecap="round"/>
<path d="M272.913 310.544L290.617 317.829C291.127 318.039 291.589 318.351 291.974 318.747C292.927 319.727 293.318 321.124 293.013 322.457L292.08 326.537C291.628 328.512 291.696 330.571 292.277 332.513L293.502 336.61L299.158 350.67C299.604 351.777 300.327 352.75 301.258 353.495L302.308 354.335C303.707 355.454 305.616 355.69 307.245 354.945C308.568 354.34 310.095 354.376 311.389 355.041L315.724 357.27C316.395 357.615 317.038 358.011 317.649 358.454L322.341 361.862C324.528 363.45 327.162 364.305 329.865 364.305C332.648 364.305 335.355 365.211 337.577 366.887L342.072 370.278L343.963 371.945C345.16 373 346.195 374.226 347.034 375.583C348.622 378.15 349.464 381.109 349.464 384.128V384.477C349.464 385.867 349.298 387.252 348.969 388.603L348.903 388.876C348.229 391.65 348.162 394.537 348.707 397.339L349.464 401.231L349.638 401.771C350.905 405.679 351.062 409.861 350.091 413.853L349.961 414.388C349.631 415.749 349.464 417.144 349.464 418.544C349.464 420.386 349.753 422.216 350.321 423.968L351.575 427.84" stroke="#49970D"/>
<path d="M304.589 355.616C304.589 358.824 303.785 361.979 302.252 364.796L297.198 374.08L285.583 393.086C281.105 398.754 275.068 402.99 268.214 405.271L267.973 405.351C263.22 406.932 258.196 407.536 253.204 407.125C249.47 406.818 245.712 407.078 242.056 407.895L235.429 409.377L224.87 411.549" stroke="#49970D"/>
<path d="M304.061 419.695L306.238 416.078C309.352 410.904 313.05 406.104 317.259 401.774C321.473 395.996 325.101 389.814 328.093 383.319L328.346 382.768L336.793 365.934" stroke="#49970D"/>
<path d="M345.768 372.994L363.717 364.305L365.424 363.537C369.867 361.538 374.684 360.504 379.556 360.504" stroke="#49970D"/>
<path d="M653.027 170.984C658.256 170.984 663.434 169.961 668.27 167.971L668.865 167.726" stroke="#49970D"/>
<path d="M850.476 87.8998H838.606C837.728 87.8998 836.858 87.7378 836.039 87.4219L835.213 87.1032C833.84 86.5736 832.306 86.6557 830.997 87.3287L830.664 87.5001C830.153 87.7628 829.587 87.8998 829.013 87.8998H828.967C827.882 87.8998 826.857 88.4008 826.191 89.2574C825.525 90.114 824.501 90.615 823.416 90.615H817.804C816.896 90.615 816.16 89.8792 816.16 88.9714C816.16 88.3201 815.776 87.7303 815.18 87.4675L812.465 86.2707C809.673 85.1939 806.707 84.6416 803.715 84.6416H802.434H795.485C794.503 84.6416 793.539 84.3854 792.687 83.8985L791.319 83.1167C790.069 82.4029 788.506 82.5514 787.414 83.4877C786.57 84.2109 785.427 84.4768 784.351 84.2L780.971 83.3309C780.149 83.1195 779.303 83.0125 778.454 83.0125H777.221C775.733 83.0125 774.249 82.8451 772.798 82.5134L772.606 82.4695C771.027 82.1086 769.412 81.9264 767.793 81.9264H763.367H754.392C751.941 81.9264 749.504 82.287 747.159 82.9965L743.818 84.0072C742.428 84.4278 740.983 84.6416 739.53 84.6416H734.194C733.606 84.6416 733.043 84.4036 732.633 83.9819L732.16 83.4955C731.393 82.707 730.086 82.8667 729.532 83.8167C729.234 84.3275 728.687 84.6416 728.096 84.6416H725.69C724.443 84.6416 723.23 84.2436 722.225 83.5057L721.336 82.8526C720.517 82.2509 719.528 81.9264 718.511 81.9264H715.098C714.348 81.9264 713.74 82.5342 713.74 83.284C713.74 84.0338 713.133 84.6416 712.383 84.6416H711.688C710.993 84.6416 710.344 84.9939 709.966 85.5776L709.517 86.2707C708.859 87.2866 707.73 87.8998 706.52 87.8998H702.386C701.516 87.8998 700.654 87.7393 699.842 87.4263L698.832 87.0364C697.57 86.5499 696.581 85.5419 696.118 84.2717L695.459 82.4651C695.336 82.1284 695.389 81.7527 695.6 81.4632C696.119 80.7525 695.611 79.7543 694.732 79.7543H692.623C690.567 79.7543 688.565 79.0886 686.919 77.8568L685.312 76.6545C684.207 75.8285 682.998 75.153 681.716 74.6457L676.785 72.6948L674.279 71.8358C672.792 71.3258 671.398 70.5758 670.153 69.6154C668.607 68.4226 666.835 67.5567 664.943 67.0703L664.11 66.8561C662.376 66.4102 660.768 65.5725 659.409 64.4075C658.677 63.7804 658.026 63.0653 657.469 62.2785L654.083 57.4898L651.436 54.1833C648.281 50.2427 644.747 46.6213 640.885 43.3709L640.28 42.7483C638.383 40.7975 635.553 40.0746 632.953 40.8768C632.262 41.0902 631.542 41.1987 630.818 41.1987H630.602C629.039 41.1987 627.506 40.7767 626.163 39.9772L618.184 35.2253L613.432 32.5595C612.74 32.1711 611.959 31.9671 611.166 31.9671H610.532C609.686 31.9671 608.876 32.3093 608.286 32.9158L607.164 34.0706C606.549 34.703 605.533 34.703 604.918 34.0706C604.624 33.7673 604.219 33.5962 603.796 33.5962H603.289C602.677 33.5962 602.083 33.7988 601.599 34.1722L600.234 35.2253L598.337 36.3961C597.851 36.6957 597.292 36.8545 596.721 36.8545H596.526C595.553 36.8545 594.653 37.3714 594.163 38.212L593.932 38.6072C593.584 39.2032 592.946 39.5696 592.256 39.5696C591.948 39.5696 591.644 39.6433 591.369 39.7844L589.26 40.8691C588.839 41.0857 588.372 41.1987 587.898 41.1987C587.335 41.1987 586.782 41.0387 586.306 40.7371L581.911 37.9554C580.755 37.2232 579.529 36.6063 578.252 36.1136L575.949 35.2253L573.481 34.464C571.735 33.925 569.833 34.3335 568.462 35.5425C567.503 36.388 566.268 36.8545 564.99 36.8545H561.694H559.706C557.785 36.8545 556.745 39.1043 557.99 40.5675C558.336 40.975 558.527 41.4925 558.527 42.0274V45.0139C558.527 45.3569 558.412 45.69 558.202 45.9607C557.442 46.9375 555.899 46.6666 555.518 45.4893L554.946 43.7259C554.87 43.4905 554.759 43.2676 554.618 43.0643L549.776 36.0912C547.885 33.3685 545.477 31.0445 542.689 29.252C537.795 25.6565 533.482 21.2069 530.018 16.2191L522.604 2.49262C522.324 1.97295 521.679 1.77329 521.153 2.04341C521.08 2.08114 521.003 2.11038 520.923 2.13057L465.082 16.2191L405.918 31.303C404.234 31.7323 402.753 32.7353 401.729 34.1393L396.919 40.3232C395.905 41.6274 395.03 43.0339 394.307 44.5198L393.271 46.6511C392.581 48.0704 391.617 49.3386 390.433 50.3823C389.179 51.488 388.171 52.8452 387.476 54.3656L384.307 61.2911L382.481 64.779C381.245 67.1413 380.436 69.704 380.093 72.3484L379.893 73.8906C379.67 75.6129 379.133 77.2796 378.307 78.8077C377.389 80.5069 376.836 82.3762 376.625 84.2958C376.41 86.2499 376.128 88.4275 375.86 89.5289C375.608 90.5651 374.718 92.1677 373.817 93.5998C372.77 95.2629 371.71 96.9214 370.806 98.6659L369.573 101.044C368.492 103.129 367.75 105.372 367.374 107.69C367.05 109.692 366.452 111.64 365.596 113.479L361.078 123.197L357.91 131.886L355.271 139.488L351.509 151.095C350.508 154.186 348.888 157.04 346.749 159.485C345.745 160.632 344.853 161.873 344.085 163.189L338.904 172.07L332.041 184.56C329.93 189.266 325.389 199.439 324.122 202.48C320.188 211.922 312.658 219.348 304.703 225.777L301.949 228.003L298.984 230.25C294.319 233.785 290.4 238.208 287.451 243.264C286.208 245.395 285.144 247.626 284.272 249.934L281.887 256.241L279.247 266.559L275.024 282.307L272.17 291.439C270.911 295.469 269.108 299.308 266.812 302.85C265.601 304.719 264.257 306.498 262.79 308.175L260.242 311.088C257.811 313.588 255.987 316.614 254.912 319.932L254.434 321.405L252.323 332.809C251.795 334.438 250.633 337.805 250.211 338.239C249.789 338.674 247.219 342.403 245.987 344.213L241.26 352.612C240.577 353.826 239.383 354.667 238.011 354.902L237.934 354.915C237.327 355.02 236.749 355.254 236.241 355.602C235.707 355.969 235.262 356.453 234.942 357.017L233.378 359.775C232.291 361.693 230.86 363.394 229.158 364.795L229.093 364.848L227.459 366.109C224.331 368.522 220.991 370.644 217.479 372.451L215.276 373.961C214.672 374.375 214.311 375.06 214.311 375.792C214.311 376.43 214.037 377.036 213.559 377.458L210.616 380.053L208.331 382.403C207.396 383.364 206.312 384.167 205.12 384.78L202.108 386.329C201.132 386.831 200.395 387.698 200.057 388.742L199.001 393.629L198.804 395.453C198.589 397.438 197.717 399.294 196.325 400.725C195.65 401.42 194.868 402.005 193.996 402.427C192.988 402.913 191.894 403.404 191.61 403.404C191.311 403.404 189.407 403.404 187.696 403.404C186.485 403.404 185.326 402.914 184.483 402.046C183.639 401.178 182.48 400.688 181.269 400.688H178.939H176.143C175.544 400.688 174.947 400.638 174.357 400.536C172.854 400.279 171.425 399.699 170.167 398.836L167.325 396.887L167.027 396.734C166.132 396.274 165.048 396.821 164.887 397.815C164.77 398.532 164.151 399.059 163.424 399.059H163.085C162.75 399.059 162.421 398.97 162.132 398.8L158.878 396.887C157.822 396.163 155.604 394.606 155.182 394.172C154.846 393.826 152.705 393.802 151.046 393.851C150.316 393.873 149.637 394.219 149.17 394.78C148.634 395.422 148.435 396.28 148.633 397.092L149.375 400.145L149.731 403.811C149.842 404.948 149.531 406.085 148.858 407.008C148.502 407.497 148.054 407.911 147.54 408.229L147.148 408.471C146.209 409.05 145.076 409.222 144.008 408.947C143.715 408.872 143.432 408.764 143.163 408.626L142.14 408.1C141.69 407.868 141.192 407.748 140.686 407.748H140.116C139.623 407.748 139.15 407.948 138.805 408.302C138.474 408.643 138.288 409.1 138.288 409.576V413.223C138.288 413.916 138.355 414.607 138.487 415.286L139.153 418.711C139.279 419.362 139.29 420.029 139.184 420.683C138.948 422.138 138.151 423.442 136.963 424.314L133.532 426.835C132.167 427.838 131.178 429.271 130.725 430.903C130.489 431.751 130.108 432.551 129.597 433.268L124.562 440.33L119.282 449.019L116.643 454.449L114.7 458.446C114.237 459.397 113.901 460.405 113.699 461.444C113.55 462.209 113.475 462.987 113.475 463.767V466.269C113.475 469.239 113.12 472.198 112.419 475.084L112.411 475.163C112.071 478.667 110.797 482.015 108.723 484.859L106.298 487.354C105.145 488.54 104.5 490.129 104.5 491.783C104.5 492.234 104.549 492.688 104.644 493.129C105.196 495.682 107.191 497.709 109.742 498.271L110.866 498.519C112.211 498.816 113.617 498.633 114.842 498.003C115.678 497.573 116.605 497.349 117.546 497.349H122.68C123.579 497.349 124.474 497.235 125.345 497.012C127.25 496.522 128.982 495.517 130.353 494.107L131.953 492.461L133.805 490.08C133.976 489.86 134.193 489.68 134.441 489.553C135.715 488.897 137.232 489.823 137.232 491.256V492.22C137.232 492.381 137.217 492.541 137.186 492.698L136.26 497.462C136.204 497.747 136.112 498.024 135.985 498.286C135.763 498.741 135.648 499.241 135.648 499.748V500.261C135.648 501.862 136.336 503.386 137.537 504.444L138.152 504.987C138.938 505.679 139.861 506.197 140.862 506.506L143.086 507.192C144.05 507.49 145.098 507.3 145.897 506.684C146.44 506.265 147.107 506.037 147.793 506.037H152.542L155.486 506.34C157.035 506.499 158.553 506.881 159.993 507.474C162.043 508.317 163.899 509.573 165.444 511.162L165.747 511.474C166.446 512.193 167.084 512.968 167.656 513.791L169.436 516.355L171.621 519.501C171.918 519.929 172.332 520.262 172.814 520.46C173.938 520.922 175.232 520.578 175.978 519.619L176.827 518.527C177.093 518.254 177.545 518.31 177.737 518.638L180.349 523.116C180.465 523.315 180.596 523.504 180.741 523.683L184.215 527.972C185.264 529.266 186.551 530.346 188.008 531.152C190.992 532.805 194.508 533.215 197.792 532.294L198.473 532.103L206.392 529.388L208.73 528.386C211.001 527.413 213.639 528.315 214.839 530.474C216.166 532.522 218.39 533.826 220.829 533.908C223.719 534.006 226.699 534.023 226.982 533.732C227.062 533.649 227.182 533.579 227.328 533.518C228.738 532.935 230.318 532.791 231.642 532.034C233.408 531.026 235.464 530.7 237.484 530.931C237.941 530.983 238.338 531.017 238.596 531.017C242.107 531.017 244.019 535.551 247.334 536.706C248.693 537.179 249.837 537.533 250.211 537.533C253.195 537.533 255.308 534.606 256.974 532.131L259.186 528.845L261.002 525.421C261.898 523.73 263.031 522.175 264.365 520.802L266.594 518.51C266.931 518.163 267.333 517.884 267.776 517.688C269.507 516.925 271.535 517.563 272.517 519.18L273.197 520.299C273.359 520.565 273.544 520.817 273.751 521.051L277.988 525.845C278.453 526.371 279.122 526.673 279.825 526.673C280.47 526.673 281.089 526.419 281.547 525.965L290.627 517C292.779 514.875 295.777 513.84 298.781 514.183L306.172 514.726C308.554 514.726 310.854 513.857 312.64 512.282L312.733 512.2C313.285 511.713 313.782 511.168 314.216 510.573L314.381 510.347C315.91 508.249 318.049 506.672 320.505 505.829L322.26 505.228C323.846 504.684 325.351 503.927 326.734 502.979L327.136 502.703C329.675 500.963 331.822 498.712 333.441 496.095L334.681 494.091L337.849 488.66C340.642 484.351 344.186 480.578 348.313 477.522L355.271 472.369L358.301 469.971C360.722 468.056 362.134 465.138 362.134 462.051C362.134 461.771 362.134 460.418 362.134 459.105C362.134 457.838 361.767 456.598 361.078 455.535L358.763 452.202C358.547 451.89 358.303 451.594 358.038 451.322C356.335 449.571 355.673 447.028 356.326 444.674L356.601 443.969C357.111 442.656 357.985 441.516 359.12 440.683C360.392 439.748 361.929 439.244 363.508 439.244H383.598C390.607 439.244 397.464 437.207 403.337 433.382L405.182 432.18C408.47 430.038 412.194 428.655 416.084 428.134L421.157 427.453C421.921 427.351 422.65 427.07 423.285 426.634C423.694 426.354 424.144 426.137 424.617 425.99L437.781 421.928C439.08 421.528 440.311 420.933 441.432 420.164C443.435 418.791 445.771 417.983 448.195 417.828L452.939 417.523L459.204 417.12C460.655 417.026 462.095 416.797 463.504 416.435L463.965 416.316C467.803 415.329 471.294 413.304 474.057 410.463L478.143 406.61C479.609 405.227 481.452 404.308 483.439 403.967C485.576 403.601 487.541 402.566 489.053 401.011C490.411 399.614 491.747 398.24 492.006 397.973C492.429 397.539 494.294 397.43 495.174 397.43L499.926 396.887L504.149 396.344C507.6 395.989 510.905 394.662 513.652 392.543L518.752 388.421C520.277 387.189 521.903 386.087 523.612 385.128L525.366 384.144C526.353 383.59 527.396 383.143 528.477 382.809L530.165 382.288C531.457 381.89 532.824 381.801 534.156 382.03C534.914 382.159 535.65 382.39 536.346 382.716L537.975 383.477C540.021 384.434 542.293 384.805 544.537 384.548L545.18 384.475C545.629 384.423 546.072 384.323 546.5 384.177L548.193 383.596C548.724 383.414 549.306 383.456 549.804 383.713C550.598 384.121 551.039 384.994 550.896 385.875L550.742 386.825C550.654 387.371 550.433 387.886 550.1 388.326L546.912 392.543L542.689 397.43L542.322 397.996C541.196 399.733 540.733 401.817 541.018 403.867C541.076 404.281 541.164 404.691 541.281 405.094L541.526 405.936C542.293 408.566 543.577 411.016 545.301 413.145L545.328 413.178L549.552 419.152L551.612 421.694C551.965 422.131 552.034 422.733 551.789 423.238C551.706 423.408 551.595 423.557 551.453 423.683C544.874 429.534 532.02 440.873 531.602 440.873C531.262 440.873 528.168 443.449 525.78 445.493C524.764 446.362 523.475 446.846 522.138 446.846H521.807C521.303 446.846 520.803 446.748 520.336 446.556C519.13 446.059 517.755 446.205 516.68 446.942L515.236 447.933C513.23 449.308 511.944 451.508 511.73 453.931L511.54 456.078V456.124C511.54 457.874 511.094 459.596 510.244 461.127C509.704 462.099 509.01 462.977 508.189 463.727L504.677 466.939L500.454 470.197L496.758 472.912L493.59 475.084L491.499 476.877C490.782 477.491 490.113 478.158 489.496 478.872L488.856 479.613C487.115 481.627 485.932 484.062 485.424 486.675C485.237 487.634 485.143 488.609 485.143 489.586V492.461L485.475 495.193C485.599 496.213 485.255 497.234 484.539 497.971C484.241 498.277 484.003 498.638 483.838 499.032L483.013 501.013C482.674 501.827 482.262 502.608 481.783 503.348L481.019 504.527C480.603 505.169 480.097 505.747 479.517 506.244C478.04 507.511 477.076 509.273 476.809 511.2L476.696 512.011V517.984V523.482C476.696 524.522 476.619 525.56 476.465 526.588L475.893 530.417C475.727 531.522 475.853 532.651 476.258 533.692C477.168 536.032 476.629 538.688 474.879 540.489L468.249 547.308C467.237 548.35 465.846 548.937 464.393 548.937H461.914H454.977C454.675 548.937 454.373 548.959 454.074 549.003L453.806 549.042C451.942 549.316 450.335 550.494 449.511 552.188C449.333 552.554 449.195 552.938 449.099 553.333L448.827 554.453C448.404 556.194 448.268 557.993 448.426 559.778L448.716 563.056L449.134 568.225C449.207 569.12 449.171 570.02 449.027 570.907C448.821 572.18 448.395 573.407 447.769 574.535L447.219 575.525C446.81 576.261 446.332 576.958 445.793 577.605L445.549 577.898C444.166 579.557 443.254 581.558 442.908 583.691L442.663 586.465C442.482 588.514 443.12 590.552 444.437 592.133C445.169 593.011 446.085 593.717 447.12 594.201L448.779 594.977C450.483 595.774 452.314 596.263 454.189 596.424L457.691 596.724C461.034 596.543 467.721 596.29 467.721 596.724C467.721 597.134 474.281 596.611 478.131 596.247C478.582 596.204 479.035 596.21 479.484 596.268L481.544 596.533C482.461 596.651 483.24 597.261 483.575 598.122C483.893 598.941 484.614 599.535 485.478 599.692L493.062 601.069L495.079 601.661C498.644 602.709 502.34 603.241 506.056 603.241H508.326C508.708 603.241 509.091 603.269 509.469 603.324L510.876 603.531C511.98 603.693 512.978 604.275 513.663 605.156C514.335 606.019 514.654 607.104 514.558 608.194L514.422 609.729C514.285 611.279 515.361 612.675 516.894 612.938C517.195 612.989 517.485 613.086 517.756 613.226L518.749 613.736C520.587 614.682 522.097 616.161 523.079 617.979L524.211 620.075L526.721 624.871C527.505 626.367 528.011 627.994 528.215 629.671L528.337 630.681C528.402 631.21 528.397 631.746 528.324 632.275L528.18 633.311C528.007 634.553 527.269 635.644 526.181 636.266L524.947 636.971C523.917 637.559 523.473 638.813 523.903 639.919C524.102 640.431 524.471 640.859 524.947 641.131L526.651 642.105C528.151 642.962 529.889 643.306 531.602 643.086L533.186 642.882H537.797C538.241 642.882 538.684 642.837 539.12 642.748L540.078 642.551C542.268 642.1 543.926 640.3 544.196 638.08L544.203 638.019C544.249 637.642 544.249 637.262 544.203 636.885C543.936 634.683 545.245 632.593 547.344 631.874L548.496 631.479L555.887 629.306L563.278 626.048L575.421 619.532L578.727 617.986C584.253 615.403 589.511 612.283 594.426 608.671C596.531 606.867 598.807 605.243 601.349 604.138C601.842 603.924 602.214 603.784 602.346 603.784C603.567 603.784 604.807 604.14 605.249 605.278L605.341 605.512C605.455 605.805 605.513 606.117 605.513 606.432V608.787C605.513 610.151 605.698 611.51 606.064 612.825L606.078 612.876C606.404 614.051 606.868 615.183 607.461 616.249L607.556 616.421C608.303 617.765 608.865 619.203 609.228 620.696L609.737 622.79L610.557 626.166C610.946 627.766 612.73 628.582 614.195 627.828C614.389 627.728 614.571 627.603 614.733 627.457L618.712 623.876L621.432 621.7C622.78 620.621 623.978 619.368 624.995 617.973L626.008 616.585C626.421 616.018 626.913 615.513 627.468 615.085L628.594 614.216C629.993 613.137 631.86 612.886 633.494 613.558L635.348 614.512C636.818 615.268 638.578 615.2 639.985 614.331C640.232 614.178 640.494 614.049 640.765 613.944L642.273 613.362C643.807 612.771 645.401 612.352 647.027 612.113L648.276 611.929C650.317 611.579 652.416 611.986 654.179 613.074L655.403 613.83C657.955 615.405 659.844 617.857 660.716 620.726L661.547 623.462C661.85 624.46 662.232 625.434 662.688 626.373L663.586 628.22C664.288 630.386 664.753 632.622 664.974 634.888L665.17 636.909C665.17 637.995 665.17 640.276 665.17 640.71C665.17 641.253 665.17 643.425 665.17 643.968C665.17 644.257 665.325 644.88 665.481 645.425C665.616 645.898 665.876 646.324 666.219 646.677C666.571 647.038 667.003 647.312 667.479 647.475L667.736 647.563C668.135 647.7 668.551 647.778 668.972 647.795C671.394 647.89 675.343 648.041 675.729 648.041C676.151 648.041 678.017 648.041 678.897 648.041C680.27 648.182 681.18 649.534 680.793 650.86L680.057 653.386C679.987 653.624 679.898 653.855 679.79 654.078L677.841 658.087C676.609 660.078 674.04 664.169 673.617 664.604C673.315 664.915 672.455 666.355 671.732 667.614C671.228 668.492 670.915 669.465 670.793 670.469C670.571 672.293 670.997 674.137 671.996 675.679L672.561 676.551C673.958 678.347 675.048 680.369 675.699 682.549C676.012 683.597 676.257 684.487 676.257 684.696C676.257 685.131 678.017 685.963 678.897 686.325L681.858 688.066C682.345 688.352 682.87 688.569 683.417 688.709C685.519 689.25 687.749 688.623 689.262 687.067L690.511 685.782C692.931 682.583 696.149 680.052 699.894 678.615C700.379 678.428 700.788 678.276 701.07 678.18C701.928 677.886 703.48 677.741 704.775 677.678C705.821 677.627 706.865 677.519 707.886 677.285C710 676.802 711.973 675.833 713.648 674.455L713.74 674.378C715.476 672.95 717.521 671.945 719.713 671.445L725.883 670.034C730.06 668.602 733.892 666.312 737.133 663.312L737.498 662.975L738.752 662.053C740.377 660.859 741.9 659.533 743.305 658.087L744.375 656.987C744.705 656.648 744.889 656.194 744.889 655.721C744.889 655.159 744.628 654.628 744.182 654.284L743.308 653.61C742.958 653.339 742.556 653.143 742.128 653.033L741.751 652.936C741.062 652.759 740.486 652.288 740.175 651.648C739.822 650.921 739.852 650.064 740.273 649.375C740.811 648.495 741.435 647.521 741.721 647.227C742.144 646.792 744.713 644.511 745.945 643.425L746.185 643.219C748.119 641.561 749.725 639.555 750.919 637.304L751.36 636.471C751.97 635.321 752.741 634.263 753.648 633.329L754.201 632.76C755.703 631.215 757.031 629.289 757.031 627.134C757.031 627.048 757.018 626.875 756.994 626.644C756.735 624.092 755.839 621.65 754.547 619.435L753.981 618.466C753.553 617.731 753.036 617.051 752.443 616.441L751.239 615.203C750.882 614.836 750.444 614.558 749.959 614.392C749.405 614.202 748.912 613.866 748.532 613.42L746.967 611.58C745.943 610.376 745.166 608.984 744.679 607.481L744.361 606.499L743.521 601.749C743.377 600.935 743.305 600.11 743.305 599.283V598.978C743.305 596.444 744.038 593.964 745.417 591.837L748.056 587.493L748.255 587.084C749.522 584.478 750.347 581.68 750.696 578.804L751.663 573.831C751.722 573.528 751.735 573.218 751.702 572.911C751.471 570.771 753.439 569.119 755.555 569.514C755.756 569.551 755.903 569.573 755.976 569.573C756.503 569.573 760.727 572.288 761.783 573.374C762.373 573.981 763.513 575.153 764.446 576.113C765.129 576.815 765.933 577.388 766.82 577.802L767.287 578.021C769.743 579.169 772.634 578.85 774.781 577.194C775.264 576.821 775.699 576.388 776.074 575.906L776.173 575.778C777.121 574.56 777.719 573.108 777.905 571.576L777.95 571.209C778.082 570.126 778.394 569.073 778.864 568.088C779.948 565.816 781.317 562.863 781.317 562.513C781.317 562.257 780.703 560.474 780.02 558.572C779.157 556.17 777.625 554.069 775.632 552.474C774.501 551.57 773.238 550.844 771.887 550.323L765.478 547.851L762.955 546.986C759.423 545.775 756.283 543.635 753.864 540.792L750.465 536.946C749.221 535.538 748.236 533.922 747.555 532.172C746.84 530.332 746.473 528.375 746.473 526.401V523.999C746.473 520.737 747.011 517.492 748.152 514.436C748.57 513.316 748.936 512.373 749.112 512.011C749.254 511.72 749.556 511.098 749.929 510.331C751.493 507.113 753.34 504.04 755.448 501.15L757.897 497.232C759.329 494.94 761.841 493.548 764.543 493.548C765.165 493.548 765.783 493.621 766.387 493.767L773.041 495.378C773.966 495.602 774.934 495.578 775.847 495.31C777.313 494.879 778.53 493.85 779.198 492.476L780.789 489.203C781.84 487.04 783.158 485.015 784.727 483.191C785.601 482.176 786.38 481.28 786.596 481.058C786.81 480.837 787.758 479.489 788.847 477.907C790.588 475.378 793.933 474.513 796.663 475.918C796.99 476.086 797.301 476.283 797.592 476.508L798.952 477.557C800.525 478.77 802.456 479.429 804.443 479.429H805.748C807.342 479.429 808.868 478.784 809.98 477.641C810.574 477.03 811.293 476.555 812.088 476.248L814.318 475.388C814.841 475.186 815.383 475.037 815.936 474.942L820.119 474.225C820.92 474.087 821.726 474.441 822.169 475.123C822.382 475.452 822.496 475.836 822.496 476.229V477.762C822.496 478.148 822.527 478.534 822.589 478.916L822.724 479.752C822.923 480.981 823.251 482.186 823.702 483.346L824.08 484.316L824.735 485.664C825.306 486.839 825.182 488.234 824.412 489.29C824.192 489.592 824.021 489.927 823.906 490.283L823.024 493.004L821.524 497.632C821.118 498.883 820.912 500.191 820.912 501.507V502.227C820.912 503.31 821.113 504.383 821.505 505.392L821.681 505.843C821.871 506.332 822.131 506.791 822.453 507.205C823.479 508.524 825.057 509.296 826.728 509.296H829.02C829.246 509.296 829.471 509.312 829.694 509.345L830.335 509.439C831.954 509.677 833.232 510.937 833.494 512.552C833.553 512.913 833.664 513.264 833.824 513.593L834.638 515.269L834.797 515.541C835.712 517.11 837.193 518.269 838.936 518.782C839.587 518.973 840.262 519.07 840.941 519.07H845.128C846.576 519.07 848.018 518.888 849.421 518.527C850.823 518.167 852.265 517.984 853.713 517.984H860.507H867.37L875.817 519.07H879.917C880.687 519.07 881.44 518.846 882.084 518.424L883.409 517.557C885.094 516.454 887.361 517.384 887.786 519.352C887.9 519.878 888.159 520.361 888.534 520.746L890.072 522.328C892.178 524.134 894.462 525.721 896.889 527.065L900.103 528.845L903.386 530.533C904.008 530.854 904.575 531.273 905.063 531.775C906.28 533.026 907.95 533.732 909.695 533.732H912.245H914.626C915.831 533.732 917.012 534.067 918.037 534.7C918.744 535.137 919.53 535.434 920.35 535.574L922.229 535.896C924.351 536.26 926.522 536.189 928.63 535.745C929.651 535.53 930.519 535.361 930.723 535.361C931.025 535.361 932.6 535.361 933.989 535.361C934.952 535.361 935.888 535.042 936.651 534.454C937.263 533.981 937.991 533.68 938.758 533.582L944.531 532.839C945.53 532.711 946.513 532.482 947.466 532.155C948.618 531.76 949.815 531.507 951.028 531.403L954.847 531.076C955.305 531.037 955.756 530.942 956.19 530.793L957.01 530.512C958.082 530.144 959.263 530.276 960.227 530.871C960.95 531.317 961.802 531.508 962.646 531.411L964.923 531.151C965.701 531.062 966.462 530.866 967.185 530.568C968.208 530.147 969.304 529.931 970.41 529.931H972.318C973.416 529.931 974.481 530.305 975.338 530.99L976.425 531.859C977.752 532.922 979.67 532.802 980.855 531.583C981.217 531.211 981.661 530.929 982.152 530.761L983.833 530.185C984.325 530.016 984.83 529.883 985.342 529.787L989.353 529.037C990.036 528.909 990.73 528.845 991.425 528.845H995.051C995.778 528.845 996.473 528.551 996.979 528.03C997.485 527.51 998.181 527.216 998.907 527.216H1000.22C1002.01 527.216 1003.69 526.391 1004.79 524.98L1005.16 524.501C1006.18 523.108 1007.7 522.165 1009.4 521.874L1011.98 521.431C1012.71 521.305 1013.45 521.242 1014.2 521.242H1019.42H1019.84C1022.27 521.242 1024.59 522.224 1026.29 523.965C1026.63 524.321 1027.01 524.648 1027.41 524.943L1028.57 525.796C1029.84 526.73 1031.31 527.354 1032.87 527.621L1033.34 527.701C1033.56 527.74 1033.78 527.796 1033.99 527.869L1036.27 528.648C1036.61 528.766 1036.84 529.088 1036.84 529.451V529.638C1036.84 529.82 1037.01 530.033 1037.16 530.127C1037.7 530.454 1044.92 533.369 1045.55 533.46L1047.11 533.689C1047.29 533.717 1047.48 533.664 1047.62 533.545L1048.8 532.581C1049.59 531.925 1050.61 531.595 1051.64 531.657L1059.01 532.103H1062.35C1064.69 532.103 1067.03 532.376 1069.31 532.918L1071.35 533.403C1072.27 533.622 1073.22 533.732 1074.16 533.732H1074.96C1075.93 533.732 1076.9 533.552 1077.81 533.202L1078.31 533.01C1079.82 532.426 1081.5 532.426 1083.01 533.01L1083.28 533.116C1084.32 533.518 1085.22 534.222 1085.86 535.138C1086.9 536.639 1088.61 537.533 1090.44 537.533H1091.74H1092.86C1095.9 537.533 1098.84 538.567 1101.22 540.464C1101.94 541.043 1102.6 541.695 1103.19 542.411L1105.49 545.203C1107.23 547.322 1109.24 549.206 1111.46 550.808C1112.75 551.732 1114.1 552.558 1115.5 553.281L1116.56 553.824C1118.99 554.899 1121.63 555.454 1124.29 555.454H1138.44C1139.29 555.454 1140.08 555.05 1140.58 554.368C1141.08 553.685 1141.87 553.281 1142.71 553.281H1145.72C1147.36 553.281 1148.97 552.81 1150.35 551.923L1151.53 551.163C1152.14 550.773 1152.62 550.223 1152.94 549.573L1153.19 549.057C1153.4 548.627 1153.74 548.276 1154.17 548.057C1155.03 547.612 1156.09 547.785 1156.77 548.482L1156.8 548.518C1157.63 549.369 1158.97 549.443 1159.88 548.69L1160.16 548.46C1160.64 548.066 1161.24 547.851 1161.86 547.851H1165.13L1170.93 548.394L1180.57 549.456C1183.82 549.814 1187.06 548.646 1189.33 546.303C1189.74 545.889 1190.17 545.507 1190.64 545.164C1194.56 542.286 1199.94 542.488 1203.64 545.652L1204.14 546.08C1205.88 547.573 1208.1 548.394 1210.39 548.394C1212.85 548.394 1215.22 547.449 1217.01 545.753L1217.92 544.882C1219.96 542.953 1222.65 541.878 1225.45 541.878C1227.43 541.878 1229.38 541.339 1231.08 540.32L1233.78 538.696C1234.45 538.297 1234.95 537.669 1235.19 536.931C1235.29 536.61 1235.34 536.276 1235.34 535.939V532.103L1234.82 525.587L1233.76 516.355C1233.76 514.211 1233.27 512.095 1232.33 510.166L1232.18 509.839L1228.48 501.693L1227.94 500.714C1226.93 498.905 1225.25 497.564 1223.27 496.981C1222.87 496.864 1222.47 496.779 1222.06 496.727L1220.8 496.565C1219.31 496.373 1217.98 495.535 1217.16 494.274C1216.62 493.445 1216.34 492.479 1216.34 491.492V490.527C1216.34 489.65 1216.2 488.778 1215.93 487.944L1215.47 486.514C1215.34 486.136 1215.17 485.776 1214.96 485.443C1214.48 484.707 1214.23 483.849 1214.23 482.972V482.086C1214.23 481.404 1214.32 480.725 1214.5 480.067L1214.6 479.705C1215.05 478.097 1215.1 476.404 1214.74 474.773L1214.23 472.369C1213.87 471.102 1213.17 468.133 1213.17 466.396C1213.17 464.658 1213.17 462.775 1213.17 462.051C1213.17 460.784 1213.17 458.142 1213.17 457.707C1213.17 456.132 1211.3 455.257 1209.81 454.746L1208.95 454.449L1207.35 454.039C1205.62 453.595 1204.03 452.74 1202.71 451.548C1201.26 450.247 1200.17 448.59 1199.61 446.729C1199.23 445.494 1198.92 444.37 1198.92 444.131C1198.92 443.817 1198.55 442.537 1198.21 441.442C1197.99 440.735 1197.47 440.168 1196.78 439.886C1195.84 439.498 1195.22 438.577 1195.22 437.556V436.82C1195.22 436.626 1195.2 436.433 1195.17 436.241L1194.96 434.9C1194.78 433.815 1194.69 432.719 1194.69 431.62V428.989C1194.69 427.505 1194.51 426.025 1194.16 424.582L1193.86 423.313C1193.71 422.713 1193.64 422.098 1193.64 421.48V420.902C1193.64 420.108 1193.82 419.323 1194.16 418.609C1194.51 417.894 1194.69 417.11 1194.69 416.315V411.006V409.159C1194.69 407.137 1194.5 405.119 1194.11 403.134L1193.91 402.091C1193.73 401.157 1193.47 400.24 1193.15 399.346C1192.42 397.36 1192.05 395.263 1192.05 393.149V392V388.868C1192.05 385.898 1191.7 382.939 1191 380.053L1190.31 377.939C1189.37 375.02 1188 372.256 1186.24 369.735L1182.02 364.305L1180.63 362.152C1179.47 360.367 1178.85 358.286 1178.85 356.159C1178.85 355.291 1178.15 353.263 1177.8 352.358C1177.1 349.849 1176.9 347.226 1177.22 344.641L1177.27 344.213L1177.71 341.495C1177.77 341.137 1177.76 340.773 1177.69 340.417C1177.44 339.117 1176.38 338.125 1175.07 337.956L1173.57 337.763C1173.22 337.719 1172.88 337.638 1172.55 337.525C1170.89 336.955 1169.6 335.598 1169.13 333.905L1169.04 333.59C1168.9 333.072 1168.82 332.536 1168.82 331.998V331.218C1168.82 330.47 1168.75 329.724 1168.61 328.99L1168.3 327.379C1167.94 325.573 1167.77 323.737 1167.77 321.897V320.862C1167.77 318.334 1167.52 315.811 1167.04 313.33L1166.71 311.631C1166.01 309.458 1164.6 305.006 1164.6 304.571C1164.6 301.383 1161.43 298.986 1161.43 295.798V294.796V291.505C1161.43 289.013 1161.88 286.541 1162.75 284.207L1163.91 281.11C1164.02 280.824 1164.07 280.521 1164.07 280.216C1164.07 279.181 1163.45 278.248 1162.49 277.855L1162.14 277.713C1161.68 277.52 1161.26 277.216 1160.94 276.827L1160.14 275.875C1158.93 274.417 1158.26 272.579 1158.26 270.68V269.274V264.251C1158.26 263 1157.57 261.855 1156.45 261.283C1155.59 260.84 1154.97 260.044 1154.74 259.103L1154.39 257.672C1154.16 256.747 1154.27 255.772 1154.68 254.916C1154.96 254.358 1155.1 253.747 1155.1 253.127V250.956C1155.1 247.71 1153.93 244.571 1151.81 242.115L1151.64 241.92C1151.13 241.331 1150.67 240.702 1150.27 240.038L1149.67 239.059C1148.73 237.51 1148.23 235.734 1148.23 233.922C1148.23 232.526 1147.94 231.146 1147.37 229.872L1146.11 227.066C1145.41 225.523 1144.89 223.911 1144.53 222.258L1144.01 219.857L1143.5 216.716C1143.15 214.541 1142.02 212.569 1140.31 211.169L1140.2 211.082C1137.9 209.392 1136.31 206.857 1135.76 204.055C1135.63 203.375 1135.56 202.675 1135.56 201.982V200.623C1135.56 198.68 1134.81 196.814 1133.45 195.421L1132.03 193.6C1131.57 193.005 1131.17 192.364 1130.84 191.687L1130.22 190.411C1129.92 189.777 1129.76 189.081 1129.76 188.376C1129.76 188.006 1129.71 187.636 1129.62 187.277L1129.12 185.207C1128.85 184.073 1128.27 183.033 1127.46 182.195C1126.23 180.93 1124.52 180.216 1122.76 180.216C1121.15 180.216 1119.59 179.63 1118.38 178.568L1117.76 178.018C1116.96 177.317 1116.3 176.478 1115.81 175.541L1114.2 172.514C1113.66 171.498 1113.25 170.419 1112.98 169.302L1112.25 166.294C1111.96 165.114 1112.1 163.87 1112.63 162.778C1113.12 161.76 1113.27 160.609 1113.06 159.498L1112.05 154.323C1111.89 153.502 1111.5 152.745 1110.91 152.145C1110.13 151.341 1109.69 150.265 1109.69 149.145V148.693C1109.69 147.647 1109.39 146.624 1108.82 145.746L1107.58 143.832L1103.36 138.402L1099.47 133.512C1098.9 132.794 1098.44 131.994 1098.11 131.139C1097.09 128.525 1094.93 126.524 1092.24 125.712L1089.69 124.939C1088.25 124.504 1086.89 123.857 1085.67 122.979C1084.03 121.793 1082.07 120.304 1081.18 119.396C1079.92 118.093 1078.19 115.595 1077.49 114.509L1075.05 109.905C1074.6 109.062 1073.73 108.535 1072.77 108.535C1072.4 108.535 1072.04 108.456 1071.7 108.302L1067.46 106.363L1060.6 103.105L1054.26 100.933C1050.05 99.8493 1045.95 98.3488 1042.04 96.4536L1038.95 94.9593L1037.1 94.0091C1035.61 93.2422 1033.84 93.2422 1032.35 94.0091C1031.17 94.6191 1029.79 94.7495 1028.51 94.3735L1023.11 92.7871L1011.86 90.7742C1011.27 90.6683 1010.67 90.615 1010.07 90.615C1008.57 90.615 1007.1 90.2877 1005.75 89.6562L1004.18 88.9239C1002.73 88.2443 1001.19 87.7624 999.611 87.4912L996.531 86.9632C993.845 86.5027 991.211 85.7767 988.668 84.7958L988.51 84.7348C985.542 83.5901 982.458 82.7671 979.305 82.3459C977.57 82.1139 976.028 81.9264 975.598 81.9264C974.995 81.9264 972.206 81.9264 969.763 81.9264C968.041 81.9264 966.34 81.556 964.775 80.8403C963.21 80.1247 961.508 79.7543 959.787 79.7543H955.965C952.196 79.7543 948.463 79.0164 944.977 77.5821L938.642 75.41L932.835 73.7809L927.245 72.8226C926.749 72.7376 926.263 72.6036 925.794 72.4227L924.117 71.7759C922.957 71.3284 921.655 71.4491 920.597 72.1021C919.969 72.4896 919.246 72.6948 918.508 72.6948H917.641C916.865 72.6948 916.094 72.5664 915.36 72.3146L914.77 72.1124C912.778 71.4296 910.631 71.3451 908.592 71.8694L908.114 71.9922C906.321 72.4534 904.671 73.3534 903.312 74.6113C901.249 76.5212 898.541 77.5821 895.729 77.5821H895.092C892.51 77.5821 889.988 78.3636 887.859 79.8239L886.319 80.8795C885.304 81.5758 884.222 82.1707 883.091 82.6557L879.786 84.072C878.904 84.4502 878.072 84.9383 877.312 85.5248C875.316 87.0646 872.868 87.8998 870.347 87.8998C866.729 87.8998 860.452 87.8998 850.476 87.8998ZM850.476 87.8998H870.538" stroke="white" stroke-width="2"/>
<path d="M498.87 129.714V139.488V155.779V181.845V213.884L500.882 231.687C501.297 235.356 502.362 238.922 504.028 242.217L506.513 247.133C507.724 249.529 509.632 251.502 511.985 252.793C514.764 254.317 516.908 256.784 518.029 259.749L518.164 260.107C519.342 263.224 519.398 266.655 518.32 269.809L513.124 285.022L508.373 300.77C505.929 307.233 504.677 314.085 504.677 320.994V336.067" stroke="white" stroke-width="2"/>
<path d="M461.914 17.3052L489.895 64.5493L492.383 69.6684C492.835 70.5969 493.391 71.4707 494.04 72.2729C496.746 75.6119 497.705 80.0367 496.627 84.1965L494.118 93.8732L492.147 108.069C492.054 108.739 492.041 109.419 492.11 110.092C492.62 115.071 497.32 118.52 502.223 117.511L514.534 114.979C516.053 114.666 517.529 114.177 518.933 113.52L523.848 111.223C526.899 109.796 529.81 108.088 532.543 106.12C536.82 103.04 540.624 99.3521 543.834 95.1723L558.178 76.4961L575.63 52.8373C576.527 51.6214 577.047 50.1692 577.127 48.6605C577.541 40.8587 567.437 37.4433 563.032 43.8959L561.166 46.6291" stroke="white" stroke-width="2"/>
<path d="M492.006 106.906C488.001 106.906 484.536 109.714 483.691 113.629C483.266 115.595 483.548 117.656 484.491 119.433L485.18 120.733C485.848 121.993 486.825 123.064 488.018 123.845C490.494 125.465 493.636 125.673 496.303 124.393L497.221 123.952C498.987 123.105 500.473 121.769 501.504 120.103L503.621 116.681" stroke="white" stroke-width="2"/>
<path d="M175.244 520.156L181.731 514.04C185.836 510.169 189.423 505.784 192.404 500.993C195.034 496.767 197.173 492.255 198.78 487.544L206.92 463.681L216.951 438.701L222.413 423.719C224.022 419.304 224.439 414.543 223.621 409.916C223.051 406.688 223.079 403.383 223.705 400.165L224.252 397.349C225.693 389.937 229.098 383.047 234.111 377.4L237.54 373.537L261.298 351.272L281.887 334.438L313.035 309.458L341.234 288.741C342.143 288.073 343.113 287.494 344.131 287.01C351.338 283.589 355.377 275.781 354.006 267.922L353.811 266.805C353.048 262.432 353.821 257.928 355.998 254.059L364.245 239.407L377.444 220.401L383.779 210.626L390.642 200.308L405.425 178.587L426.014 149.263L432.323 138.745C437.982 129.312 447.793 123.135 458.746 122.111L474.817 121.241C489.146 120.465 502.332 129.041 507.434 142.453C508.059 144.094 508.813 145.683 509.691 147.204L526.85 176.958L542.161 204.652L543.812 206.881C548.258 212.884 554.258 217.558 561.166 220.401L596.01 234.519L633.494 249.181L652.795 258.676C664.111 264.243 676.377 267.619 688.947 268.627L703.211 269.77C708.112 270.163 712.978 270.916 717.769 272.025L739.744 277.111C748.414 279.118 757.314 279.958 766.207 279.609L808.241 277.962L823.274 279.087C832.564 279.782 841.712 281.772 850.452 284.999L857.868 287.737L885.539 296.023C894.846 298.811 904.51 300.227 914.226 300.227H932.051C934.681 300.227 937.306 300.443 939.901 300.873C948.073 302.229 955.755 305.679 962.198 310.886L962.366 311.022C965.543 313.59 969.031 315.748 972.746 317.447L976.744 319.275C982.995 322.132 989.575 324.208 996.334 325.456L1006.75 327.379L1043.7 333.895L1069.04 338.782C1073.96 339.865 1078.99 340.411 1084.02 340.411C1089.49 340.411 1094.96 339.768 1100.28 338.496L1113 335.453C1114.31 335.139 1115.59 334.691 1116.81 334.116L1145.82 320.44C1152.56 317.263 1151.65 307.402 1144.44 305.506C1143.46 305.247 1142.53 304.802 1141.72 304.195L1137.26 300.886C1134.73 299.006 1131.97 297.46 1129.05 296.286L1119.88 292.607C1114.56 290.473 1109.78 287.19 1105.88 282.995L1102.37 279.218C1100.93 277.674 1099.84 275.844 1099.17 273.847C1097.23 268.124 1092.03 264.136 1086 263.754L1062.48 262.26C1056.35 261.871 1050.34 260.357 1044.76 257.794L1023.64 248.095L1009.74 241.22C1000.76 236.78 991.143 233.769 981.236 232.296C962.414 229.497 944.845 221.181 930.749 208.399L921.633 200.133C915.4 194.48 908.477 189.637 901.03 185.718L866.843 167.726L818.272 146.005L774.981 125.912L731.436 106.205C725.473 103.506 720.687 98.7396 717.964 92.7871" stroke="white" stroke-width="2"/>
<path d="M322.538 443.045L340.332 431.332C345.723 427.783 352.508 427.091 358.504 429.478C362.89 431.224 367.756 431.343 372.221 429.812L380.51 426.97C384.99 425.434 388.734 422.278 391.007 418.122C394.632 411.493 401.845 407.645 409.37 408.325L424.793 409.72C437.588 410.877 450.221 406.199 459.177 396.987L475.64 380.053L489.45 362.835C491.852 359.841 493.935 356.605 495.666 353.18L502.834 339.001C505.351 334.023 509.864 330.347 515.248 328.89C516.294 328.607 517.361 328.411 518.439 328.303L521.126 328.036C529.061 327.246 537.07 328.281 544.544 331.061L545.374 331.37C553.673 334.458 561.123 339.464 567.116 345.981L571.553 350.806C574.815 354.353 577.504 358.388 579.523 362.764L588.448 382.106C590.176 385.852 593.839 388.331 597.959 388.543C600.458 388.672 602.84 389.64 604.719 391.292L630.854 414.264L634.06 417.562C637.226 420.818 642.072 421.813 646.272 420.085C646.901 419.826 647.555 419.626 648.221 419.489C652.428 418.623 656.751 420.315 659.252 423.807L660.737 425.88C661.92 427.531 663.43 428.921 665.173 429.963L703.574 452.928C706.474 454.663 709.523 456.136 712.684 457.332L735.505 465.962C740.651 467.908 746.446 466.934 750.674 463.414L751.429 462.785C753.684 460.908 756.526 459.879 759.461 459.879C761.673 459.879 763.846 459.294 765.76 458.184L772.963 454.005C779.81 450.032 785.443 444.266 789.255 437.329L792.252 431.874C795.501 425.962 797.822 419.586 799.135 412.969L802.434 396.344L803.204 393.372C804.041 390.144 803.195 386.711 800.954 384.24C798.6 381.646 797.793 377.999 798.833 374.654L800.793 368.354C804.157 357.534 815.171 346.49 816.152 335.203C816.437 331.925 816.749 328.188 817.343 324.103C817.658 321.944 818.267 319.838 819.062 317.806L833.582 280.677" stroke="white" stroke-width="2"/>
<path d="M442.908 583.148H450.549C454.212 583.148 457.834 583.926 461.175 585.429C468.618 588.779 477.205 588.422 484.345 584.468L500.453 575.546L520.716 561.543C529.226 555.662 534.453 546.102 534.812 535.764L535.168 525.502C535.251 523.128 536.3 520.891 538.074 519.311C541.087 516.624 545.552 516.364 548.857 518.682L552.234 521.05C553.943 522.249 555.901 523.048 557.961 523.387L561.761 524.012C565.896 524.693 569.849 526.21 573.378 528.472L596.156 543.073C601.677 546.612 607.532 549.599 613.638 551.992L628.203 557.699C634.529 560.178 641.092 562.006 647.79 563.154L650.388 563.599L660.869 566.294C668.362 568.221 676.205 564.803 679.895 558.003L681.154 555.683C684.16 550.144 690.589 547.409 696.664 549.086L702.201 550.614C705.494 551.522 708.956 549.881 710.337 546.756C710.494 546.401 710.621 546.032 710.716 545.655L712.87 537.108C713.795 533.438 714.06 529.634 713.654 525.872L713.542 524.838C712.981 519.646 713.87 514.401 716.11 509.684L721.258 498.84C722.793 495.608 726.052 493.548 729.63 493.548C733.155 493.548 736.375 491.548 737.938 488.389L750.696 462.594" stroke="white" stroke-width="2"/>
<path d="M861.035 443.588L856.337 452.648C853.874 457.399 852.588 462.673 852.588 468.025C852.588 474.868 851.606 481.675 849.672 488.24L847.826 494.507C847.482 495.674 847.01 496.799 846.42 497.863C844.285 501.705 843.769 506.24 844.986 510.463L847.308 518.527" stroke="white" stroke-width="2"/>
<path d="M458.746 122.111C467.338 118.744 476.294 116.465 480.045 115.667C480.275 115.618 480.51 115.595 480.746 115.595C482.133 115.595 483.388 116.419 483.938 117.693L484.087 118.038C484.728 119.522 486.189 120.482 487.805 120.482H488.775C490.481 120.482 492.091 121.269 493.138 122.616L493.59 123.197L494.977 125.099C495.719 126.117 497.301 125.864 497.689 124.666C498.117 123.346 499.936 123.219 500.543 124.468L504.677 132.972L505.492 134.545C507.761 138.921 509.703 143.458 511.303 148.12L512.068 150.349L513.652 153.607" stroke="white" stroke-width="2"/>
<path d="M484.615 115.051H490.651C491.884 115.051 493.094 115.381 494.157 116.006C495.499 116.794 496.536 118.013 497.1 119.463L498.341 122.654" stroke="white" stroke-width="2"/>
<path d="M1072.74 108.535L1071.96 110.143C1069.4 115.393 1068.93 121.413 1070.63 126.998M1070.63 126.998C1071.66 125.52 1073.12 124.393 1074.81 123.769L1082.24 121.025M1070.63 126.998C1072.71 130.93 1075.66 134.34 1079.24 136.975L1081.19 138.402L1082.86 139.941C1088.38 145.019 1092.83 151.141 1095.97 157.951L1103.81 178.132C1104.21 179.156 1104.5 180.221 1104.66 181.308C1105.18 184.808 1106.94 188.005 1109.62 190.318L1114.53 194.56C1117.24 196.899 1119.25 199.936 1120.35 203.339C1120.99 205.289 1121.31 207.325 1121.31 209.375V209.509C1121.31 212.042 1121.78 214.552 1122.7 216.913L1124.28 220.973C1125.81 224.915 1127.91 228.613 1130.5 231.951L1132.92 235.062L1139.38 244.503C1141.74 247.949 1143.38 251.832 1144.22 255.922C1144.78 258.657 1144.97 261.453 1144.79 264.239L1144.45 269.473C1144.16 274.007 1143.02 278.446 1141.1 282.563L1138.59 287.957C1137.99 289.243 1137.67 290.644 1137.67 292.063C1137.67 295.447 1139.44 298.587 1142.32 300.351L1147.15 303.296C1151.29 305.829 1152.7 311.183 1150.34 315.432" stroke="white" stroke-width="2"/>
<path d="M786.068 443.045L803.49 444.131L813.306 445.176C816.931 445.562 820.596 445.206 824.079 444.131L836.59 441.833C838.101 441.556 839.635 441.416 841.171 441.416H844.09C846.205 441.416 848.306 441.929 850.187 442.896C855.349 445.551 861.706 444.527 865.753 440.365C866.82 439.267 868.084 438.359 869.464 437.696C873.121 435.941 877.409 435.99 881.017 437.845C882.12 438.413 883.299 438.819 884.518 439.051L895.208 441.087C896.357 441.306 897.482 441.633 898.57 442.063C901.979 443.412 904.914 445.738 907.005 448.75L907.561 449.55C910.258 453.435 914.145 456.338 918.636 457.823L919.827 458.216C924.194 459.66 928.87 459.9 933.363 458.91L939.233 457.616C945.462 456.243 951.351 453.628 956.547 449.928L962.399 445.761L985.101 431.099C992.397 426.452 998.551 420.218 1003.1 412.862L1003.47 412.265C1006 408.182 1009 404.414 1012.42 401.041L1020.47 393.086L1033.67 382.225L1046.34 371.365L1064.29 357.789L1080.66 345.299L1089.1 340.412" stroke="white" stroke-width="2"/>
<path d="M1117.08 333.352L1127.61 339.049C1129.8 340.233 1132.12 341.168 1134.51 341.836L1135.42 342.087C1137.72 342.728 1140.1 343.053 1142.49 343.053H1144.04C1145.56 343.053 1147.07 342.832 1148.53 342.398L1148.73 342.337C1152 341.362 1154.84 339.307 1156.79 336.509C1157.62 335.324 1158.27 334.027 1158.73 332.657L1159.33 330.835M1159.33 330.835L1161.96 323.578M1159.33 330.835C1162.49 330.835 1165.41 332.502 1167.01 335.218L1167.65 336.31C1168.33 337.463 1168.8 338.731 1169.03 340.05L1169.74 344.164L1171.02 348.431C1171.94 351.502 1173.17 354.472 1174.69 357.294L1175.65 359.068C1176.67 360.974 1177.91 362.76 1179.33 364.392C1181.44 366.811 1183.93 368.866 1186.7 370.475L1187.3 370.822" stroke="white" stroke-width="2"/>
<path d="M1162.49 299.141C1161.96 299.688 1161.26 301.411 1160.68 303.064C1160.1 304.74 1159.12 306.26 1157.75 307.388C1157.39 307.682 1157.01 307.947 1156.61 308.181L1156.44 308.278C1154.53 309.402 1153 311.065 1152.03 313.06L1151.4 314.346L1151.17 315.052C1150.67 316.597 1151.15 318.292 1152.38 319.35C1153.11 319.975 1154.04 320.319 1155 320.319H1156.32C1157.89 320.319 1159.37 321.015 1160.38 322.22L1160.95 322.905C1161.59 323.675 1162.54 324.12 1163.54 324.12H1164.44C1165.19 324.12 1165.86 323.697 1166.18 323.031C1166.51 322.368 1166.42 321.579 1165.97 320.997L1165.73 320.681C1165.05 319.814 1165 318.615 1165.6 317.694L1166.71 315.975L1167.77 314.346" stroke="white" stroke-width="2"/>
<path d="M1148.23 343.127L1145.48 352.869C1144.18 357.501 1144.21 362.409 1145.59 367.02L1146.13 369.101C1147.53 374.583 1148.46 380.173 1148.92 385.812L1149.29 390.371V401.232V415.35L1150.34 422.953V424.891C1150.34 429.377 1150.86 433.848 1151.87 438.218L1152.44 440.675C1152.8 442.252 1153.3 443.797 1153.92 445.291L1154.11 445.753C1155.46 448.984 1156.15 452.45 1156.15 455.95C1156.15 458.911 1156.65 461.85 1157.62 464.647L1158.79 468.025L1161.96 475.627L1170.41 490.832L1177.8 503.322L1183.6 514.726L1186.3 520.962C1187.32 523.315 1188.09 525.765 1188.61 528.274C1189.14 530.82 1189.41 533.414 1189.41 536.014V546.222" stroke="white" stroke-width="2"/>
<path d="M360.55 127.542H392.226H442.908" stroke="white" stroke-width="2"/>
<path d="M181.579 400.688L182.639 402.357C187.438 409.906 196.283 413.857 205.107 412.393C206.313 412.193 207.534 412.092 208.757 412.092H214.857C219.751 412.092 224.624 412.735 229.351 414.003C232.691 414.899 235.941 416.104 239.059 417.6L250.211 422.953L273.968 435.986L283.234 439.48C287.052 440.92 291.355 439.456 293.501 435.986L293.896 435.093C294.811 433.023 297.705 432.908 298.781 434.9C300.083 438.247 303.109 440.615 306.672 441.073L312.142 441.776C313.085 441.898 314.006 442.149 314.881 442.524L315.283 442.696C318.169 443.933 321.481 443.657 324.122 441.959" stroke="white" stroke-width="2"/>
<path d="M464.554 548.938L464.424 550.007C463.459 557.951 463.502 565.985 464.554 573.917V586.95" stroke="white" stroke-width="2"/>
<path d="M985.101 323.034L993.548 351.272L1001.47 367.02L1009.91 383.311L1014.67 398.516" stroke="white" stroke-width="2"/>
<path d="M667.282 566.314L676.785 578.804C679.919 582.028 683.682 584.574 687.84 586.285L702.654 592.38M702.654 592.38V597.81M702.654 592.38L703.975 590.05C705.55 587.273 706.732 584.29 707.486 581.187C708.134 578.522 708.461 575.789 708.461 573.046V571.202V563.599V549.48" stroke="white" stroke-width="2"/>
<path d="M703.182 601.069L700.545 601.973C698.113 602.806 695.913 604.201 694.121 606.044C692.439 607.774 691.161 609.855 690.378 612.137L688.399 617.903L686.288 627.134L684.704 639.081C683.65 644.499 683.12 650.005 683.12 655.525V659.173V670.034V673.741C683.12 675.968 683.386 678.187 683.912 680.352C684.438 682.516 684.704 684.736 684.704 686.963V688.497" stroke="white" stroke-width="2"/>
<path d="M1001.47 413.721L1007.31 418.228C1010.44 420.641 1013.9 422.589 1017.58 424.011L1022.92 426.068C1024.09 426.522 1025.34 426.754 1026.6 426.754H1028.32C1033.02 426.754 1036.84 430.569 1036.84 435.276C1036.84 437.145 1037.45 438.963 1038.59 440.449L1042.65 445.761L1042.93 446.175C1046.24 450.941 1050.24 455.193 1054.79 458.793L1056.78 460.12C1061.41 463.2 1065.54 466.964 1069.04 471.283C1072.14 475.885 1073.79 481.305 1073.79 486.852V488.66C1073.79 493.351 1074.33 498.027 1075.39 502.597L1076.43 507.124L1079.6 517.441L1082.59 524.744C1083.41 526.735 1083.83 528.866 1083.83 531.017" stroke="white" stroke-width="2"/>
<path d="M1214.75 478.885L1205.78 483.23L1197.86 488.117L1193.79 490.906C1191.27 492.637 1189.24 494.995 1187.9 497.749C1187.5 498.567 1187.04 499.353 1186.52 500.1L1184.66 502.779L1180.44 507.666" stroke="white" stroke-width="2"/>
<path d="M1139.26 304.028L1138.43 304.726C1135.21 307.432 1131.15 308.915 1126.95 308.915H1123.93C1123.59 308.915 1123.26 308.85 1122.95 308.722C1120.64 307.771 1118.47 310.353 1119.8 312.467L1121.45 315.064C1122.03 315.982 1122.15 317.116 1121.79 318.14L1120.71 321.211C1120.4 322.061 1119.99 322.867 1119.48 323.61L1111.28 335.524" stroke="white" stroke-width="2"/>
<path d="M641.413 252.44C643.501 247.786 644.581 242.744 644.581 237.643V231.805V218.229V216.102C644.581 208.976 646.594 201.996 650.388 195.964L657.251 185.104L661.298 179.961C664.577 175.796 667.463 171.337 669.922 166.64L674.623 158.727C675.358 157.489 675.967 156.18 676.439 154.82L676.751 153.921C677.81 150.872 679.672 148.166 682.141 146.088C683.49 144.953 685 144.023 686.621 143.328L686.835 143.236C689.26 142.197 691.872 141.661 694.512 141.661H700.542H702.862C706.721 141.661 710.357 139.852 712.685 136.773L719.02 128.085L724.827 119.396C726.478 117.02 726.838 113.978 725.79 111.282L719.02 93.8735" stroke="white" stroke-width="2"/>
<path d="M718.492 82.4697C718.492 89.9952 720.007 97.4436 722.947 104.371L747.528 162.296L747.903 163.683C749.406 169.25 750.168 174.992 750.168 180.759V184.385C750.168 187.746 750.612 191.091 751.488 194.335L751.677 195.037C752.428 197.815 752.808 200.68 752.808 203.558V207.758C752.808 209.648 753.212 211.517 753.993 213.238C755.587 216.752 758.631 219.397 762.333 220.485L763.121 220.717C766.032 221.572 769.134 221.528 772.02 220.591L774.969 219.633C776.726 219.062 778.562 218.772 780.409 218.772H782.957C784.304 218.772 785.629 219.118 786.804 219.777C789.284 221.168 790.819 223.79 790.819 226.634V226.708C790.819 227.918 791.094 229.112 791.623 230.2L792.403 231.805C793.445 233.949 793.987 236.302 793.987 238.686V239.353C793.987 241.896 794.507 244.413 795.516 246.747L797.827 252.095C798.082 252.685 798.401 253.245 798.78 253.765C800.413 256.003 803.017 257.327 805.787 257.327H806.027C807.482 257.327 808.916 257.674 810.21 258.34L812.465 259.499C817.337 262.721 821.469 266.94 824.589 271.877L826.719 275.247L831.47 281.221" stroke="white" stroke-width="2"/>
<path d="M567.502 525.587L573.309 503.322L575.442 489.719C575.78 487.569 575.949 485.395 575.949 483.218V477.982C575.949 476.425 575.67 474.881 575.124 473.422C573.959 470.305 574.031 466.86 575.327 463.794L578.589 456.078L581.671 450.794C584.888 445.279 587.57 439.468 589.679 433.442L591.259 428.926L593.324 422.024C594.755 417.239 595.483 412.27 595.483 407.275V406.467C595.483 403.707 595.217 400.954 594.691 398.245C594.164 395.536 593.899 392.783 593.899 390.023V387.656" stroke="white" stroke-width="2"/>
<path d="M1093.33 265.473H1103.95C1105.31 265.473 1106.66 265.677 1107.96 266.078C1110.14 266.75 1112.11 267.959 1113.7 269.593L1116.56 272.532L1120.36 276.445C1121.69 277.81 1123.23 278.95 1124.92 279.82C1127.4 281.098 1130.16 281.764 1132.95 281.764H1138.57C1140.02 281.764 1141.41 281.176 1142.43 280.135L1136.03 286.275C1135.03 287.238 1134.25 288.409 1133.74 289.705C1132.88 291.932 1132.88 294.403 1133.74 296.631L1134.51 298.598" stroke="white" stroke-width="2"/>
<path d="M760.556 476.708C766.907 476.708 772.056 471.559 772.056 465.208C772.056 458.857 766.907 453.708 760.556 453.708C754.205 453.708 749.056 458.857 749.056 465.208C749.056 471.559 754.205 476.708 760.556 476.708Z" fill="white" stroke="white" stroke-width="2"/>
<path d="M603.23 408.94C609.581 408.94 614.73 403.791 614.73 397.44C614.73 391.089 609.581 385.94 603.23 385.94C596.879 385.94 591.73 391.089 591.73 397.44C591.73 403.791 596.879 408.94 603.23 408.94Z" fill="white" stroke="white" stroke-width="2"/>
<path d="M576.833 546.871C583.184 546.871 588.333 541.722 588.333 535.371C588.333 529.02 583.184 523.871 576.833 523.871C570.482 523.871 565.333 529.02 565.333 535.371C565.333 541.722 570.482 546.871 576.833 546.871Z" fill="white" stroke="white" stroke-width="2"/>
<path d="M981.234 245.374C987.585 245.374 992.734 240.225 992.734 233.874C992.734 227.523 987.585 222.374 981.234 222.374C974.883 222.374 969.734 227.523 969.734 233.874C969.734 240.225 974.883 245.374 981.234 245.374Z" fill="white" stroke="white" stroke-width="2"/>
<path d="M1149.4 375.272C1155.75 375.272 1160.9 370.123 1160.9 363.772C1160.9 357.421 1155.75 352.272 1149.4 352.272C1143.05 352.272 1137.9 357.421 1137.9 363.772C1137.9 370.123 1143.05 375.272 1149.4 375.272Z" fill="white" stroke="white" stroke-width="2"/>
<path d="M358.49 290.559C364.841 290.559 369.99 285.41 369.99 279.059C369.99 272.708 364.841 267.559 358.49 267.559C352.139 267.559 346.99 272.708 346.99 279.059C346.99 285.41 352.139 290.559 358.49 290.559Z" fill="white" stroke="white" stroke-width="2"/>
<path d="M490 132C496.351 132 501.5 126.851 501.5 120.5C501.5 114.149 496.351 109 490 109C483.649 109 478.5 114.149 478.5 120.5C478.5 126.851 483.649 132 490 132Z" fill="white" stroke="white" stroke-width="2"/>
<path d="M229 429C235.351 429 240.5 423.851 240.5 417.5C240.5 411.149 235.351 406 229 406C222.649 406 217.5 411.149 217.5 417.5C217.5 423.851 222.649 429 229 429Z" fill="white" stroke="white" stroke-width="2"/>
<path d="M917.882 471.932C924.233 471.932 929.382 466.783 929.382 460.432C929.382 454.081 924.233 448.932 917.882 448.932C911.531 448.932 906.382 454.081 906.382 460.432C906.382 466.783 911.531 471.932 917.882 471.932Z" fill="white" stroke="white" stroke-width="2"/>
<path d="M1100.55 283.128C1106.9 283.128 1112.05 277.979 1112.05 271.628C1112.05 265.277 1106.9 260.128 1100.55 260.128C1094.2 260.128 1089.05 265.277 1089.05 271.628C1089.05 277.979 1094.2 283.128 1100.55 283.128Z" fill="white" stroke="white" stroke-width="2"/>
<path d="M841.859 296.333C848.21 296.333 853.359 291.184 853.359 284.833C853.359 278.482 848.21 273.333 841.859 273.333C835.508 273.333 830.359 278.482 830.359 284.833C830.359 291.184 835.508 296.333 841.859 296.333Z" fill="white" stroke="white" stroke-width="2"/>
<path d="M1195.69 513.461C1202.04 513.461 1207.19 508.312 1207.19 501.961C1207.19 495.61 1202.04 490.461 1195.69 490.461C1189.34 490.461 1184.19 495.61 1184.19 501.961C1184.19 508.312 1189.34 513.461 1195.69 513.461Z" fill="white" stroke="white" stroke-width="2"/>
<path d="M726.768 112.443C733.119 112.443 738.268 107.294 738.268 100.943C738.268 94.5917 733.119 89.443 726.768 89.443C720.417 89.443 715.268 94.5917 715.268 100.943C715.268 107.294 720.417 112.443 726.768 112.443Z" fill="white" stroke="white" stroke-width="2"/>
<path d="M662 201C668.351 201 673.5 195.851 673.5 189.5C673.5 183.149 668.351 178 662 178C655.649 178 650.5 183.149 650.5 189.5C650.5 195.851 655.649 201 662 201Z" fill="white" stroke="white" stroke-width="2"/>
<path d="M1092.1 547.958C1098.45 547.958 1103.6 542.809 1103.6 536.458C1103.6 530.107 1098.45 524.958 1092.1 524.958C1085.75 524.958 1080.6 530.107 1080.6 536.458C1080.6 542.809 1085.75 547.958 1092.1 547.958Z" fill="white" stroke="white" stroke-width="2"/>
<path d="M706 607C712.351 607 717.5 601.851 717.5 595.5C717.5 589.149 712.351 584 706 584C699.649 584 694.5 589.149 694.5 595.5C694.5 601.851 699.649 607 706 607Z" fill="white" stroke="white" stroke-width="2"/>
<path d="M1129.06 335.087C1135.41 335.087 1140.56 329.938 1140.56 323.587C1140.56 317.236 1135.41 312.087 1129.06 312.087C1122.71 312.087 1117.56 317.236 1117.56 323.587C1117.56 329.938 1122.71 335.087 1129.06 335.087Z" fill="white" stroke="white" stroke-width="2"/>
<path d="M1003.41 374.186C1009.76 374.186 1014.91 369.037 1014.91 362.686C1014.91 356.335 1009.76 351.186 1003.41 351.186C997.057 351.186 991.908 356.335 991.908 362.686C991.908 369.037 997.057 374.186 1003.41 374.186Z" fill="white" stroke="white" stroke-width="2"/>
<path d="M1169.18 348.776C1175.53 348.776 1180.68 343.627 1180.68 337.276C1180.68 330.925 1175.53 325.776 1169.18 325.776C1162.83 325.776 1157.68 330.925 1157.68 337.276C1157.68 343.627 1162.83 348.776 1169.18 348.776Z" fill="white" stroke="white" stroke-width="2"/>
<path d="M1165 324C1171.35 324 1176.5 318.851 1176.5 312.5C1176.5 306.149 1171.35 301 1165 301C1158.65 301 1153.5 306.149 1153.5 312.5C1153.5 318.851 1158.65 324 1165 324Z" fill="white" stroke="white" stroke-width="2"/>
<path d="M1139.84 311.538C1146.19 311.538 1151.34 306.389 1151.34 300.038C1151.34 293.687 1146.19 288.538 1139.84 288.538C1133.49 288.538 1128.34 293.687 1128.34 300.038C1128.34 306.389 1133.49 311.538 1139.84 311.538Z" fill="white" stroke="white" stroke-width="2"/>
<path d="M1153 347C1159.35 347 1164.5 341.851 1164.5 335.5C1164.5 329.149 1159.35 324 1153 324C1146.65 324 1141.5 329.149 1141.5 335.5C1141.5 341.851 1146.65 347 1153 347Z" fill="white" stroke="white" stroke-width="2"/>
</svg>
