<svg width="19" height="20" viewBox="0 0 19 20" fill="none" xmlns="http://www.w3.org/2000/svg">
<g id="Social Media Icon Square/Instagram">
<path id="Instagram" fill-rule="evenodd" clip-rule="evenodd" d="M0.849609 9.89526C0.849609 6.30012 0.849609 4.50255 1.7063 3.20782C2.08886 2.62965 2.584 2.13451 3.16216 1.75196C4.4569 0.895264 6.25447 0.895264 9.84961 0.895264C13.4447 0.895264 15.2423 0.895264 16.5371 1.75196C17.1152 2.13451 17.6104 2.62965 17.9929 3.20782C18.8496 4.50255 18.8496 6.30012 18.8496 9.89526C18.8496 13.4904 18.8496 15.288 17.9929 16.5827C17.6104 17.1609 17.1152 17.656 16.5371 18.0386C15.2423 18.8953 13.4447 18.8953 9.84961 18.8953C6.25447 18.8953 4.4569 18.8953 3.16216 18.0386C2.584 17.656 2.08886 17.1609 1.7063 16.5827C0.849609 15.288 0.849609 13.4904 0.849609 9.89526ZM14.5089 9.89549C14.5089 12.4688 12.4228 14.5549 9.84945 14.5549C7.27613 14.5549 5.19004 12.4688 5.19004 9.89549C5.19004 7.32217 7.27613 5.23608 9.84945 5.23608C12.4228 5.23608 14.5089 7.32217 14.5089 9.89549ZM9.84945 12.9785C11.5521 12.9785 12.9325 11.5982 12.9325 9.89549C12.9325 8.19279 11.5521 6.81249 9.84945 6.81249C8.14675 6.81249 6.76645 8.19279 6.76645 9.89549C6.76645 11.5982 8.14675 12.9785 9.84945 12.9785ZM14.6929 6.09681C15.2975 6.09681 15.7877 5.60664 15.7877 5.00199C15.7877 4.39733 15.2975 3.90717 14.6929 3.90717C14.0882 3.90717 13.5981 4.39733 13.5981 5.00199C13.5981 5.60664 14.0882 6.09681 14.6929 6.09681Z" fill="#828282"/>
</g>
</svg>
