<svg width="20" height="20" viewBox="0 0 20 20" fill="none" xmlns="http://www.w3.org/2000/svg">
<g id="Social Media Icon Square/Instagram">
<path id="Instagram" fill-rule="evenodd" clip-rule="evenodd" d="M1.34961 9.89526C1.34961 6.30012 1.34961 4.50255 2.2063 3.20782C2.58886 2.62965 3.084 2.13451 3.66216 1.75196C4.9569 0.895264 6.75447 0.895264 10.3496 0.895264C13.9447 0.895264 15.7423 0.895264 17.0371 1.75196C17.6152 2.13451 18.1104 2.62965 18.4929 3.20782C19.3496 4.50255 19.3496 6.30012 19.3496 9.89526C19.3496 13.4904 19.3496 15.288 18.4929 16.5827C18.1104 17.1609 17.6152 17.656 17.0371 18.0386C15.7423 18.8953 13.9447 18.8953 10.3496 18.8953C6.75447 18.8953 4.9569 18.8953 3.66216 18.0386C3.084 17.656 2.58886 17.1609 2.2063 16.5827C1.34961 15.288 1.34961 13.4904 1.34961 9.89526ZM15.0089 9.89549C15.0089 12.4688 12.9228 14.5549 10.3494 14.5549C7.77613 14.5549 5.69004 12.4688 5.69004 9.89549C5.69004 7.32217 7.77613 5.23608 10.3494 5.23608C12.9228 5.23608 15.0089 7.32217 15.0089 9.89549ZM10.3494 12.9785C12.0521 12.9785 13.4325 11.5982 13.4325 9.89549C13.4325 8.19279 12.0521 6.81249 10.3494 6.81249C8.64675 6.81249 7.26645 8.19279 7.26645 9.89549C7.26645 11.5982 8.64675 12.9785 10.3494 12.9785ZM15.1929 6.09681C15.7975 6.09681 16.2877 5.60664 16.2877 5.00199C16.2877 4.39733 15.7975 3.90717 15.1929 3.90717C14.5882 3.90717 14.0981 4.39733 14.0981 5.00199C14.0981 5.60664 14.5882 6.09681 15.1929 6.09681Z" fill="#828282"/>
</g>
</svg>
