<svg width="19" height="18" viewBox="0 0 19 18" fill="none" xmlns="http://www.w3.org/2000/svg">
<path d="M0.349609 2.81518C0.349609 2.23797 0.552318 1.76178 0.957717 1.38661C1.36312 1.01142 1.89016 0.823837 2.5388 0.823837C3.17587 0.823837 3.6913 1.00853 4.08513 1.37795C4.49053 1.7589 4.69324 2.25528 4.69324 2.86713C4.69324 3.42124 4.49633 3.88299 4.1025 4.25241C3.69711 4.63336 3.16428 4.82384 2.50405 4.82384H2.48668C1.8496 4.82384 1.33417 4.63336 0.940343 4.25241C0.546515 3.87146 0.349609 3.39237 0.349609 2.81518ZM0.575478 17.9667V6.39959H4.43262V17.9667H0.575478ZM6.56969 17.9667H10.4268V11.5078C10.4268 11.1038 10.4732 10.7921 10.5658 10.5728C10.728 10.1802 10.9741 9.84835 11.3042 9.57708C11.6344 9.30579 12.0484 9.17015 12.5465 9.17015C13.8438 9.17015 14.4925 10.0417 14.4925 11.7849V17.9667H18.3496V11.3347C18.3496 9.62614 17.9442 8.33033 17.1334 7.44721C16.3226 6.56409 15.2512 6.12254 13.9191 6.12254C12.4249 6.12254 11.2608 6.76323 10.4268 8.04461V8.07925H10.4095L10.4268 8.04461V6.39959H6.56969C6.59285 6.769 6.60444 7.91762 6.60444 9.84548C6.60444 11.7733 6.59285 14.4804 6.56969 17.9667Z" fill="#828282"/>
</svg>
