<svg width="20" height="16" viewBox="0 0 20 16" fill="none" xmlns="http://www.w3.org/2000/svg">
<g id="Social Media Icon Square/Twitter">
<path id="Twitter" d="M13.3767 0.596625V0.593384H14.2207L14.529 0.654976C14.7346 0.694962 14.9213 0.747364 15.089 0.812197C15.2567 0.877031 15.4191 0.952676 15.5759 1.03912C15.7328 1.12555 15.8751 1.21363 16.0028 1.30331C16.1294 1.39192 16.243 1.48593 16.3437 1.58534C16.4432 1.68583 16.5985 1.71176 16.8095 1.66314C17.0205 1.61451 17.2477 1.54697 17.4912 1.46053C17.7346 1.37409 17.9754 1.27684 18.2135 1.16878C18.4515 1.06072 18.5965 0.992111 18.6485 0.962935C18.6993 0.932691 18.7264 0.916482 18.7296 0.91431L18.7328 0.909448L18.7491 0.901344L18.7653 0.893239L18.7815 0.885135L18.7978 0.877031L18.801 0.872168L18.8059 0.868927L18.8108 0.865685L18.814 0.860823L18.8302 0.85596L18.8465 0.852718L18.8432 0.877031L18.8383 0.901344L18.8302 0.925656L18.8221 0.949969L18.814 0.966177L18.8059 0.982386L18.7978 1.0067C18.7924 1.02291 18.787 1.04451 18.7815 1.07153C18.7761 1.09855 18.7247 1.2066 18.6273 1.3957C18.53 1.5848 18.4082 1.7766 18.2621 1.9711C18.1161 2.1656 17.9851 2.31254 17.8694 2.41197C17.7525 2.51246 17.6751 2.58269 17.6373 2.62268C17.5994 2.66373 17.5534 2.70155 17.4993 2.73614L17.4181 2.78962L17.4019 2.79773L17.3857 2.80583L17.3824 2.81069L17.3776 2.81394L17.3727 2.81718L17.3694 2.82204L17.3532 2.83014L17.337 2.83825L17.3338 2.84311L17.3289 2.84635L17.324 2.84959L17.3208 2.85446L17.3175 2.85932L17.3126 2.86256L17.3078 2.8658L17.3045 2.87067H17.3857L17.8401 2.77341C18.1431 2.70858 18.4326 2.63025 18.7085 2.53839L19.1467 2.39252L19.1954 2.37631L19.2198 2.3682L19.236 2.3601L19.2522 2.352L19.2685 2.34389L19.2847 2.33579L19.3171 2.33093L19.3496 2.32768V2.3601L19.3415 2.36334L19.3334 2.3682L19.3301 2.37307L19.3253 2.37631L19.3204 2.37955L19.3171 2.38441L19.3139 2.38928L19.309 2.39252L19.3042 2.39576L19.3009 2.40062L19.2977 2.40548L19.2928 2.40873L19.2847 2.42493L19.2766 2.44114L19.2717 2.44438C19.2695 2.44763 19.2008 2.53946 19.0656 2.71993C18.9303 2.90146 18.8573 2.9933 18.8465 2.99547C18.8356 2.99871 18.8205 3.01492 18.801 3.0441C18.7826 3.07434 18.6679 3.19483 18.4569 3.40554C18.2459 3.61625 18.0393 3.80372 17.8369 3.96797C17.6335 4.1333 17.5307 4.33644 17.5285 4.57741C17.5253 4.8173 17.5128 5.08853 17.4912 5.39107C17.4695 5.69363 17.429 6.02049 17.3694 6.37168C17.3099 6.72287 17.218 7.11998 17.0935 7.563C16.9691 8.00602 16.8176 8.43825 16.6391 8.85967C16.4605 9.28109 16.2739 9.65928 16.0791 9.99426C15.8843 10.3292 15.7058 10.6129 15.5435 10.8452C15.3812 11.0775 15.2162 11.2963 15.0484 11.5016C14.8807 11.707 14.6687 11.9382 14.4122 12.1954C14.1547 12.4515 14.014 12.5919 13.9902 12.6168C13.9653 12.6406 13.8593 12.7292 13.6721 12.8826C13.486 13.0371 13.2858 13.1916 13.0715 13.3462C12.8584 13.4996 12.6625 13.6277 12.484 13.7303C12.3054 13.8329 12.0901 13.9502 11.838 14.082C11.587 14.2149 11.3153 14.3381 11.0232 14.4516C10.731 14.565 10.4226 14.6704 10.098 14.7676C9.77341 14.8649 9.45962 14.9405 9.15664 14.9946C8.85368 15.0486 8.51012 15.0945 8.12598 15.1323L7.54979 15.1891V15.1972H6.49479V15.1891L6.35682 15.181C6.26486 15.1756 6.18911 15.1701 6.12959 15.1647C6.07009 15.1593 5.84555 15.1296 5.45601 15.0756C5.06647 15.0216 4.7608 14.9675 4.53897 14.9135C4.31716 14.8595 3.98712 14.7568 3.54889 14.6056C3.11066 14.4543 2.73572 14.3014 2.42409 14.1469C2.11355 13.9934 1.91878 13.8962 1.83978 13.8551C1.76187 13.8151 1.67423 13.7654 1.57684 13.706L1.43076 13.6168L1.42753 13.612L1.42265 13.6087L1.41778 13.6055L1.41453 13.6006L1.3983 13.5925L1.38207 13.5844L1.37884 13.5796L1.37396 13.5763L1.36909 13.5731L1.36584 13.5682L1.36261 13.5634L1.35772 13.5601H1.34961V13.5277L1.36584 13.5309L1.38207 13.5358L1.45511 13.5439C1.5038 13.5493 1.63636 13.5574 1.85277 13.5682C2.06919 13.579 2.29911 13.579 2.54258 13.5682C2.78604 13.5574 3.03492 13.5331 3.28919 13.4953C3.54348 13.4575 3.84375 13.3926 4.19001 13.3008C4.53627 13.2089 4.8544 13.0998 5.1444 12.9734C5.4333 12.8459 5.63888 12.7508 5.76117 12.6881C5.88235 12.6265 6.06738 12.512 6.31625 12.3445L6.68956 12.0932L6.6928 12.0884L6.69767 12.0851L6.70256 12.0819L6.70579 12.077L6.70903 12.0722L6.7139 12.0689L6.71879 12.0657L6.72202 12.0608L6.73825 12.056L6.75448 12.0527L6.75772 12.0365L6.76259 12.0203L6.76748 12.0171L6.77071 12.0122L6.64086 12.0041C6.5543 11.9987 6.47044 11.9933 6.38928 11.9879C6.30813 11.9825 6.18099 11.9582 6.00786 11.915C5.83474 11.8717 5.64809 11.8069 5.4479 11.7205C5.24772 11.634 5.05295 11.5314 4.86359 11.4125C4.67424 11.2936 4.53735 11.1948 4.45295 11.1159C4.36963 11.0381 4.26142 10.9279 4.12833 10.7852C3.99632 10.6415 3.88162 10.494 3.78424 10.3427C3.68685 10.1915 3.5938 10.0169 3.50508 9.81921L3.37035 9.52422L3.36223 9.4999L3.35412 9.47559L3.34925 9.45938L3.346 9.44317L3.37035 9.44642L3.3947 9.45128L3.57323 9.47559C3.69227 9.4918 3.87893 9.4972 4.1332 9.4918C4.38749 9.4864 4.56332 9.47559 4.6607 9.45938C4.75809 9.44317 4.8176 9.43236 4.83924 9.42697L4.8717 9.41886L4.91228 9.41076L4.95286 9.40265L4.9561 9.39779L4.96097 9.39455L4.96586 9.39131L4.96909 9.38645L4.93662 9.37834L4.90416 9.37024L4.8717 9.36213L4.83924 9.35403L4.80678 9.34592C4.78514 9.34053 4.74728 9.32972 4.69316 9.31351C4.63906 9.2973 4.49299 9.23786 4.25493 9.13521C4.01689 9.03257 3.82752 8.93261 3.68685 8.83536C3.54583 8.73783 3.41137 8.63116 3.28433 8.51605C3.15772 8.39935 3.01869 8.24915 2.86719 8.06546C2.71571 7.88177 2.58046 7.66835 2.46142 7.42523C2.3424 7.1821 2.25313 6.94979 2.19361 6.72827C2.13433 6.50805 2.09522 6.28291 2.07677 6.05562L2.04754 5.71524L2.06377 5.71848L2.08 5.72335L2.09623 5.73145L2.11246 5.73955L2.12869 5.74766L2.14492 5.75576L2.3965 5.86922C2.56423 5.94487 2.77252 6.0097 3.02139 6.06372C3.27027 6.11774 3.41904 6.14747 3.46773 6.15287L3.54077 6.16097H3.68685L3.68362 6.15611L3.67873 6.15287L3.67387 6.14963L3.67062 6.14476L3.66739 6.1399L3.6625 6.13666L3.65763 6.13342L3.65439 6.12856L3.63816 6.12045L3.62193 6.11235L3.6187 6.10748L3.61381 6.10424L3.60894 6.101L3.6057 6.09614L3.58947 6.08803L3.57323 6.07993L3.57 6.07507C3.56676 6.0729 3.52022 6.03832 3.4304 5.97133C3.34167 5.90326 3.24862 5.8152 3.15123 5.70714C3.05385 5.59908 2.95646 5.48562 2.85908 5.36676C2.76151 5.24763 2.67461 5.12018 2.59938 4.98586C2.52365 4.8508 2.44357 4.67897 2.35917 4.47044C2.27585 4.26297 2.21255 4.05388 2.16927 3.84317C2.126 3.63246 2.10165 3.42446 2.09623 3.21915C2.09082 3.01383 2.09623 2.83825 2.11246 2.69237C2.12869 2.5465 2.16115 2.38171 2.20984 2.19802C2.25854 2.01433 2.32888 1.81983 2.42084 1.61451L2.55881 1.30655L2.56692 1.28224L2.57504 1.25793L2.57992 1.25469L2.58315 1.24982L2.5864 1.24496L2.59127 1.24172L2.59615 1.24496L2.59938 1.24982L2.60263 1.25469L2.6075 1.25793L2.61238 1.26117L2.61561 1.26603L2.61886 1.2709L2.62373 1.27414L2.63185 1.29035L2.63996 1.30655L2.64485 1.3098L2.64808 1.31466L2.86719 1.55778C3.01327 1.71987 3.1864 1.90087 3.38658 2.10077C3.58677 2.30066 3.69768 2.4044 3.71931 2.41197C3.74096 2.42061 3.768 2.44545 3.80047 2.48653C3.83293 2.52651 3.94114 2.62214 4.12508 2.77341C4.30904 2.92469 4.5498 3.10029 4.84736 3.30019C5.14493 3.50009 5.47495 3.69729 5.83744 3.89179C6.19994 4.0863 6.58948 4.26188 7.00606 4.41857C7.42265 4.57525 7.71481 4.6779 7.88252 4.72653C8.05025 4.77515 8.33699 4.83728 8.74276 4.91292C9.14853 4.98857 9.45422 5.03719 9.6598 5.0588C9.86539 5.08041 10.0061 5.09284 10.0818 5.09608L10.1954 5.09932L10.1922 5.07501L10.1873 5.0507L10.1548 4.84809C10.1332 4.71303 10.1224 4.52392 10.1224 4.2808C10.1224 4.03767 10.1413 3.81346 10.1792 3.60815C10.2171 3.40284 10.2739 3.19483 10.3496 2.98412C10.4254 2.77341 10.4995 2.6043 10.572 2.4768C10.6456 2.35038 10.7419 2.20612 10.8609 2.04404C10.9799 1.88195 11.1341 1.71447 11.3235 1.54158C11.5128 1.36868 11.7292 1.2147 11.9727 1.07964C12.2162 0.944571 12.4407 0.841907 12.6463 0.771676C12.8519 0.701445 13.025 0.655511 13.1657 0.633905C13.3063 0.612299 13.3767 0.599867 13.3767 0.596625Z" fill="#828282"/>
</g>
</svg>
