<svg width="21" height="15" viewBox="0 0 21 15" fill="none" xmlns="http://www.w3.org/2000/svg">
<path d="M10.7882 14.8752L6.72605 14.7993C5.4108 14.7728 4.09228 14.8256 2.80282 14.5515C0.841257 14.142 0.702293 12.1341 0.556881 10.4499C0.356519 8.08203 0.434085 5.67121 0.812194 3.32313C1.02565 2.00562 1.86568 1.21945 3.16476 1.1339C7.55011 0.823421 11.9646 0.860216 16.3403 1.00506C16.8024 1.01834 17.2677 1.09092 17.7234 1.17353C19.9727 1.57645 20.0275 3.85184 20.1733 5.7673C20.3187 7.70252 20.2573 9.64768 19.9794 11.5697C19.7564 13.1611 19.3298 14.4957 17.5294 14.6245C15.2737 14.793 13.0697 14.9286 10.8076 14.8854C10.8077 14.8752 10.7947 14.8752 10.7882 14.8752ZM8.40006 10.8462C10.1 9.84878 11.7674 8.868 13.4576 7.87727C11.7545 6.87986 10.0902 5.89907 8.40006 4.90835V10.8462Z" fill="#828282"/>
</svg>
