<svg width="22" height="16" viewBox="0 0 22 16" fill="none" xmlns="http://www.w3.org/2000/svg">
<g id="Social Media Icon Square/YouTube">
<g id="Group 73">
<path id="YouTube" d="M11.7882 14.8752L7.72605 14.7993C6.4108 14.7728 5.09228 14.8256 3.80282 14.5515C1.84126 14.142 1.70229 12.1341 1.55688 10.4499C1.35652 8.08204 1.43409 5.67122 1.81219 3.32315C2.02565 2.00563 2.86568 1.21946 4.16476 1.13391C8.55011 0.823436 12.9646 0.860231 17.3403 1.00508C17.8024 1.01836 18.2677 1.09093 18.7234 1.17354C20.9727 1.57646 21.0275 3.85186 21.1733 5.76732C21.3187 7.70254 21.2573 9.6477 20.9794 11.5697C20.7564 13.1611 20.3298 14.4957 18.5294 14.6245C16.2737 14.793 14.0697 14.9286 11.8076 14.8854C11.8077 14.8752 11.7947 14.8752 11.7882 14.8752ZM9.40006 10.8462C11.1 9.8488 12.7674 8.86801 14.4576 7.87729C12.7545 6.87988 11.0902 5.89909 9.40006 4.90837V10.8462Z" fill="#828282"/>
</g>
</g>
</svg>
