<svg width="19" height="16" viewBox="0 0 19 16" fill="none" xmlns="http://www.w3.org/2000/svg">
<g id="Social Media Icon Square/Twitter">
<path id="Twitter" d="M12.8767 0.596625V0.593384H13.7207L14.029 0.654976C14.2346 0.694962 14.4213 0.747364 14.589 0.812197C14.7567 0.877031 14.9191 0.952676 15.0759 1.03912C15.2328 1.12555 15.3751 1.21363 15.5028 1.30331C15.6294 1.39192 15.743 1.48593 15.8437 1.58534C15.9432 1.68583 16.0985 1.71176 16.3095 1.66314C16.5205 1.61451 16.7477 1.54697 16.9912 1.46053C17.2346 1.37409 17.4754 1.27684 17.7135 1.16878C17.9515 1.06072 18.0965 0.992111 18.1485 0.962935C18.1993 0.932691 18.2264 0.916482 18.2296 0.91431L18.2328 0.909448L18.2491 0.901344L18.2653 0.893239L18.2815 0.885135L18.2978 0.877031L18.301 0.872168L18.3059 0.868927L18.3108 0.865685L18.314 0.860823L18.3302 0.85596L18.3465 0.852718L18.3432 0.877031L18.3383 0.901344L18.3302 0.925656L18.3221 0.949969L18.314 0.966177L18.3059 0.982386L18.2978 1.0067C18.2924 1.02291 18.287 1.04451 18.2815 1.07153C18.2761 1.09855 18.2247 1.2066 18.1273 1.3957C18.03 1.5848 17.9082 1.7766 17.7621 1.9711C17.6161 2.1656 17.4851 2.31254 17.3694 2.41197C17.2525 2.51246 17.1751 2.58269 17.1373 2.62268C17.0994 2.66373 17.0534 2.70155 16.9993 2.73614L16.9181 2.78962L16.9019 2.79773L16.8857 2.80583L16.8824 2.81069L16.8776 2.81394L16.8727 2.81718L16.8694 2.82204L16.8532 2.83014L16.837 2.83825L16.8338 2.84311L16.8289 2.84635L16.824 2.84959L16.8208 2.85446L16.8175 2.85932L16.8126 2.86256L16.8078 2.8658L16.8045 2.87067H16.8857L17.3401 2.77341C17.6431 2.70858 17.9326 2.63025 18.2085 2.53839L18.6467 2.39252L18.6954 2.37631L18.7198 2.3682L18.736 2.3601L18.7522 2.352L18.7685 2.34389L18.7847 2.33579L18.8171 2.33093L18.8496 2.32768V2.3601L18.8415 2.36334L18.8334 2.3682L18.8301 2.37307L18.8253 2.37631L18.8204 2.37955L18.8171 2.38441L18.8139 2.38928L18.809 2.39252L18.8042 2.39576L18.8009 2.40062L18.7977 2.40548L18.7928 2.40873L18.7847 2.42493L18.7766 2.44114L18.7717 2.44438C18.7695 2.44763 18.7008 2.53946 18.5656 2.71993C18.4303 2.90146 18.3573 2.9933 18.3465 2.99547C18.3356 2.99871 18.3205 3.01492 18.301 3.0441C18.2826 3.07434 18.1679 3.19483 17.9569 3.40554C17.7459 3.61625 17.5393 3.80372 17.3369 3.96797C17.1335 4.1333 17.0307 4.33644 17.0285 4.57741C17.0253 4.8173 17.0128 5.08853 16.9912 5.39107C16.9695 5.69363 16.929 6.02049 16.8694 6.37168C16.8099 6.72287 16.718 7.11998 16.5935 7.563C16.4691 8.00602 16.3176 8.43825 16.1391 8.85967C15.9605 9.28109 15.7739 9.65928 15.5791 9.99426C15.3843 10.3292 15.2058 10.6129 15.0435 10.8452C14.8812 11.0775 14.7162 11.2963 14.5484 11.5016C14.3807 11.707 14.1687 11.9382 13.9122 12.1954C13.6547 12.4515 13.514 12.5919 13.4902 12.6168C13.4653 12.6406 13.3593 12.7292 13.1721 12.8826C12.986 13.0371 12.7858 13.1916 12.5715 13.3462C12.3584 13.4996 12.1625 13.6277 11.984 13.7303C11.8054 13.8329 11.5901 13.9502 11.338 14.082C11.087 14.2149 10.8153 14.3381 10.5232 14.4516C10.231 14.565 9.92265 14.6704 9.59803 14.7676C9.27341 14.8649 8.95962 14.9405 8.65664 14.9946C8.35368 15.0486 8.01012 15.0945 7.62598 15.1323L7.04979 15.1891V15.1972H5.99479V15.1891L5.85682 15.181C5.76486 15.1756 5.68911 15.1701 5.62959 15.1647C5.57009 15.1593 5.34555 15.1296 4.95601 15.0756C4.56647 15.0216 4.2608 14.9675 4.03897 14.9135C3.81716 14.8595 3.48712 14.7568 3.04889 14.6056C2.61066 14.4543 2.23572 14.3014 1.92409 14.1469C1.61355 13.9934 1.41878 13.8962 1.33978 13.8551C1.26187 13.8151 1.17423 13.7654 1.07684 13.706L0.930764 13.6168L0.927534 13.612L0.922648 13.6087L0.917779 13.6055L0.914533 13.6006L0.898302 13.5925L0.882071 13.5844L0.878841 13.5796L0.873956 13.5763L0.869086 13.5731L0.86584 13.5682L0.86261 13.5634L0.857725 13.5601H0.849609V13.5277L0.86584 13.5309L0.882071 13.5358L0.95511 13.5439C1.0038 13.5493 1.13636 13.5574 1.35277 13.5682C1.56919 13.579 1.79911 13.579 2.04258 13.5682C2.28604 13.5574 2.53492 13.5331 2.78919 13.4953C3.04348 13.4575 3.34375 13.3926 3.69001 13.3008C4.03627 13.2089 4.3544 13.0998 4.6444 12.9734C4.9333 12.8459 5.13888 12.7508 5.26117 12.6881C5.38235 12.6265 5.56738 12.512 5.81625 12.3445L6.18956 12.0932L6.1928 12.0884L6.19767 12.0851L6.20256 12.0819L6.20579 12.077L6.20903 12.0722L6.2139 12.0689L6.21879 12.0657L6.22202 12.0608L6.23825 12.056L6.25448 12.0527L6.25772 12.0365L6.26259 12.0203L6.26748 12.0171L6.27071 12.0122L6.14086 12.0041C6.0543 11.9987 5.97044 11.9933 5.88928 11.9879C5.80813 11.9825 5.68099 11.9582 5.50786 11.915C5.33474 11.8717 5.14809 11.8069 4.9479 11.7205C4.74772 11.634 4.55295 11.5314 4.36359 11.4125C4.17424 11.2936 4.03735 11.1948 3.95295 11.1159C3.86963 11.0381 3.76142 10.9279 3.62833 10.7852C3.49632 10.6415 3.38162 10.494 3.28424 10.3427C3.18685 10.1915 3.0938 10.0169 3.00508 9.81921L2.87035 9.52422L2.86223 9.4999L2.85412 9.47559L2.84925 9.45938L2.846 9.44317L2.87035 9.44642L2.8947 9.45128L3.07323 9.47559C3.19227 9.4918 3.37893 9.4972 3.6332 9.4918C3.88749 9.4864 4.06332 9.47559 4.1607 9.45938C4.25809 9.44317 4.3176 9.43236 4.33924 9.42697L4.3717 9.41886L4.41228 9.41076L4.45286 9.40265L4.4561 9.39779L4.46097 9.39455L4.46586 9.39131L4.46909 9.38645L4.43662 9.37834L4.40416 9.37024L4.3717 9.36213L4.33924 9.35403L4.30678 9.34592C4.28514 9.34053 4.24728 9.32972 4.19316 9.31351C4.13906 9.2973 3.99299 9.23786 3.75493 9.13521C3.51689 9.03257 3.32752 8.93261 3.18685 8.83536C3.04583 8.73783 2.91137 8.63116 2.78433 8.51605C2.65772 8.39935 2.51869 8.24915 2.36719 8.06546C2.21571 7.88177 2.08046 7.66835 1.96142 7.42523C1.8424 7.1821 1.75313 6.94979 1.69361 6.72827C1.63433 6.50805 1.59522 6.28291 1.57677 6.05562L1.54754 5.71524L1.56377 5.71848L1.58 5.72335L1.59623 5.73145L1.61246 5.73955L1.62869 5.74766L1.64492 5.75576L1.8965 5.86922C2.06423 5.94487 2.27252 6.0097 2.52139 6.06372C2.77027 6.11774 2.91904 6.14747 2.96773 6.15287L3.04077 6.16097H3.18685L3.18362 6.15611L3.17873 6.15287L3.17387 6.14963L3.17062 6.14476L3.16739 6.1399L3.1625 6.13666L3.15763 6.13342L3.15439 6.12856L3.13816 6.12045L3.12193 6.11235L3.1187 6.10748L3.11381 6.10424L3.10894 6.101L3.1057 6.09614L3.08947 6.08803L3.07323 6.07993L3.07 6.07507C3.06676 6.0729 3.02022 6.03832 2.9304 5.97133C2.84167 5.90326 2.74862 5.8152 2.65123 5.70714C2.55385 5.59908 2.45646 5.48562 2.35908 5.36676C2.26151 5.24763 2.17461 5.12018 2.09938 4.98586C2.02365 4.8508 1.94357 4.67897 1.85917 4.47044C1.77585 4.26297 1.71255 4.05388 1.66927 3.84317C1.626 3.63246 1.60165 3.42446 1.59623 3.21915C1.59082 3.01383 1.59623 2.83825 1.61246 2.69237C1.62869 2.5465 1.66115 2.38171 1.70984 2.19802C1.75854 2.01433 1.82888 1.81983 1.92084 1.61451L2.05881 1.30655L2.06692 1.28224L2.07504 1.25793L2.07992 1.25469L2.08315 1.24982L2.0864 1.24496L2.09127 1.24172L2.09615 1.24496L2.09938 1.24982L2.10263 1.25469L2.1075 1.25793L2.11238 1.26117L2.11561 1.26603L2.11886 1.2709L2.12373 1.27414L2.13185 1.29035L2.13996 1.30655L2.14485 1.3098L2.14808 1.31466L2.36719 1.55778C2.51327 1.71987 2.6864 1.90087 2.88658 2.10077C3.08677 2.30066 3.19768 2.4044 3.21931 2.41197C3.24096 2.42061 3.268 2.44545 3.30047 2.48653C3.33293 2.52651 3.44114 2.62214 3.62508 2.77341C3.80904 2.92469 4.0498 3.10029 4.34736 3.30019C4.64493 3.50009 4.97495 3.69729 5.33744 3.89179C5.69994 4.0863 6.08948 4.26188 6.50606 4.41857C6.92265 4.57525 7.21481 4.6779 7.38252 4.72653C7.55025 4.77515 7.83699 4.83728 8.24276 4.91292C8.64853 4.98857 8.95422 5.03719 9.1598 5.0588C9.36539 5.08041 9.50607 5.09284 9.5818 5.09608L9.69542 5.09932L9.69219 5.07501L9.6873 5.0507L9.65484 4.84809C9.6332 4.71303 9.62238 4.52392 9.62238 4.2808C9.62238 4.03767 9.64132 3.81346 9.67919 3.60815C9.71707 3.40284 9.77388 3.19483 9.84961 2.98412C9.92536 2.77341 9.99949 2.6043 10.072 2.4768C10.1456 2.35038 10.2419 2.20612 10.3609 2.04404C10.4799 1.88195 10.6341 1.71447 10.8235 1.54158C11.0128 1.36868 11.2292 1.2147 11.4727 1.07964C11.7162 0.944571 11.9407 0.841907 12.1463 0.771676C12.3519 0.701445 12.525 0.655511 12.6657 0.633905C12.8063 0.612299 12.8767 0.599867 12.8767 0.596625Z" fill="#828282"/>
</g>
</svg>
