<svg width="21" height="16" viewBox="0 0 21 16" fill="none" xmlns="http://www.w3.org/2000/svg">
<g id="Social Media Icon Square/YouTube">
<g id="Group 73">
<path id="YouTube" d="M11.2882 14.8752L7.22605 14.7993C5.9108 14.7728 4.59228 14.8256 3.30282 14.5515C1.34126 14.142 1.20229 12.1341 1.05688 10.4499C0.856519 8.08203 0.934085 5.67121 1.31219 3.32313C1.52565 2.00562 2.36568 1.21945 3.66476 1.1339C8.05011 0.823421 12.4646 0.860216 16.8403 1.00506C17.3024 1.01834 17.7677 1.09092 18.2234 1.17353C20.4727 1.57645 20.5275 3.85184 20.6733 5.7673C20.8187 7.70252 20.7573 9.64768 20.4794 11.5697C20.2564 13.1611 19.8298 14.4957 18.0294 14.6245C15.7737 14.793 13.5697 14.9286 11.3076 14.8854C11.3077 14.8752 11.2947 14.8752 11.2882 14.8752ZM8.90006 10.8462C10.6 9.84878 12.2674 8.868 13.9576 7.87727C12.2545 6.87986 10.5902 5.89907 8.90006 4.90835V10.8462Z" fill="#828282"/>
</g>
</g>
</svg>
