<svg width="168" height="251" viewBox="0 0 168 251" fill="none" xmlns="http://www.w3.org/2000/svg">
<g clip-path="url(#clip0_1_52)">
<path d="M84.2917 125.313C84.2917 114.234 88.6926 103.61 96.5261 95.7761C104.36 87.9426 114.984 83.5417 126.063 83.5417C137.141 83.5417 147.765 87.9426 155.599 95.7761C163.433 103.61 167.833 114.234 167.833 125.313C167.833 136.391 163.433 147.015 155.599 154.849C147.765 162.683 137.141 167.083 126.063 167.083C114.984 167.083 104.36 162.683 96.5261 154.849C88.6926 147.015 84.2917 136.391 84.2917 125.313Z" fill="#1ABCFE"/>
<path d="M0.749962 208.854C0.749962 197.776 5.1508 187.151 12.9844 179.318C20.8179 171.484 31.4425 167.083 42.5208 167.083H84.2916V208.854C84.2916 219.933 79.8908 230.557 72.0572 238.391C64.2237 246.224 53.5991 250.625 42.5208 250.625C31.4425 250.625 20.8179 246.224 12.9844 238.391C5.1508 230.557 0.749962 219.933 0.749962 208.854H0.749962Z" fill="#0ACF83"/>
<path d="M84.2917 0V83.5417H126.063C137.141 83.5417 147.765 79.1408 155.599 71.3073C163.433 63.4737 167.833 52.8492 167.833 41.7708C167.833 30.6925 163.433 20.0679 155.599 12.2344C147.765 4.40084 137.141 0 126.063 0L84.2917 0Z" fill="#FF7262"/>
<path d="M0.75 41.7708C0.75 52.8492 5.15084 63.4737 12.9844 71.3073C20.8179 79.1408 31.4425 83.5417 42.5208 83.5417H84.2917V0H42.5208C31.4425 0 20.8179 4.40084 12.9844 12.2344C5.15084 20.0679 0.75 30.6925 0.75 41.7708H0.75Z" fill="#F24E1E"/>
<path d="M0.749962 125.313C0.749962 136.391 5.1508 147.015 12.9844 154.849C20.8179 162.683 31.4425 167.083 42.5208 167.083H84.2916V83.5417H42.5208C31.4425 83.5417 20.8179 87.9426 12.9844 95.7761C5.1508 103.61 0.749962 114.234 0.749962 125.313H0.749962Z" fill="#A259FF"/>
</g>
<defs>
<clipPath id="clip0_1_52">
<rect width="167.083" height="250.625" fill="white" transform="translate(0.75)"/>
</clipPath>
</defs>
</svg>
