<svg width="458" height="53" viewBox="0 0 458 53" fill="none" xmlns="http://www.w3.org/2000/svg">
<path d="M29.7975 1.76385L29.6634 2.26657H25.036L17.8266 29.1787L10.6508 2.26657H6.02344L5.88931 1.76385V2.26657H0.893066V51.1977H8.43773V21.3028L14.5405 44.0591H21.1463L27.2491 21.3028V51.1977H34.7937V2.26657H29.7975V1.76385Z" fill="#F05361"/>
<path d="M62.7258 3.50712C60.5798 1.5968 57.3942 0.624878 53.3369 0.624878C49.2795 0.624878 46.1275 1.5968 44.015 3.47361C41.869 5.38393 40.7625 8.06509 40.7625 11.1819V41.0433C40.7625 44.8305 41.869 47.5452 44.1156 49.5225C46.2617 51.3658 49.4137 52.3042 53.471 52.3042C57.5284 52.3042 60.6804 51.3658 62.7929 49.489C64.9389 47.5452 66.0454 44.8305 66.0454 41.3785V36.3178H58.6684V41.3785C58.6684 43.3558 58.0649 45.6013 53.4039 45.6013C48.743 45.6013 48.1395 43.3558 48.1395 41.3785V28.2743H66.0454V11.5171C66.0454 8.09861 64.9054 5.38393 62.7258 3.50712ZM48.1395 21.6049V11.5506C48.1395 9.57324 48.743 7.32777 53.4039 7.32777C58.0649 7.32777 58.6684 9.57324 58.6684 11.5506V21.6049H48.1395Z" fill="#FBB85D"/>
<path d="M70.9075 2.23322V9.10368H80.1623V51.1979H87.7404V9.10368H97.0288V2.23322H70.9075Z" fill="#00B2BB"/>
<path d="M70.9075 2.23322V9.10368H80.1623V51.1979H87.7404V9.10368H97.0288V2.23322H70.9075Z" fill="black" fill-opacity="0.2"/>
<path d="M107.148 50.4984H120.545V42.9087H114.221V10.0202H120.545V2.43054H107.148L107.148 50.4984Z" fill="#FBB85D"/>
<path d="M153.809 15.4635V33.7779H149.355V22.3314L145.411 33.7779H141.593L137.649 22.3314V33.7779H133.195V15.4635H138.667L143.629 28.1819L148.465 15.4635H153.809Z" fill="#575757"/>
<path d="M171.497 19.1512V33.7773H167.043V31.1065C166.661 31.9968 166.025 32.6327 165.134 33.1414C164.244 33.6501 163.353 33.9045 162.208 33.9045C160.553 33.9045 159.154 33.3958 158.263 32.2511C157.245 31.1065 156.736 29.5803 156.736 27.6725V19.1512H161.19V27.0366C161.19 28.0541 161.444 28.8172 161.953 29.3259C162.462 29.8346 163.098 30.089 163.989 30.089C164.88 30.089 165.643 29.8346 166.152 29.1987C166.661 28.5628 166.916 27.7997 166.916 26.7822V19.024H171.497V19.1512Z" fill="#575757"/>
<path d="M172.133 36.8303H173.278C173.787 36.8303 174.042 36.7031 174.296 36.5759C174.551 36.3216 174.551 36.0672 174.551 35.5585V19.1518H179.132V35.4313C179.132 38.8652 177.35 40.6458 173.914 40.6458H172.26V36.8303H172.133ZM174.932 16.7353C174.423 16.3537 174.169 15.7178 174.169 15.0819C174.169 14.446 174.423 13.8101 174.932 13.4285C175.441 13.047 176.078 12.7926 176.841 12.7926C177.605 12.7926 178.241 13.047 178.75 13.4285C179.259 13.8101 179.513 14.446 179.513 15.0819C179.513 15.7178 179.259 16.3537 178.75 16.7353C178.241 17.1168 177.605 17.3712 176.841 17.3712C176.078 17.3712 175.314 17.1168 174.932 16.7353Z" fill="#575757"/>
<path d="M195.801 27.2917H185.621C185.621 28.4363 186.003 29.1994 186.512 29.7081C187.021 30.2169 187.657 30.4713 188.421 30.4713C189.057 30.4713 189.693 30.3441 190.075 29.9625C190.457 29.581 190.839 29.1994 190.966 28.6907H195.674C195.42 29.7081 195.038 30.5984 194.402 31.4887C193.765 32.2518 192.875 32.8877 191.984 33.3965C190.966 33.9052 189.821 34.0324 188.675 34.0324C187.276 34.0324 186.003 33.778 184.858 33.1421C183.713 32.5062 182.822 31.6159 182.313 30.5984C181.677 29.4538 181.422 28.182 181.422 26.6558C181.422 25.1296 181.677 23.8577 182.313 22.7131C182.949 21.5684 183.84 20.6781 184.858 20.1694C185.876 19.6607 187.276 19.2791 188.675 19.2791C190.075 19.2791 191.348 19.5335 192.493 20.1694C193.638 20.8053 194.402 21.5684 195.038 22.7131C195.674 23.7305 195.929 25.0024 195.929 26.4014C195.929 26.4014 195.929 26.7829 195.801 27.2917ZM190.711 23.2218C190.202 22.7131 189.566 22.4587 188.675 22.4587C187.912 22.4587 187.148 22.7131 186.639 23.2218C186.13 23.7305 185.749 24.3665 185.749 25.3839H191.475C191.475 24.4936 191.22 23.7305 190.711 23.2218Z" fill="#575757"/>
<path d="M204.963 19.7871C205.854 19.2784 206.745 19.024 207.763 19.024V23.857H206.49C205.345 23.857 204.327 24.1114 203.691 24.6201C203.055 25.1288 202.673 26.0191 202.673 27.1638V33.7773H198.219V19.1512H202.673V21.9493C203.309 21.059 204.073 20.2959 204.963 19.7871Z" fill="#575757"/>
<path d="M223.414 27.2917H213.234C213.234 28.4363 213.616 29.1994 214.125 29.7081C214.634 30.2169 215.27 30.4713 216.034 30.4713C216.67 30.4713 217.306 30.3441 217.688 29.9625C218.07 29.581 218.452 29.1994 218.579 28.6907H223.287C223.033 29.7081 222.651 30.5984 222.015 31.4887C221.378 32.2518 220.488 32.8877 219.597 33.3965C218.579 33.9052 217.434 34.0324 216.288 34.0324C214.889 34.0324 213.616 33.778 212.471 33.1421C211.326 32.5062 210.435 31.6159 209.926 30.5984C209.29 29.4538 209.035 28.182 209.035 26.6558C209.035 25.1296 209.29 23.8577 209.926 22.7131C210.562 21.5684 211.453 20.6781 212.471 20.1694C213.616 19.5335 214.889 19.2791 216.288 19.2791C217.688 19.2791 218.961 19.5335 220.106 20.1694C221.251 20.8053 222.015 21.5684 222.651 22.7131C223.287 23.7305 223.542 25.0024 223.542 26.4014C223.542 26.4014 223.542 26.7829 223.414 27.2917ZM218.197 23.2218C217.688 22.7131 217.052 22.4587 216.161 22.4587C215.398 22.4587 214.634 22.7131 214.125 23.2218C213.616 23.7305 213.234 24.3665 213.234 25.3839H218.961C219.088 24.4936 218.833 23.7305 218.197 23.2218Z" fill="#575757"/>
<path d="M235.63 20.4237C236.776 21.314 237.412 22.5858 237.666 24.112H233.467C233.34 23.4761 233.085 23.0946 232.704 22.713C232.322 22.3314 231.686 22.2043 231.049 22.2043C230.54 22.2043 230.159 22.3315 229.904 22.5858C229.65 22.8402 229.522 23.0946 229.522 23.4761C229.522 23.9848 229.777 24.2392 230.286 24.4936C230.795 24.7479 231.558 25.0023 232.576 25.1295C233.722 25.3839 234.612 25.6382 235.376 25.8926C236.139 26.147 236.648 26.6557 237.285 27.1644C237.794 27.8003 238.048 28.5635 238.048 29.5809C238.048 30.4712 237.794 31.1071 237.412 31.743C236.903 32.379 236.267 32.8877 235.503 33.2692C234.612 33.6508 233.594 33.778 232.449 33.778C230.54 33.778 228.886 33.3964 227.741 32.5061C226.596 31.6158 225.832 30.344 225.578 28.8178H229.904C230.031 29.4537 230.286 29.9625 230.668 30.2168C231.177 30.5984 231.686 30.7256 232.449 30.7256C232.958 30.7256 233.34 30.5984 233.594 30.344C233.849 30.0896 233.976 29.8353 233.976 29.4537C233.976 28.945 233.722 28.5635 233.213 28.3091C232.704 28.0547 231.94 27.8004 230.922 27.6732C229.904 27.4188 229.013 27.1644 228.25 26.9101C227.614 26.6557 226.977 26.2741 226.469 25.6382C225.96 25.0023 225.705 24.2392 225.705 23.2217C225.705 21.9499 226.214 20.8053 227.232 20.0422C228.25 19.2791 229.65 18.7703 231.431 18.7703C233.085 19.0247 234.485 19.4062 235.63 20.4237Z" fill="#575757"/>
<path d="M259.299 27.2917H249.119C249.119 28.4363 249.501 29.1994 250.01 29.7081C250.519 30.2169 251.155 30.4713 251.918 30.4713C252.555 30.4713 253.191 30.3441 253.573 29.9625C253.954 29.581 254.336 29.1994 254.463 28.6907H259.172C258.917 29.7081 258.535 30.5984 257.899 31.4887C257.263 32.2518 256.372 32.8877 255.481 33.3965C254.463 33.9052 253.318 34.0324 252.173 34.0324C250.773 34.0324 249.501 33.778 248.355 33.1421C247.21 32.5062 246.319 31.6159 245.81 30.5984C245.174 29.4538 244.92 28.182 244.92 26.6558C244.92 25.1296 245.174 23.8577 245.81 22.7131C246.447 21.5684 247.337 20.6781 248.355 20.1694C249.501 19.5335 250.773 19.2791 252.173 19.2791C253.573 19.2791 254.845 19.5335 255.99 20.1694C257.136 20.8053 257.899 21.5684 258.535 22.7131C259.172 23.7305 259.426 25.0024 259.426 26.4014C259.426 26.4014 259.426 26.7829 259.299 27.2917ZM254.209 23.2218C253.7 22.7131 253.064 22.4587 252.173 22.4587C251.409 22.4587 250.646 22.7131 250.137 23.2218C249.628 23.7305 249.246 24.3665 249.246 25.3839H254.972C254.972 24.4936 254.718 23.7305 254.209 23.2218Z" fill="#575757"/>
<path d="M275.078 20.6781C276.096 21.8228 276.605 23.3489 276.605 25.2567V33.778H272.024V25.8926C272.024 24.8751 271.769 24.112 271.26 23.6033C270.751 23.0946 270.115 22.8402 269.224 22.8402C268.333 22.8402 267.57 23.0946 267.061 23.7305C266.552 24.3664 266.297 25.1295 266.297 26.147V33.9052H261.844V19.2791H266.297V21.9499C266.679 21.0597 267.315 20.4237 268.206 19.915C269.097 19.4063 269.988 19.1519 271.133 19.1519C272.66 19.0247 274.06 19.5335 275.078 20.6781Z" fill="#575757"/>
<path d="M297.983 15.3362V18.8973H293.02V33.7778H288.566V18.8973H283.476V15.3362H297.983Z" fill="#575757"/>
<path d="M313.634 27.2917H303.454C303.454 28.4363 303.836 29.1994 304.345 29.7081C304.854 30.2169 305.49 30.4713 306.254 30.4713C306.89 30.4713 307.526 30.3441 307.908 29.9625C308.29 29.581 308.672 29.1994 308.799 28.6907H313.507C313.253 29.7081 312.871 30.5984 312.235 31.4887C311.598 32.2518 310.708 32.8877 309.817 33.3965C308.799 33.9052 307.654 34.0324 306.508 34.0324C305.109 34.0324 303.836 33.778 302.691 33.1421C301.546 32.5062 300.655 31.6159 300.146 30.5984C299.51 29.4538 299.255 28.182 299.255 26.6558C299.255 25.1296 299.51 23.8577 300.146 22.7131C300.782 21.5684 301.673 20.6781 302.691 20.1694C303.836 19.5335 305.109 19.2791 306.508 19.2791C307.908 19.2791 309.181 19.5335 310.326 20.1694C311.471 20.8053 312.235 21.5684 312.871 22.7131C313.507 23.7305 313.762 25.0024 313.762 26.4014C313.762 26.4014 313.634 26.7829 313.634 27.2917ZM308.417 23.2218C307.908 22.7131 307.272 22.4587 306.381 22.4587C305.618 22.4587 304.854 22.7131 304.345 23.2218C303.836 23.7305 303.454 24.3665 303.454 25.3839H309.181C309.181 24.4936 308.926 23.7305 308.417 23.2218Z" fill="#575757"/>
<path d="M327.377 20.5502C328.65 21.5677 329.413 22.9667 329.795 24.8745H325.087C324.959 24.2386 324.705 23.7298 324.196 23.3483C323.814 22.9667 323.178 22.8396 322.542 22.8396C321.778 22.8396 321.142 23.0939 320.633 23.7298C320.124 24.3658 319.869 25.256 319.869 26.4007C319.869 27.5453 320.124 28.4356 320.633 29.0715C321.142 29.7075 321.778 29.9618 322.542 29.9618C323.178 29.9618 323.814 29.8346 324.196 29.4531C324.578 29.0715 324.959 28.5628 325.087 27.9269H329.795C329.413 29.7075 328.65 31.1065 327.377 32.2511C326.105 33.2686 324.578 33.7773 322.669 33.7773C321.269 33.7773 319.997 33.523 318.851 32.887C317.706 32.2511 316.815 31.3608 316.306 30.3434C315.67 29.1987 315.416 27.9269 315.416 26.4007C315.416 24.8745 315.67 23.6027 316.306 22.458C316.943 21.3133 317.833 20.4231 318.851 19.9143C319.997 19.2784 321.269 19.024 322.669 19.024C324.45 19.024 326.105 19.5328 327.377 20.5502Z" fill="#575757"/>
<path d="M345.319 20.6781C346.337 21.8228 346.846 23.3489 346.846 25.2567V33.778H342.392V25.8926C342.392 24.8751 342.138 24.112 341.629 23.6033C341.12 23.0946 340.484 22.8402 339.593 22.8402C338.702 22.8402 337.939 23.0946 337.43 23.7305C336.921 24.3664 336.666 25.1295 336.666 26.147V33.9052H332.213V19.2791H336.666V21.9499C337.048 21.0597 337.684 20.4237 338.575 19.915C339.466 19.4063 340.356 19.1519 341.502 19.1519C343.029 19.0247 344.301 19.5335 345.319 20.6781Z" fill="#575757"/>
<path d="M360.462 19.9143C361.607 20.5502 362.498 21.4405 363.134 22.458C363.77 23.6027 364.152 24.8745 364.152 26.4007C364.152 27.9269 363.77 29.1987 363.134 30.3434C362.498 31.488 361.607 32.3783 360.462 32.887C359.317 33.523 358.044 33.7773 356.517 33.7773C355.118 33.7773 353.718 33.523 352.573 32.887C351.427 32.2511 350.537 31.3608 349.9 30.3434C349.264 29.1987 348.882 27.9269 348.882 26.4007C348.882 24.8745 349.264 23.6027 349.9 22.458C350.537 21.3133 351.427 20.4231 352.573 19.9143C353.718 19.4056 354.99 19.024 356.517 19.024C358.044 19.024 359.317 19.2784 360.462 19.9143ZM354.481 23.7298C353.845 24.3658 353.591 25.256 353.591 26.4007C353.591 27.5453 353.845 28.4356 354.481 29.0715C355.118 29.7075 355.754 29.9618 356.645 29.9618C357.535 29.9618 358.172 29.7075 358.808 29.0715C359.444 28.4356 359.699 27.5453 359.699 26.4007C359.699 25.256 359.444 24.3658 358.808 23.7298C358.172 23.0939 357.535 22.8396 356.645 22.8396C355.754 22.8396 354.99 23.2211 354.481 23.7298Z" fill="#575757"/>
<path d="M370.896 14.4457V33.7776H366.443V14.4457H370.896Z" fill="#575757"/>
<path d="M384.767 19.9143C385.912 20.5502 386.803 21.4405 387.439 22.458C388.075 23.6027 388.457 24.8745 388.457 26.4007C388.457 27.9269 388.075 29.1987 387.439 30.3434C386.803 31.488 385.912 32.3783 384.767 32.887C383.621 33.523 382.349 33.7773 380.822 33.7773C379.422 33.7773 378.022 33.523 376.877 32.887C375.732 32.2511 374.841 31.3608 374.205 30.3434C373.569 29.1987 373.187 27.9269 373.187 26.4007C373.187 24.8745 373.569 23.6027 374.205 22.458C374.841 21.3133 375.732 20.4231 376.877 19.9143C378.022 19.4056 379.295 19.024 380.822 19.024C382.349 19.024 383.621 19.2784 384.767 19.9143ZM378.659 23.7298C378.022 24.3658 377.768 25.256 377.768 26.4007C377.768 27.5453 378.022 28.4356 378.659 29.0715C379.295 29.7075 379.931 29.9618 380.822 29.9618C381.713 29.9618 382.349 29.7075 382.985 29.0715C383.621 28.4356 383.876 27.5453 383.876 26.4007C383.876 25.256 383.621 24.3658 382.985 23.7298C382.349 23.0939 381.713 22.8396 380.822 22.8396C380.058 22.8396 379.295 23.2211 378.659 23.7298Z" fill="#575757"/>
<path d="M399.146 19.7872C399.909 20.296 400.545 20.9319 400.927 21.8222V19.1513H405.381V33.6502C405.381 35.0493 405.126 36.1939 404.617 37.3385C404.108 38.4832 403.345 39.2463 402.2 39.8822C401.182 40.5181 399.782 40.8997 398.128 40.8997C395.964 40.8997 394.183 40.391 392.91 39.3735C391.638 38.356 390.747 36.957 390.493 35.1764H394.946C395.074 35.8123 395.455 36.1939 395.837 36.5755C396.346 36.957 396.982 37.0842 397.746 37.0842C398.637 37.0842 399.4 36.8298 400.036 36.3211C400.545 35.8123 400.927 34.9221 400.927 33.7774V31.2337C400.545 32.124 399.909 32.7599 399.146 33.2687C398.382 33.7774 397.364 34.0318 396.219 34.0318C395.074 34.0318 393.928 33.7774 393.038 33.1415C392.147 32.5056 391.384 31.6153 390.747 30.5978C390.238 29.4532 389.984 28.1813 389.984 26.6551C389.984 25.1289 390.238 23.8571 390.747 22.7124C391.256 21.5678 392.02 20.6775 393.038 20.1688C394.056 19.66 395.074 19.2785 396.219 19.2785C397.364 19.0241 398.382 19.2785 399.146 19.7872ZM395.455 23.8571C394.819 24.493 394.565 25.3833 394.565 26.528C394.565 27.6726 394.819 28.5629 395.455 29.1988C396.092 29.8347 396.855 30.0891 397.746 30.0891C398.637 30.0891 399.4 29.7075 400.036 29.0716C400.673 28.4357 400.927 27.5454 400.927 26.528C400.927 25.3833 400.673 24.6202 400.036 23.9843C399.4 23.3484 398.637 22.9668 397.746 22.9668C396.728 22.9668 395.964 23.2212 395.455 23.8571Z" fill="#575757"/>
<path d="M414.925 15.4632L408.562 18.1341V15.0817L414.925 12.0293V15.4632ZM413.398 19.1516V33.7777H408.944V19.1516H413.398Z" fill="#575757"/>
<path d="M425.486 19.7878C426.25 20.2965 426.886 20.9324 427.268 21.8227V19.1519H431.722V33.778H427.268V31.1071C426.886 31.9974 426.25 32.6333 425.486 33.142C424.723 33.6508 423.705 33.9051 422.56 33.9051C421.414 33.9051 420.269 33.6508 419.378 33.0149C418.488 32.379 417.724 31.4887 417.088 30.4712C416.579 29.3265 416.324 28.0547 416.324 26.5285C416.324 25.0023 416.579 23.7305 417.088 22.5858C417.597 21.4412 418.36 20.5509 419.378 20.0422C420.269 19.4062 421.414 19.1519 422.56 19.1519C423.705 19.0247 424.596 19.279 425.486 19.7878ZM421.669 23.8577C421.033 24.4936 420.778 25.3839 420.778 26.5285C420.778 27.6732 421.033 28.5634 421.669 29.1994C422.305 29.8353 423.069 30.0896 423.959 30.0896C424.85 30.0896 425.614 29.7081 426.25 29.0722C426.886 28.4363 427.141 27.546 427.141 26.5285C427.141 25.3839 426.886 24.6208 426.25 23.9848C425.614 23.3489 424.85 22.9674 423.959 22.9674C423.069 22.9674 422.305 23.2217 421.669 23.8577Z" fill="#575757"/>
<path d="M457.768 50.4984H444.371V42.9087H450.696V10.0202H444.371V2.43054H457.768L457.768 50.4984Z" fill="#FBB85D"/>
</svg>
