<svg width="135" height="148" viewBox="0 0 135 148" fill="none" xmlns="http://www.w3.org/2000/svg">
<path d="M99.5352 102.7C99.5352 127.091 73.2934 146.863 48.9031 146.863C24.5127 146.863 4.74048 127.091 4.74048 102.7C4.74048 78.3101 13.4777 56.3414 37.868 56.3414C62.2584 56.3414 99.5352 78.3101 99.5352 102.7Z" fill="#FFCB3C" fill-opacity="0.7"/>
<mask id="mask0_2_193" style="mask-type:alpha" maskUnits="userSpaceOnUse" x="0" y="0" width="135" height="148">
<path d="M108.13 94.2455C108.13 123.915 84.0778 147.967 54.4082 147.967C24.7387 147.967 0.686768 123.915 0.686768 94.2455C0.686768 64.5759 95.1199 0.499969 124.789 0.499969C154.459 0.499969 108.13 64.5759 108.13 94.2455Z" fill="#FFDB76"/>
</mask>
<g mask="url(#mask0_2_193)">
<path fill-rule="evenodd" clip-rule="evenodd" d="M48.0084 87.0534C44.6876 85.6602 40.9358 85.3828 36.8003 86.593C22.6787 90.7256 16.896 101.73 16.1227 114.839C15.0393 133.264 24.2314 155.946 32.464 167.216C33.4263 168.533 35.2742 168.819 36.5907 167.86C37.9043 166.898 38.1935 165.05 37.2312 163.733C29.5978 153.284 21.0109 132.273 22.0175 115.187C22.6373 104.62 27.077 95.5902 38.4592 92.2576C40.9211 91.5373 43.1614 91.6377 45.1775 92.3461C44.5222 93.6597 43.8964 94.9762 43.3031 96.2927C40.9328 101.565 37.3906 116.203 38.7131 126.965C39.761 135.481 43.7842 141.589 52.0848 141.364C56.8373 141.237 60.3441 138.365 62.4488 133.657C65.0435 127.851 65.3977 118.969 63.5735 110.453C62.0592 103.371 59.0541 96.5761 54.8389 92.0066C54.2485 91.3661 53.6345 90.7669 52.9999 90.212C66.8381 65.6793 91.8137 42.9147 117.456 33.2179C118.979 32.6423 119.747 30.9391 119.171 29.413C118.596 27.8898 116.889 27.1224 115.366 27.698C88.6198 37.811 62.5492 61.4817 48.0084 87.0534ZM50.1367 95.6344C49.6349 96.6587 49.1507 97.686 48.6902 98.7132C46.5619 103.445 43.3858 116.584 44.5725 126.245C45.2012 131.358 46.9457 135.596 51.9284 135.464C54.3725 135.399 55.9783 133.669 57.0587 131.248C58.4933 128.04 59.004 123.689 58.7767 119.057C58.4196 111.873 56.25 104.009 52.4303 98.4475C51.7248 97.4203 50.9603 96.4728 50.1367 95.6344Z" fill="#35312B"/>
<path fill-rule="evenodd" clip-rule="evenodd" d="M97.6905 70.1386C99.9929 56.7107 108.798 42.4238 118.259 32.5233C119.384 31.3455 119.342 29.4771 118.165 28.3495C116.987 27.2248 115.115 27.2662 113.991 28.4439C103.768 39.1443 94.3579 54.6326 91.8725 69.1408C91.5979 70.7466 92.6784 72.2727 94.2842 72.5473C95.89 72.8218 97.416 71.7444 97.6905 70.1386Z" fill="#35312B"/>
<path fill-rule="evenodd" clip-rule="evenodd" d="M114.245 27.8801C104.518 33.4325 89.5996 34.1586 78.7251 31.3426C77.1459 30.9352 75.5342 31.8858 75.1268 33.4621C74.7195 35.0383 75.6671 36.65 77.2463 37.0603C89.4728 40.2217 106.236 39.2506 117.173 33.0075C118.587 32.2016 119.08 30.3951 118.271 28.9811C117.462 27.5672 115.658 27.0742 114.245 27.8801Z" fill="#35312B"/>
</g>
</svg>
