<svg width="484" height="104" viewBox="0 0 484 104" fill="none" xmlns="http://www.w3.org/2000/svg">
<path d="M49.9771 21.4248C49.9771 22.6442 48.963 23.6598 47.7421 23.6598H29.8637C28.6443 23.6598 27.6287 22.6442 27.6287 21.4248V3.5463C27.6287 2.32693 28.6428 1.3113 29.8637 1.3113H47.7421C48.9615 1.3113 49.9771 2.32693 49.9771 3.5463V21.4248Z" fill="#333333"/>
<path d="M76.7958 21.4248C76.7958 22.6442 75.7801 23.6598 74.5608 23.6598H56.6823C55.4629 23.6598 54.4473 22.6442 54.4473 21.4248V3.5463C54.4473 2.32693 55.4629 1.3113 56.6823 1.3113H74.5608C75.7786 1.3113 76.7958 2.32693 76.7958 3.5463V21.4248Z" fill="#333333"/>
<path d="M76.7958 74.858C76.7958 76.0774 75.7801 77.093 74.5608 77.093H56.6823C55.4629 77.093 54.4473 76.0774 54.4473 74.858V56.978C54.4473 55.7586 55.4629 54.743 56.6823 54.743H74.5608C75.7786 54.743 76.7958 55.7586 76.7958 56.978V74.858Z" fill="#333333"/>
<path d="M23.3639 48.0411C23.3639 49.259 22.3482 50.2746 21.1289 50.2746H3.25038C2.03102 50.2746 1.01538 49.259 1.01538 48.0411V30.1611C1.01538 28.9418 2.0295 27.9261 3.25038 27.9261H21.1289C22.3482 27.9261 23.3639 28.9418 23.3639 30.1611V48.0411Z" fill="#333333"/>
<path d="M49.9771 48.0411C49.9771 49.259 48.963 50.2746 47.7421 50.2746H29.8637C28.6443 50.2746 27.6287 49.259 27.6287 48.0411V30.1611C27.6287 28.9418 28.6428 27.9261 29.8637 27.9261H47.7421C48.9615 27.9261 49.9771 28.9418 49.9771 30.1611V48.0411Z" fill="#333333"/>
<path d="M23.3639 74.858C23.3639 76.0774 22.3482 77.093 21.1289 77.093H3.25038C2.03102 77.093 1.01538 76.0774 1.01538 74.858V56.978C1.01538 55.7586 2.0295 54.743 3.25038 54.743H21.1289C22.3482 54.743 23.3639 55.7586 23.3639 56.978V74.858Z" fill="#333333"/>
<path d="M49.9771 74.858C49.9771 76.0774 48.963 77.093 47.7421 77.093H29.8637C28.6443 77.093 27.6287 76.0774 27.6287 74.858V56.978C27.6287 55.7586 28.6428 54.743 29.8637 54.743H47.7421C48.9615 54.743 49.9771 55.7586 49.9771 56.978V74.858Z" fill="#333333"/>
<path d="M23.3639 101.673C23.3639 102.893 22.3482 103.908 21.1289 103.908H3.25038C2.03102 103.908 1.01538 102.893 1.01538 101.673V83.7964C1.01538 82.577 2.0295 81.5629 3.25038 81.5629H21.1289C22.3482 81.5629 23.3639 82.577 23.3639 83.7964V101.673Z" fill="#333333"/>
<path d="M49.9771 101.673C49.9771 102.893 48.963 103.908 47.7421 103.908H29.8637C28.6443 103.908 27.6287 102.893 27.6287 101.673V83.7964C27.6287 82.577 28.6428 81.5629 29.8637 81.5629H47.7421C48.9615 81.5629 49.9771 82.577 49.9771 83.7964V101.673Z" fill="#333333"/>
<path d="M24.3798 12.2826C24.3798 18.9876 18.8941 24.4732 12.1891 24.4732C5.48563 24.4732 0 18.9876 0 12.2826C0 5.57907 5.48563 0.0919189 12.1891 0.0919189C18.8941 0.0919189 24.3798 5.57907 24.3798 12.2826Z" fill="#333333"/>
<path d="M88.5622 49.3708V33.222H91.9864V49.3708H88.5622ZM110.377 49.3708H106.025L99.0004 37.1543H98.9009C98.9304 37.6624 98.9562 38.1742 98.9783 38.6897C99.0004 39.2051 99.0224 39.7206 99.0445 40.2361C99.0666 40.7442 99.0887 41.2559 99.1108 41.7714V49.3708H96.0512V33.222H100.37L107.384 45.3171H107.461C107.447 44.8163 107.428 44.3193 107.406 43.8259C107.384 43.3325 107.362 42.8392 107.34 42.3458C107.325 41.8524 107.31 41.359 107.296 40.8657V33.222H110.377V49.3708ZM123.986 44.8863C123.986 45.8436 123.754 46.6757 123.29 47.3826C122.826 48.0895 122.148 48.6345 121.257 49.0174C120.374 49.4003 119.299 49.5917 118.032 49.5917C117.472 49.5917 116.924 49.5549 116.386 49.4813C115.856 49.4076 115.344 49.3009 114.851 49.161C114.365 49.0137 113.901 48.8333 113.459 48.6197V45.4386C114.225 45.7773 115.02 46.0829 115.845 46.3554C116.67 46.6278 117.487 46.7641 118.297 46.7641C118.857 46.7641 119.306 46.6904 119.645 46.5431C119.991 46.3959 120.241 46.1934 120.396 45.9356C120.55 45.6779 120.628 45.3833 120.628 45.052C120.628 44.647 120.492 44.3009 120.219 44.0137C119.947 43.7265 119.571 43.4577 119.092 43.2073C118.621 42.957 118.087 42.6882 117.491 42.401C117.115 42.2243 116.707 42.0107 116.265 41.7604C115.823 41.5026 115.403 41.1897 115.006 40.8215C114.608 40.4533 114.28 40.0078 114.022 39.4849C113.772 38.9548 113.647 38.3215 113.647 37.5851C113.647 36.6204 113.868 35.7957 114.31 35.1109C114.751 34.426 115.381 33.9032 116.198 33.5424C117.023 33.1742 117.995 32.9901 119.115 32.9901C119.954 32.9901 120.753 33.0895 121.511 33.2883C122.277 33.4798 123.076 33.7596 123.908 34.1278L122.804 36.7898C122.06 36.4879 121.394 36.2559 120.805 36.0939C120.215 35.9246 119.615 35.8399 119.004 35.8399C118.577 35.8399 118.212 35.9098 117.911 36.0497C117.609 36.1823 117.38 36.3737 117.226 36.6241C117.071 36.8671 116.994 37.1506 116.994 37.4746C116.994 37.8576 117.104 38.1816 117.325 38.4467C117.553 38.7044 117.892 38.9548 118.341 39.1978C118.798 39.4408 119.365 39.7243 120.042 40.0483C120.867 40.4386 121.57 40.8472 122.152 41.2743C122.741 41.6941 123.194 42.1911 123.511 42.7655C123.827 43.3325 123.986 44.0394 123.986 44.8863ZM133.143 49.3708H129.718V36.0718H125.333V33.222H137.528V36.0718H133.143V49.3708ZM140.013 49.3708V33.222H143.437V49.3708H140.013ZM153.732 49.3708H150.308V36.0718H145.922V33.222H158.117V36.0718H153.732V49.3708ZM173.746 33.222V43.6713C173.746 44.7832 173.5 45.7883 173.006 46.6867C172.52 47.5777 171.78 48.2847 170.786 48.8075C169.799 49.3303 168.555 49.5917 167.053 49.5917C164.917 49.5917 163.29 49.0468 162.171 47.957C161.051 46.8671 160.492 45.4238 160.492 43.6271V33.222H163.905V43.1079C163.905 44.4408 164.177 45.376 164.722 45.9135C165.267 46.4511 166.073 46.7199 167.141 46.7199C167.892 46.7199 168.5 46.591 168.964 46.3333C169.435 46.0755 169.781 45.6779 170.002 45.1403C170.223 44.6028 170.333 43.9179 170.333 43.0858V33.222H173.746ZM183.931 49.3708H180.506V36.0718H176.121V33.222H188.316V36.0718H183.931V49.3708ZM205.459 41.2743C205.459 42.5188 205.304 43.6529 204.995 44.6764C204.685 45.6926 204.214 46.5689 203.581 47.3053C202.955 48.0417 202.16 48.6087 201.195 49.0063C200.23 49.3966 199.089 49.5917 197.771 49.5917C196.453 49.5917 195.311 49.3966 194.347 49.0063C193.382 48.6087 192.583 48.0417 191.95 47.3053C191.324 46.5689 190.856 45.6889 190.547 44.6654C190.238 43.6418 190.083 42.5041 190.083 41.2523C190.083 39.5807 190.355 38.1263 190.9 36.8892C191.453 35.6447 192.3 34.6801 193.441 33.9952C194.582 33.3104 196.033 32.968 197.793 32.968C199.545 32.968 200.985 33.3104 202.112 33.9952C203.246 34.6801 204.085 35.6447 204.63 36.8892C205.182 38.1337 205.459 39.5954 205.459 41.2743ZM193.673 41.2743C193.673 42.401 193.813 43.373 194.093 44.1904C194.38 45.0004 194.825 45.6263 195.429 46.0682C196.033 46.5026 196.814 46.7199 197.771 46.7199C198.743 46.7199 199.531 46.5026 200.135 46.0682C200.738 45.6263 201.177 45.0004 201.449 44.1904C201.729 43.373 201.869 42.401 201.869 41.2743C201.869 39.5807 201.552 38.2478 200.919 37.2758C200.286 36.3038 199.244 35.8178 197.793 35.8178C196.828 35.8178 196.04 36.0387 195.429 36.4805C194.825 36.915 194.38 37.5409 194.093 38.3583C193.813 39.1683 193.673 40.1403 193.673 41.2743ZM218.051 49.3708H214.682V33.222H223.938V36.0276H218.051V40.1919H223.529V42.9864H218.051V49.3708ZM236.398 49.3708H227.097V33.222H236.398V36.0276H230.521V39.5733H235.989V42.3789H230.521V46.5431H236.398V49.3708ZM253.176 41.1418C253.176 42.9607 252.826 44.4813 252.127 45.7037C251.434 46.9187 250.429 47.8355 249.111 48.454C247.793 49.0652 246.206 49.3708 244.35 49.3708H239.778V33.222H244.848C246.541 33.222 248.01 33.524 249.255 34.1278C250.499 34.7243 251.464 35.6116 252.149 36.7898C252.834 37.9606 253.176 39.4113 253.176 41.1418ZM249.619 41.2302C249.619 40.0372 249.443 39.0578 249.089 38.292C248.743 37.5188 248.227 36.9481 247.543 36.5799C246.865 36.2117 246.026 36.0276 245.024 36.0276H243.202V46.5431H244.671C246.342 46.5431 247.583 46.0976 248.393 45.2066C249.211 44.3156 249.619 42.9901 249.619 41.2302ZM265.823 49.3708H256.523V33.222H265.823V36.0276H259.947V39.5733H265.415V42.3789H259.947V46.5431H265.823V49.3708ZM273.909 33.222C275.374 33.222 276.582 33.3988 277.532 33.7522C278.489 34.1057 279.2 34.6396 279.663 35.3539C280.127 36.0682 280.359 36.9702 280.359 38.0601C280.359 38.7964 280.219 39.4408 279.94 39.993C279.66 40.5453 279.292 41.0129 278.835 41.3958C278.379 41.7788 277.885 42.0917 277.355 42.3347L282.105 49.3708H278.305L274.45 43.1742H272.627V49.3708H269.203V33.222H273.909ZM273.666 36.0276H272.627V40.3907H273.732C274.866 40.3907 275.676 40.2029 276.162 39.8274C276.655 39.4444 276.902 38.8848 276.902 38.1484C276.902 37.3826 276.637 36.8377 276.107 36.5137C275.584 36.1897 274.77 36.0276 273.666 36.0276ZM294.023 49.3708L292.852 45.5269H286.965L285.794 49.3708H282.105L287.804 33.1558H291.99L297.712 49.3708H294.023ZM292.035 42.6551L290.864 38.8995C290.79 38.6492 290.691 38.3288 290.566 37.9386C290.448 37.5409 290.326 37.1396 290.201 36.7346C290.083 36.3222 289.988 35.9651 289.914 35.6631C289.84 35.9651 289.737 36.3406 289.605 36.7898C289.479 37.2316 289.358 37.6514 289.24 38.049C289.122 38.4467 289.038 38.7302 288.986 38.8995L287.826 42.6551H292.035ZM299.756 49.3708V33.222H303.18V46.5431H309.73V49.3708H299.756Z" fill="#333333"/>
<path d="M90.878 60.9454C91.7549 60.9454 92.4784 61.055 93.0484 61.2742C93.6233 61.4886 94.052 61.8174 94.3346 62.2608C94.6171 62.7041 94.7584 63.2692 94.7584 63.9562C94.7584 64.5213 94.6561 64.9939 94.4515 65.3739C94.2469 65.749 93.9789 66.0535 93.6476 66.2874C93.3163 66.5212 92.9631 66.7015 92.588 66.8282L95.5184 71.6294H94.0715L91.4553 67.1716H89.2337V71.6294H87.9914V60.9454H90.878ZM90.8049 62.0196H89.2337V66.1193H90.9291C91.8012 66.1193 92.4418 65.9415 92.8511 65.5858C93.2652 65.2302 93.4722 64.7065 93.4722 64.0146C93.4722 63.2887 93.253 62.7748 92.8145 62.4727C92.3809 62.1706 91.711 62.0196 90.8049 62.0196ZM98.2589 63.62V71.6294H97.0458V63.62H98.2589ZM97.6669 60.6238C97.8667 60.6238 98.0372 60.6896 98.1785 60.8211C98.3246 60.9478 98.3977 61.1475 98.3977 61.4204C98.3977 61.6883 98.3246 61.8881 98.1785 62.0196C98.0372 62.1511 97.8667 62.2169 97.6669 62.2169C97.4575 62.2169 97.2821 62.1511 97.1408 62.0196C97.0044 61.8881 96.9362 61.6883 96.9362 61.4204C96.9362 61.1475 97.0044 60.9478 97.1408 60.8211C97.2821 60.6896 97.4575 60.6238 97.6669 60.6238ZM107.737 67.6101C107.737 68.2678 107.652 68.8549 107.481 69.3713C107.311 69.8877 107.065 70.3238 106.743 70.6794C106.422 71.0351 106.032 71.3079 105.574 71.4979C105.121 71.683 104.607 71.7756 104.032 71.7756C103.496 71.7756 103.004 71.683 102.556 71.4979C102.113 71.3079 101.728 71.0351 101.401 70.6794C101.08 70.3238 100.829 69.8877 100.649 69.3713C100.473 68.8549 100.385 68.2678 100.385 67.6101C100.385 66.7332 100.534 65.9878 100.831 65.3739C101.128 64.7552 101.552 64.285 102.103 63.9635C102.658 63.6371 103.318 63.4739 104.083 63.4739C104.814 63.4739 105.452 63.6371 105.998 63.9635C106.548 64.2899 106.975 64.7625 107.277 65.3812C107.584 65.9951 107.737 66.738 107.737 67.6101ZM101.642 67.6101C101.642 68.2532 101.728 68.811 101.898 69.2836C102.069 69.7562 102.332 70.1216 102.687 70.3798C103.043 70.638 103.501 70.7671 104.061 70.7671C104.617 70.7671 105.072 70.638 105.428 70.3798C105.788 70.1216 106.054 69.7562 106.224 69.2836C106.395 68.811 106.48 68.2532 106.48 67.6101C106.48 66.9719 106.395 66.4214 106.224 65.9585C106.054 65.4908 105.791 65.1303 105.435 64.877C105.08 64.6236 104.619 64.497 104.054 64.497C103.221 64.497 102.609 64.7722 102.22 65.3228C101.835 65.8733 101.642 66.6357 101.642 67.6101ZM118.472 66.0316H122.207V71.2129C121.646 71.4029 121.069 71.5442 120.475 71.6367C119.885 71.7293 119.225 71.7756 118.494 71.7756C117.384 71.7756 116.446 71.5539 115.681 71.1106C114.921 70.6672 114.343 70.0363 113.949 69.2178C113.554 68.3945 113.357 67.4177 113.357 66.2874C113.357 65.1815 113.574 64.2168 114.007 63.3935C114.446 62.5701 115.077 61.9319 115.9 61.4788C116.728 61.0209 117.722 60.7919 118.882 60.7919C119.476 60.7919 120.039 60.8479 120.57 60.96C121.106 61.0672 121.603 61.2206 122.061 61.4204L121.586 62.5019C121.191 62.3314 120.755 62.1853 120.277 62.0635C119.805 61.9417 119.315 61.8808 118.809 61.8808C117.936 61.8808 117.189 62.061 116.565 62.4215C115.946 62.7821 115.471 63.2912 115.14 63.9489C114.814 64.6066 114.65 65.3861 114.65 66.2874C114.65 67.1789 114.794 67.956 115.082 68.6186C115.369 69.2763 115.817 69.7878 116.426 70.1532C117.035 70.5186 117.82 70.7013 118.779 70.7013C119.262 70.7013 119.676 70.6745 120.022 70.6209C120.368 70.5625 120.682 70.4943 120.964 70.4163V67.1424H118.472V66.0316ZM128.25 63.4739C128.411 63.4739 128.579 63.4836 128.755 63.5031C128.93 63.5177 129.086 63.5396 129.222 63.5689L129.069 64.6943C128.937 64.6602 128.791 64.6334 128.63 64.6139C128.47 64.5944 128.318 64.5847 128.177 64.5847C127.856 64.5847 127.551 64.6504 127.264 64.782C126.981 64.9086 126.733 65.0938 126.518 65.3374C126.304 65.5761 126.136 65.866 126.014 66.207C125.892 66.5432 125.831 66.9183 125.831 67.3324V71.6294H124.611V63.62H125.619L125.751 65.0962H125.802C125.968 64.799 126.168 64.5286 126.401 64.285C126.635 64.0366 126.906 63.8393 127.213 63.6931C127.524 63.5469 127.87 63.4739 128.25 63.4739ZM133.731 63.4885C134.686 63.4885 135.395 63.7028 135.858 64.1316C136.321 64.5603 136.552 65.2448 136.552 66.1851V71.6294H135.668L135.434 70.4456H135.375C135.151 70.7379 134.917 70.9839 134.674 71.1836C134.43 71.3785 134.148 71.5271 133.826 71.6294C133.509 71.7269 133.12 71.7756 132.657 71.7756C132.17 71.7756 131.736 71.6903 131.356 71.5198C130.981 71.3493 130.684 71.0911 130.465 70.7452C130.25 70.3993 130.143 69.9608 130.143 69.4298C130.143 68.6308 130.46 68.0169 131.093 67.5882C131.726 67.1595 132.691 66.9256 133.987 66.8866L135.368 66.8282V66.3385C135.368 65.6467 135.22 65.162 134.922 64.8843C134.625 64.6066 134.206 64.4677 133.665 64.4677C133.246 64.4677 132.847 64.5286 132.467 64.6504C132.087 64.7722 131.726 64.916 131.385 65.0816L131.013 64.1608C131.373 63.9757 131.787 63.8173 132.255 63.6858C132.723 63.5543 133.215 63.4885 133.731 63.4885ZM135.354 67.6832L134.133 67.7343C133.134 67.7733 132.43 67.9365 132.021 68.224C131.612 68.5114 131.407 68.9182 131.407 69.4444C131.407 69.9023 131.546 70.2409 131.824 70.4602C132.102 70.6794 132.469 70.789 132.927 70.789C133.639 70.789 134.221 70.5917 134.674 70.1971C135.127 69.8025 135.354 69.2105 135.354 68.4213V67.6832ZM142.844 63.4739C143.794 63.4739 144.513 63.7077 145 64.1754C145.487 64.6383 145.731 65.3837 145.731 66.4116V71.6294H144.532V66.492C144.532 65.8246 144.379 65.3252 144.072 64.9939C143.77 64.6626 143.304 64.497 142.676 64.497C141.789 64.497 141.166 64.7479 140.805 65.2497C140.445 65.7515 140.264 66.4798 140.264 67.4347V71.6294H139.051V63.62H140.031L140.213 64.7747H140.279C140.45 64.4921 140.666 64.2558 140.929 64.0658C141.192 63.8709 141.487 63.7248 141.814 63.6273C142.14 63.525 142.484 63.4739 142.844 63.4739ZM151.08 71.7756C150.067 71.7756 149.263 71.4297 148.668 70.7379C148.079 70.0461 147.784 69.0181 147.784 67.654C147.784 66.2752 148.086 65.2351 148.69 64.5335C149.294 63.8271 150.098 63.4739 151.102 63.4739C151.526 63.4739 151.896 63.5299 152.213 63.6419C152.529 63.754 152.802 63.905 153.031 64.095C153.26 64.2802 153.453 64.4921 153.609 64.7308H153.696C153.677 64.5798 153.657 64.3727 153.638 64.1097C153.618 63.8466 153.609 63.6322 153.609 63.4666V60.2584H154.822V71.6294H153.842L153.66 70.4894H153.609C153.457 70.7281 153.265 70.9449 153.031 71.1398C152.802 71.3347 152.527 71.4906 152.205 71.6075C151.889 71.7196 151.514 71.7756 151.08 71.7756ZM151.27 70.7671C152.127 70.7671 152.734 70.5235 153.09 70.0363C153.445 69.5491 153.623 68.8256 153.623 67.8659V67.6466C153.623 66.6284 153.453 65.8465 153.112 65.3008C152.775 64.7552 152.162 64.4824 151.27 64.4824C150.525 64.4824 149.967 64.7698 149.596 65.3447C149.226 65.9147 149.041 66.6942 149.041 67.6832C149.041 68.6673 149.224 69.4273 149.589 69.9632C149.959 70.4991 150.52 70.7671 151.27 70.7671ZM160.478 63.4739C161.16 63.4739 161.745 63.6249 162.232 63.927C162.719 64.229 163.092 64.6529 163.35 65.1985C163.608 65.7393 163.737 66.3726 163.737 67.0986V67.8513H158.205C158.22 68.7915 158.454 69.5077 158.907 69.9998C159.36 70.4918 159.998 70.7379 160.821 70.7379C161.328 70.7379 161.776 70.6916 162.166 70.599C162.556 70.5065 162.96 70.37 163.379 70.1898V71.2567C162.975 71.437 162.573 71.5685 162.173 71.6513C161.779 71.7342 161.311 71.7756 160.77 71.7756C160 71.7756 159.328 71.6197 158.753 71.3079C158.183 70.9912 157.74 70.5284 157.423 69.9194C157.107 69.3104 156.948 68.565 156.948 67.6832C156.948 66.8209 157.092 66.0755 157.379 65.447C157.672 64.8136 158.081 64.3265 158.607 63.9854C159.138 63.6444 159.762 63.4739 160.478 63.4739ZM160.463 64.4677C159.815 64.4677 159.299 64.6797 158.914 65.1035C158.529 65.5274 158.3 66.1193 158.227 66.8793H162.466C162.461 66.4019 162.385 65.9829 162.239 65.6224C162.098 65.257 161.881 64.9744 161.589 64.7747C161.296 64.57 160.921 64.4677 160.463 64.4677ZM172.536 71.7756C171.522 71.7756 170.719 71.4297 170.124 70.7379C169.535 70.0461 169.24 69.0181 169.24 67.654C169.24 66.2752 169.542 65.2351 170.146 64.5335C170.75 63.8271 171.554 63.4739 172.558 63.4739C172.982 63.4739 173.352 63.5299 173.669 63.6419C173.985 63.754 174.258 63.905 174.487 64.095C174.716 64.2802 174.908 64.4921 175.064 64.7308H175.152C175.133 64.5798 175.113 64.3727 175.094 64.1097C175.074 63.8466 175.064 63.6322 175.064 63.4666V60.2584H176.277V71.6294H175.298L175.115 70.4894H175.064C174.913 70.7281 174.721 70.9449 174.487 71.1398C174.258 71.3347 173.983 71.4906 173.661 71.6075C173.345 71.7196 172.969 71.7756 172.536 71.7756ZM172.726 70.7671C173.583 70.7671 174.19 70.5235 174.545 70.0363C174.901 69.5491 175.079 68.8256 175.079 67.8659V67.6466C175.079 66.6284 174.908 65.8465 174.567 65.3008C174.231 64.7552 173.617 64.4824 172.726 64.4824C171.98 64.4824 171.423 64.7698 171.052 65.3447C170.682 65.9147 170.497 66.6942 170.497 67.6832C170.497 68.6673 170.68 69.4273 171.045 69.9632C171.415 70.4991 171.976 70.7671 172.726 70.7671ZM185.756 67.6101C185.756 68.2678 185.67 68.8549 185.5 69.3713C185.329 69.8877 185.083 70.3238 184.762 70.6794C184.44 71.0351 184.051 71.3079 183.593 71.4979C183.14 71.683 182.626 71.7756 182.051 71.7756C181.515 71.7756 181.023 71.683 180.574 71.4979C180.131 71.3079 179.746 71.0351 179.42 70.6794C179.098 70.3238 178.847 69.8877 178.667 69.3713C178.492 68.8549 178.404 68.2678 178.404 67.6101C178.404 66.7332 178.553 65.9878 178.85 65.3739C179.147 64.7552 179.571 64.285 180.121 63.9635C180.677 63.6371 181.337 63.4739 182.102 63.4739C182.833 63.4739 183.471 63.6371 184.016 63.9635C184.567 64.2899 184.993 64.7625 185.295 65.3812C185.602 65.9951 185.756 66.738 185.756 67.6101ZM179.661 67.6101C179.661 68.2532 179.746 68.811 179.917 69.2836C180.087 69.7562 180.35 70.1216 180.706 70.3798C181.062 70.638 181.52 70.7671 182.08 70.7671C182.635 70.7671 183.091 70.638 183.446 70.3798C183.807 70.1216 184.072 69.7562 184.243 69.2836C184.414 68.811 184.499 68.2532 184.499 67.6101C184.499 66.9719 184.414 66.4214 184.243 65.9585C184.072 65.4908 183.809 65.1303 183.454 64.877C183.098 64.6236 182.638 64.497 182.073 64.497C181.239 64.497 180.628 64.7722 180.238 65.3228C179.853 65.8733 179.661 66.6357 179.661 67.6101ZM200.276 71.6294H198.844L193.02 62.6554H192.961C192.976 62.8941 192.993 63.1669 193.012 63.4739C193.032 63.7759 193.047 64.0999 193.056 64.4458C193.071 64.7868 193.078 65.1352 193.078 65.4908V71.6294H191.924V60.9454H193.349L199.151 69.8902H199.202C199.192 69.7196 199.18 69.4785 199.166 69.1667C199.151 68.85 199.136 68.5114 199.122 68.1509C199.112 67.7855 199.107 67.4469 199.107 67.1351V60.9454H200.276V71.6294ZM209.915 67.6101C209.915 68.2678 209.83 68.8549 209.66 69.3713C209.489 69.8877 209.243 70.3238 208.922 70.6794C208.6 71.0351 208.21 71.3079 207.752 71.4979C207.299 71.683 206.785 71.7756 206.21 71.7756C205.674 71.7756 205.182 71.683 204.734 71.4979C204.291 71.3079 203.906 71.0351 203.58 70.6794C203.258 70.3238 203.007 69.8877 202.827 69.3713C202.651 68.8549 202.564 68.2678 202.564 67.6101C202.564 66.7332 202.712 65.9878 203.01 65.3739C203.307 64.7552 203.731 64.285 204.281 63.9635C204.836 63.6371 205.497 63.4739 206.262 63.4739C206.992 63.4739 207.631 63.6371 208.176 63.9635C208.727 64.2899 209.153 64.7625 209.455 65.3812C209.762 65.9951 209.915 66.738 209.915 67.6101ZM203.821 67.6101C203.821 68.2532 203.906 68.811 204.076 69.2836C204.247 69.7562 204.51 70.1216 204.866 70.3798C205.221 70.638 205.679 70.7671 206.24 70.7671C206.795 70.7671 207.251 70.638 207.606 70.3798C207.967 70.1216 208.232 69.7562 208.403 69.2836C208.573 68.811 208.658 68.2532 208.658 67.6101C208.658 66.9719 208.573 66.4214 208.403 65.9585C208.232 65.4908 207.969 65.1303 207.613 64.877C207.258 64.6236 206.797 64.497 206.232 64.497C205.399 64.497 204.788 64.7722 204.398 65.3228C204.013 65.8733 203.821 66.6357 203.821 67.6101ZM215.652 63.4739C215.813 63.4739 215.981 63.4836 216.156 63.5031C216.332 63.5177 216.488 63.5396 216.624 63.5689L216.471 64.6943C216.339 64.6602 216.193 64.6334 216.032 64.6139C215.871 64.5944 215.72 64.5847 215.579 64.5847C215.257 64.5847 214.953 64.6504 214.666 64.782C214.383 64.9086 214.135 65.0938 213.92 65.3374C213.706 65.5761 213.538 65.866 213.416 66.207C213.294 66.5432 213.233 66.9183 213.233 67.3324V71.6294H212.013V63.62H213.021L213.153 65.0962H213.204C213.37 64.799 213.569 64.5286 213.803 64.285C214.037 64.0366 214.307 63.8393 214.614 63.6931C214.926 63.5469 215.272 63.4739 215.652 63.4739ZM220.724 70.7817C220.924 70.7817 221.128 70.7647 221.338 70.7306C221.547 70.6965 221.718 70.655 221.849 70.6063V71.549C221.708 71.6124 221.511 71.666 221.257 71.7098C221.009 71.7537 220.765 71.7756 220.526 71.7756C220.103 71.7756 219.718 71.7025 219.372 71.5563C219.026 71.4053 218.748 71.152 218.539 70.7963C218.334 70.4407 218.232 69.9486 218.232 69.3201V64.57H217.092V63.9781L218.239 63.5031L218.721 61.7638H219.452V63.62H221.798V64.57H219.452V69.2836C219.452 69.7854 219.567 70.1605 219.796 70.409C220.03 70.6575 220.339 70.7817 220.724 70.7817ZM226.555 63.4739C227.237 63.4739 227.822 63.6249 228.309 63.927C228.796 64.229 229.169 64.6529 229.427 65.1985C229.686 65.7393 229.815 66.3726 229.815 67.0986V67.8513H224.283C224.297 68.7915 224.531 69.5077 224.984 69.9998C225.437 70.4918 226.076 70.7379 226.899 70.7379C227.406 70.7379 227.854 70.6916 228.244 70.599C228.633 70.5065 229.038 70.37 229.457 70.1898V71.2567C229.052 71.437 228.65 71.5685 228.251 71.6513C227.856 71.7342 227.389 71.7756 226.848 71.7756C226.078 71.7756 225.406 71.6197 224.831 71.3079C224.261 70.9912 223.817 70.5284 223.501 69.9194C223.184 69.3104 223.026 68.565 223.026 67.6832C223.026 66.8209 223.169 66.0755 223.457 65.447C223.749 64.8136 224.158 64.3265 224.685 63.9854C225.216 63.6444 225.839 63.4739 226.555 63.4739ZM226.541 64.4677C225.893 64.4677 225.376 64.6797 224.992 65.1035C224.607 65.5274 224.378 66.1193 224.305 66.8793H228.543C228.538 66.4019 228.463 65.9829 228.317 65.6224C228.175 65.257 227.959 64.9744 227.666 64.7747C227.374 64.57 226.999 64.4677 226.541 64.4677Z" fill="#333333"/>
</svg>
