<svg width="19" height="19" viewBox="0 0 19 19" fill="none" xmlns="http://www.w3.org/2000/svg">
<path fill-rule="evenodd" clip-rule="evenodd" d="M0.349609 9.89526C0.349609 6.30012 0.349609 4.50255 1.2063 3.20782C1.58886 2.62965 2.084 2.13451 2.66216 1.75196C3.9569 0.895264 5.75447 0.895264 9.34961 0.895264C12.9447 0.895264 14.7423 0.895264 16.0371 1.75196C16.6152 2.13451 17.1104 2.62965 17.4929 3.20782C18.3496 4.50255 18.3496 6.30012 18.3496 9.89526C18.3496 13.4904 18.3496 15.288 17.4929 16.5827C17.1104 17.1609 16.6152 17.656 16.0371 18.0386C14.7423 18.8953 12.9447 18.8953 9.34961 18.8953C5.75447 18.8953 3.9569 18.8953 2.66216 18.0386C2.084 17.656 1.58886 17.1609 1.2063 16.5827C0.349609 15.288 0.349609 13.4904 0.349609 9.89526ZM14.0089 9.89549C14.0089 12.4688 11.9228 14.5549 9.34945 14.5549C6.77613 14.5549 4.69004 12.4688 4.69004 9.89549C4.69004 7.32217 6.77613 5.23608 9.34945 5.23608C11.9228 5.23608 14.0089 7.32217 14.0089 9.89549ZM9.34945 12.9785C11.0521 12.9785 12.4325 11.5982 12.4325 9.89549C12.4325 8.19279 11.0521 6.81249 9.34945 6.81249C7.64675 6.81249 6.26645 8.19279 6.26645 9.89549C6.26645 11.5982 7.64675 12.9785 9.34945 12.9785ZM14.1929 6.09681C14.7975 6.09681 15.2877 5.60664 15.2877 5.00199C15.2877 4.39733 14.7975 3.90717 14.1929 3.90717C13.5882 3.90717 13.0981 4.39733 13.0981 5.00199C13.0981 5.60664 13.5882 6.09681 14.1929 6.09681Z" fill="#828282"/>
</svg>
