<svg width="19" height="18" viewBox="0 0 19 18" fill="none" xmlns="http://www.w3.org/2000/svg">
<g id="Social Media Icon Square/LinkedIn">
<g id="Group 73">
<path id="LinkedIn" d="M0.849609 2.81518C0.849609 2.23797 1.05232 1.76178 1.45772 1.38661C1.86312 1.01142 2.39016 0.823837 3.0388 0.823837C3.67587 0.823837 4.1913 1.00853 4.58513 1.37795C4.99053 1.7589 5.19324 2.25528 5.19324 2.86713C5.19324 3.42124 4.99633 3.88299 4.6025 4.25241C4.19711 4.63336 3.66428 4.82384 3.00405 4.82384H2.98668C2.3496 4.82384 1.83417 4.63336 1.44034 4.25241C1.04651 3.87146 0.849609 3.39237 0.849609 2.81518ZM1.07548 17.9667V6.39959H4.93262V17.9667H1.07548ZM7.06969 17.9667H10.9268V11.5078C10.9268 11.1038 10.9732 10.7921 11.0658 10.5728C11.228 10.1802 11.4741 9.84835 11.8042 9.57708C12.1344 9.30579 12.5484 9.17015 13.0465 9.17015C14.3438 9.17015 14.9925 10.0417 14.9925 11.7849V17.9667H18.8496V11.3347C18.8496 9.62614 18.4442 8.33033 17.6334 7.44721C16.8226 6.56409 15.7512 6.12254 14.4191 6.12254C12.9249 6.12254 11.7608 6.76323 10.9268 8.04461V8.07925H10.9095L10.9268 8.04461V6.39959H7.06969C7.09285 6.769 7.10444 7.91762 7.10444 9.84548C7.10444 11.7733 7.09285 14.4804 7.06969 17.9667Z" fill="#828282"/>
</g>
</g>
</svg>
