<svg width="19" height="16" viewBox="0 0 19 16" fill="none" xmlns="http://www.w3.org/2000/svg">
<path d="M12.3767 0.596625V0.593384H13.2207L13.529 0.654976C13.7346 0.694962 13.9213 0.747364 14.089 0.812197C14.2567 0.877031 14.4191 0.952676 14.5759 1.03912C14.7328 1.12555 14.8751 1.21363 15.0028 1.30331C15.1294 1.39192 15.243 1.48593 15.3437 1.58534C15.4432 1.68583 15.5985 1.71176 15.8095 1.66314C16.0205 1.61451 16.2477 1.54697 16.4912 1.46053C16.7346 1.37409 16.9754 1.27684 17.2135 1.16878C17.4515 1.06072 17.5965 0.992111 17.6485 0.962935C17.6993 0.932691 17.7264 0.916482 17.7296 0.91431L17.7328 0.909448L17.7491 0.901344L17.7653 0.893239L17.7815 0.885135L17.7978 0.877031L17.801 0.872168L17.8059 0.868927L17.8108 0.865685L17.814 0.860823L17.8302 0.85596L17.8465 0.852718L17.8432 0.877031L17.8383 0.901344L17.8302 0.925656L17.8221 0.949969L17.814 0.966177L17.8059 0.982386L17.7978 1.0067C17.7924 1.02291 17.787 1.04451 17.7815 1.07153C17.7761 1.09855 17.7247 1.2066 17.6273 1.3957C17.53 1.5848 17.4082 1.7766 17.2621 1.9711C17.1161 2.1656 16.9851 2.31254 16.8694 2.41197C16.7525 2.51246 16.6751 2.58269 16.6373 2.62268C16.5994 2.66373 16.5534 2.70155 16.4993 2.73614L16.4181 2.78962L16.4019 2.79773L16.3857 2.80583L16.3824 2.81069L16.3776 2.81394L16.3727 2.81718L16.3694 2.82204L16.3532 2.83014L16.337 2.83825L16.3338 2.84311L16.3289 2.84635L16.324 2.84959L16.3208 2.85446L16.3175 2.85932L16.3126 2.86256L16.3078 2.8658L16.3045 2.87067H16.3857L16.8401 2.77341C17.1431 2.70858 17.4326 2.63025 17.7085 2.53839L18.1467 2.39252L18.1954 2.37631L18.2198 2.3682L18.236 2.3601L18.2522 2.352L18.2685 2.34389L18.2847 2.33579L18.3171 2.33093L18.3496 2.32768V2.3601L18.3415 2.36334L18.3334 2.3682L18.3301 2.37307L18.3253 2.37631L18.3204 2.37955L18.3171 2.38441L18.3139 2.38928L18.309 2.39252L18.3042 2.39576L18.3009 2.40062L18.2977 2.40548L18.2928 2.40873L18.2847 2.42493L18.2766 2.44114L18.2717 2.44438C18.2695 2.44763 18.2008 2.53946 18.0656 2.71993C17.9303 2.90146 17.8573 2.9933 17.8465 2.99547C17.8356 2.99871 17.8205 3.01492 17.801 3.0441C17.7826 3.07434 17.6679 3.19483 17.4569 3.40554C17.2459 3.61625 17.0393 3.80372 16.8369 3.96797C16.6335 4.1333 16.5307 4.33644 16.5285 4.57741C16.5253 4.8173 16.5128 5.08853 16.4912 5.39107C16.4695 5.69363 16.429 6.02049 16.3694 6.37168C16.3099 6.72287 16.218 7.11998 16.0935 7.563C15.9691 8.00602 15.8176 8.43825 15.6391 8.85967C15.4605 9.28109 15.2739 9.65928 15.0791 9.99426C14.8843 10.3292 14.7058 10.6129 14.5435 10.8452C14.3812 11.0775 14.2162 11.2963 14.0484 11.5016C13.8807 11.707 13.6687 11.9382 13.4122 12.1954C13.1547 12.4515 13.014 12.5919 12.9902 12.6168C12.9653 12.6406 12.8593 12.7292 12.6721 12.8826C12.486 13.0371 12.2858 13.1916 12.0715 13.3462C11.8584 13.4996 11.6625 13.6277 11.484 13.7303C11.3054 13.8329 11.0901 13.9502 10.838 14.082C10.587 14.2149 10.3153 14.3381 10.0232 14.4516C9.73103 14.565 9.42265 14.6704 9.09803 14.7676C8.77341 14.8649 8.45962 14.9405 8.15664 14.9946C7.85368 15.0486 7.51012 15.0945 7.12598 15.1323L6.54979 15.1891V15.1972H5.49479V15.1891L5.35682 15.181C5.26486 15.1756 5.18911 15.1701 5.12959 15.1647C5.07009 15.1593 4.84555 15.1296 4.45601 15.0756C4.06647 15.0216 3.7608 14.9675 3.53897 14.9135C3.31716 14.8595 2.98712 14.7568 2.54889 14.6056C2.11066 14.4543 1.73572 14.3014 1.42409 14.1469C1.11355 13.9934 0.918776 13.8962 0.839781 13.8551C0.761873 13.8151 0.674226 13.7654 0.576841 13.706L0.430764 13.6168L0.427534 13.612L0.422648 13.6087L0.417779 13.6055L0.414533 13.6006L0.398302 13.5925L0.382071 13.5844L0.378841 13.5796L0.373956 13.5763L0.369086 13.5731L0.36584 13.5682L0.36261 13.5634L0.357725 13.5601H0.349609V13.5277L0.36584 13.5309L0.382071 13.5358L0.45511 13.5439C0.503802 13.5493 0.63636 13.5574 0.852765 13.5682C1.06919 13.579 1.29911 13.579 1.54258 13.5682C1.78604 13.5574 2.03492 13.5331 2.28919 13.4953C2.54348 13.4575 2.84375 13.3926 3.19001 13.3008C3.53627 13.2089 3.8544 13.0998 4.1444 12.9734C4.4333 12.8459 4.63888 12.7508 4.76117 12.6881C4.88235 12.6265 5.06738 12.512 5.31625 12.3445L5.68956 12.0932L5.6928 12.0884L5.69767 12.0851L5.70256 12.0819L5.70579 12.077L5.70903 12.0722L5.7139 12.0689L5.71879 12.0657L5.72202 12.0608L5.73825 12.056L5.75448 12.0527L5.75772 12.0365L5.76259 12.0203L5.76748 12.0171L5.77071 12.0122L5.64086 12.0041C5.5543 11.9987 5.47044 11.9933 5.38928 11.9879C5.30813 11.9825 5.18099 11.9582 5.00786 11.915C4.83474 11.8717 4.64809 11.8069 4.4479 11.7205C4.24772 11.634 4.05295 11.5314 3.86359 11.4125C3.67424 11.2936 3.53735 11.1948 3.45295 11.1159C3.36963 11.0381 3.26142 10.9279 3.12833 10.7852C2.99632 10.6415 2.88162 10.494 2.78424 10.3427C2.68685 10.1915 2.5938 10.0169 2.50508 9.81921L2.37035 9.52422L2.36223 9.4999L2.35412 9.47559L2.34925 9.45938L2.346 9.44317L2.37035 9.44642L2.3947 9.45128L2.57323 9.47559C2.69227 9.4918 2.87893 9.4972 3.1332 9.4918C3.38749 9.4864 3.56332 9.47559 3.6607 9.45938C3.75809 9.44317 3.8176 9.43236 3.83924 9.42697L3.8717 9.41886L3.91228 9.41076L3.95286 9.40265L3.9561 9.39779L3.96097 9.39455L3.96586 9.39131L3.96909 9.38645L3.93662 9.37834L3.90416 9.37024L3.8717 9.36213L3.83924 9.35403L3.80678 9.34592C3.78514 9.34053 3.74728 9.32972 3.69316 9.31351C3.63906 9.2973 3.49299 9.23786 3.25493 9.13521C3.01689 9.03257 2.82752 8.93261 2.68685 8.83536C2.54583 8.73783 2.41137 8.63116 2.28433 8.51605C2.15772 8.39935 2.01869 8.24915 1.86719 8.06546C1.71571 7.88177 1.58046 7.66835 1.46142 7.42523C1.3424 7.1821 1.25313 6.94979 1.19361 6.72827C1.13433 6.50805 1.09522 6.28291 1.07677 6.05562L1.04754 5.71524L1.06377 5.71848L1.08 5.72335L1.09623 5.73145L1.11246 5.73955L1.12869 5.74766L1.14492 5.75576L1.3965 5.86922C1.56423 5.94487 1.77252 6.0097 2.02139 6.06372C2.27027 6.11774 2.41904 6.14747 2.46773 6.15287L2.54077 6.16097H2.68685L2.68362 6.15611L2.67873 6.15287L2.67387 6.14963L2.67062 6.14476L2.66739 6.1399L2.6625 6.13666L2.65763 6.13342L2.65439 6.12856L2.63816 6.12045L2.62193 6.11235L2.6187 6.10748L2.61381 6.10424L2.60894 6.101L2.6057 6.09614L2.58947 6.08803L2.57323 6.07993L2.57 6.07507C2.56676 6.0729 2.52022 6.03832 2.4304 5.97133C2.34167 5.90326 2.24862 5.8152 2.15123 5.70714C2.05385 5.59908 1.95646 5.48562 1.85908 5.36676C1.76151 5.24763 1.67461 5.12018 1.59938 4.98586C1.52365 4.8508 1.44357 4.67897 1.35917 4.47044C1.27585 4.26297 1.21255 4.05388 1.16927 3.84317C1.126 3.63246 1.10165 3.42446 1.09623 3.21915C1.09082 3.01383 1.09623 2.83825 1.11246 2.69237C1.12869 2.5465 1.16115 2.38171 1.20984 2.19802C1.25854 2.01433 1.32888 1.81983 1.42084 1.61451L1.55881 1.30655L1.56692 1.28224L1.57504 1.25793L1.57992 1.25469L1.58315 1.24982L1.5864 1.24496L1.59127 1.24172L1.59615 1.24496L1.59938 1.24982L1.60263 1.25469L1.6075 1.25793L1.61238 1.26117L1.61561 1.26603L1.61886 1.2709L1.62373 1.27414L1.63185 1.29035L1.63996 1.30655L1.64485 1.3098L1.64808 1.31466L1.86719 1.55778C2.01327 1.71987 2.1864 1.90087 2.38658 2.10077C2.58677 2.30066 2.69768 2.4044 2.71931 2.41197C2.74096 2.42061 2.768 2.44545 2.80047 2.48653C2.83293 2.52651 2.94114 2.62214 3.12508 2.77341C3.30904 2.92469 3.5498 3.10029 3.84736 3.30019C4.14493 3.50009 4.47495 3.69729 4.83744 3.89179C5.19994 4.0863 5.58948 4.26188 6.00606 4.41857C6.42265 4.57525 6.71481 4.6779 6.88252 4.72653C7.05025 4.77515 7.33699 4.83728 7.74276 4.91292C8.14853 4.98857 8.45422 5.03719 8.6598 5.0588C8.86539 5.08041 9.00607 5.09284 9.0818 5.09608L9.19542 5.09932L9.19219 5.07501L9.1873 5.0507L9.15484 4.84809C9.1332 4.71303 9.12238 4.52392 9.12238 4.2808C9.12238 4.03767 9.14132 3.81346 9.17919 3.60815C9.21707 3.40284 9.27388 3.19483 9.34961 2.98412C9.42536 2.77341 9.49949 2.6043 9.57197 2.4768C9.64556 2.35038 9.74186 2.20612 9.86088 2.04404C9.97992 1.88195 10.1341 1.71447 10.3235 1.54158C10.5128 1.36868 10.7292 1.2147 10.9727 1.07964C11.2162 0.944571 11.4407 0.841907 11.6463 0.771676C11.8519 0.701445 12.025 0.655511 12.1657 0.633905C12.3063 0.612299 12.3767 0.599867 12.3767 0.596625Z" fill="#828282"/>
</svg>
